<ttFont>
    <TTGlyph name="A" xMin="40" yMin="0" xMax="650" yMax="678">
      <contour>
        <pt x="340" y="678" on="1"/>
        <pt x="351" y="678" on="1"/>
        <pt x="376" y="678" on="0"/>
        <pt x="391" y="666" on="0"/>
        <pt x="396" y="663" on="0"/>
        <pt x="405" y="649" on="0"/>
        <pt x="408" y="645" on="0"/>
        <pt x="418" y="625" on="0"/>
        <pt x="420" y="622" on="1"/>
        <pt x="543" y="399" on="0"/>
        <pt x="647" y="50" on="1"/>
        <pt x="650" y="38" on="0"/>
        <pt x="650" y="27" on="1"/>
        <pt x="650" y="0" on="0"/>
        <pt x="619" y="0" on="1"/>
        <pt x="595" y="0" on="1"/>
        <pt x="578" y="0" on="0"/>
        <pt x="565" y="12" on="0"/>
        <pt x="559" y="18" on="0"/>
        <pt x="553" y="35" on="0"/>
        <pt x="552" y="39" on="1"/>
        <pt x="549" y="45" on="0"/>
        <pt x="516" y="170" on="0"/>
        <pt x="496" y="228" on="1"/>
        <pt x="194" y="228" on="1"/>
        <pt x="169" y="151" on="0"/>
        <pt x="141" y="43" on="0"/>
        <pt x="138" y="35" on="0"/>
        <pt x="132" y="18" on="0"/>
        <pt x="126" y="12" on="0"/>
        <pt x="121" y="8" on="1"/>
        <pt x="113" y="0" on="0"/>
        <pt x="96" y="0" on="1"/>
        <pt x="72" y="0" on="1"/>
        <pt x="40" y="0" on="0"/>
        <pt x="40" y="27" on="1"/>
        <pt x="40" y="34" on="0"/>
        <pt x="44" y="50" on="1"/>
        <pt x="148" y="399" on="0"/>
        <pt x="271" y="622" on="1"/>
        <pt x="273" y="625" on="0"/>
        <pt x="283" y="645" on="0"/>
        <pt x="286" y="649" on="0"/>
        <pt x="295" y="663" on="0"/>
        <pt x="300" y="666" on="0"/>
        <pt x="310" y="674" on="0"/>
        <pt x="314" y="675" on="1"/>
        <pt x="328" y="678" on="0"/>
      </contour>
      <contour>
        <pt x="345" y="583" on="1"/>
        <pt x="280" y="468" on="0"/>
        <pt x="219" y="300" on="1"/>
        <pt x="472" y="300" on="1"/>
        <pt x="436" y="399" on="0"/>
      </contour>
    </TTGlyph>
    <TTGlyph name="Aacute" xMin="40" yMin="0" xMax="650" yMax="896">
      <contour>
        <pt x="340" y="678" on="1"/>
        <pt x="351" y="678" on="1"/>
        <pt x="376" y="678" on="0"/>
        <pt x="391" y="666" on="0"/>
        <pt x="396" y="663" on="0"/>
        <pt x="405" y="649" on="0"/>
        <pt x="408" y="645" on="0"/>
        <pt x="418" y="625" on="0"/>
        <pt x="420" y="622" on="1"/>
        <pt x="543" y="399" on="0"/>
        <pt x="647" y="50" on="1"/>
        <pt x="650" y="38" on="0"/>
        <pt x="650" y="27" on="1"/>
        <pt x="650" y="0" on="0"/>
        <pt x="619" y="0" on="1"/>
        <pt x="595" y="0" on="1"/>
        <pt x="578" y="0" on="0"/>
        <pt x="565" y="12" on="0"/>
        <pt x="559" y="18" on="0"/>
        <pt x="553" y="35" on="0"/>
        <pt x="552" y="39" on="1"/>
        <pt x="549" y="45" on="0"/>
        <pt x="516" y="170" on="0"/>
        <pt x="496" y="228" on="1"/>
        <pt x="194" y="228" on="1"/>
        <pt x="169" y="151" on="0"/>
        <pt x="141" y="43" on="0"/>
        <pt x="138" y="35" on="0"/>
        <pt x="132" y="18" on="0"/>
        <pt x="126" y="12" on="0"/>
        <pt x="121" y="8" on="1"/>
        <pt x="113" y="0" on="0"/>
        <pt x="96" y="0" on="1"/>
        <pt x="72" y="0" on="1"/>
        <pt x="40" y="0" on="0"/>
        <pt x="40" y="27" on="1"/>
        <pt x="40" y="34" on="0"/>
        <pt x="44" y="50" on="1"/>
        <pt x="148" y="399" on="0"/>
        <pt x="271" y="622" on="1"/>
        <pt x="273" y="625" on="0"/>
        <pt x="283" y="645" on="0"/>
        <pt x="286" y="649" on="0"/>
        <pt x="295" y="663" on="0"/>
        <pt x="300" y="666" on="0"/>
        <pt x="310" y="674" on="0"/>
        <pt x="314" y="675" on="1"/>
        <pt x="328" y="678" on="0"/>
      </contour>
      <contour>
        <pt x="345" y="583" on="1"/>
        <pt x="280" y="468" on="0"/>
        <pt x="219" y="300" on="1"/>
        <pt x="472" y="300" on="1"/>
        <pt x="436" y="399" on="0"/>
      </contour>
      <contour>
        <pt x="243" y="734" on="1"/>
        <pt x="227" y="734" on="0"/>
        <pt x="227" y="749" on="1"/>
        <pt x="227" y="758" on="1"/>
        <pt x="227" y="773" on="0"/>
        <pt x="245" y="785" on="1"/>
        <pt x="425" y="892" on="1"/>
        <pt x="430" y="896" on="0"/>
        <pt x="441" y="896" on="1"/>
        <pt x="459" y="896" on="0"/>
        <pt x="459" y="878" on="1"/>
        <pt x="459" y="851" on="1"/>
        <pt x="459" y="827" on="0"/>
        <pt x="437" y="818" on="1"/>
        <pt x="256" y="737" on="1"/>
        <pt x="250" y="734" on="0"/>
      </contour>
    </TTGlyph>
    <TTGlyph name="Abreve" xMin="40" yMin="0" xMax="650" yMax="860">
      <contour>
        <pt x="340" y="678" on="1"/>
        <pt x="351" y="678" on="1"/>
        <pt x="376" y="678" on="0"/>
        <pt x="391" y="666" on="0"/>
        <pt x="396" y="663" on="0"/>
        <pt x="405" y="649" on="0"/>
        <pt x="408" y="645" on="0"/>
        <pt x="418" y="625" on="0"/>
        <pt x="420" y="622" on="1"/>
        <pt x="543" y="399" on="0"/>
        <pt x="647" y="50" on="1"/>
        <pt x="650" y="38" on="0"/>
        <pt x="650" y="27" on="1"/>
        <pt x="650" y="0" on="0"/>
        <pt x="619" y="0" on="1"/>
        <pt x="595" y="0" on="1"/>
        <pt x="578" y="0" on="0"/>
        <pt x="565" y="12" on="0"/>
        <pt x="559" y="18" on="0"/>
        <pt x="553" y="35" on="0"/>
        <pt x="552" y="39" on="1"/>
        <pt x="549" y="45" on="0"/>
        <pt x="516" y="170" on="0"/>
        <pt x="496" y="228" on="1"/>
        <pt x="194" y="228" on="1"/>
        <pt x="169" y="151" on="0"/>
        <pt x="141" y="43" on="0"/>
        <pt x="138" y="35" on="0"/>
        <pt x="132" y="18" on="0"/>
        <pt x="126" y="12" on="0"/>
        <pt x="121" y="8" on="1"/>
        <pt x="113" y="0" on="0"/>
        <pt x="96" y="0" on="1"/>
        <pt x="72" y="0" on="1"/>
        <pt x="40" y="0" on="0"/>
        <pt x="40" y="27" on="1"/>
        <pt x="40" y="34" on="0"/>
        <pt x="44" y="50" on="1"/>
        <pt x="148" y="399" on="0"/>
        <pt x="271" y="622" on="1"/>
        <pt x="273" y="625" on="0"/>
        <pt x="283" y="645" on="0"/>
        <pt x="286" y="649" on="0"/>
        <pt x="295" y="663" on="0"/>
        <pt x="300" y="666" on="0"/>
        <pt x="310" y="674" on="0"/>
        <pt x="314" y="675" on="1"/>
        <pt x="328" y="678" on="0"/>
      </contour>
      <contour>
        <pt x="345" y="583" on="1"/>
        <pt x="280" y="468" on="0"/>
        <pt x="219" y="300" on="1"/>
        <pt x="472" y="300" on="1"/>
        <pt x="436" y="399" on="0"/>
      </contour>
      <contour>
        <pt x="273" y="830" on="0"/>
        <pt x="318" y="800" on="0"/>
        <pt x="367" y="800" on="0"/>
        <pt x="411" y="830" on="0"/>
        <pt x="444" y="860" on="0"/>
        <pt x="454" y="860" on="1"/>
        <pt x="479" y="860" on="0"/>
        <pt x="479" y="804" on="0"/>
        <pt x="396" y="746" on="0"/>
        <pt x="290" y="746" on="0"/>
        <pt x="206" y="805" on="0"/>
        <pt x="206" y="836" on="1"/>
        <pt x="206" y="847" on="0"/>
        <pt x="221" y="860" on="0"/>
        <pt x="242" y="860" on="0"/>
      </contour>
    </TTGlyph>
    <TTGlyph name="Acircumflex" xMin="40" yMin="0" xMax="650" yMax="870">
      <contour>
        <pt x="340" y="678" on="1"/>
        <pt x="351" y="678" on="1"/>
        <pt x="376" y="678" on="0"/>
        <pt x="391" y="666" on="0"/>
        <pt x="396" y="663" on="0"/>
        <pt x="405" y="649" on="0"/>
        <pt x="408" y="645" on="0"/>
        <pt x="418" y="625" on="0"/>
        <pt x="420" y="622" on="1"/>
        <pt x="543" y="399" on="0"/>
        <pt x="647" y="50" on="1"/>
        <pt x="650" y="38" on="0"/>
        <pt x="650" y="27" on="1"/>
        <pt x="650" y="0" on="0"/>
        <pt x="619" y="0" on="1"/>
        <pt x="595" y="0" on="1"/>
        <pt x="578" y="0" on="0"/>
        <pt x="565" y="12" on="0"/>
        <pt x="559" y="18" on="0"/>
        <pt x="553" y="35" on="0"/>
        <pt x="552" y="39" on="1"/>
        <pt x="549" y="45" on="0"/>
        <pt x="516" y="170" on="0"/>
        <pt x="496" y="228" on="1"/>
        <pt x="194" y="228" on="1"/>
        <pt x="169" y="151" on="0"/>
        <pt x="141" y="43" on="0"/>
        <pt x="138" y="35" on="0"/>
        <pt x="132" y="18" on="0"/>
        <pt x="126" y="12" on="0"/>
        <pt x="121" y="8" on="1"/>
        <pt x="113" y="0" on="0"/>
        <pt x="96" y="0" on="1"/>
        <pt x="72" y="0" on="1"/>
        <pt x="40" y="0" on="0"/>
        <pt x="40" y="27" on="1"/>
        <pt x="40" y="34" on="0"/>
        <pt x="44" y="50" on="1"/>
        <pt x="148" y="399" on="0"/>
        <pt x="271" y="622" on="1"/>
        <pt x="273" y="625" on="0"/>
        <pt x="283" y="645" on="0"/>
        <pt x="286" y="649" on="0"/>
        <pt x="295" y="663" on="0"/>
        <pt x="300" y="666" on="0"/>
        <pt x="310" y="674" on="0"/>
        <pt x="314" y="675" on="1"/>
        <pt x="328" y="678" on="0"/>
      </contour>
      <contour>
        <pt x="345" y="583" on="1"/>
        <pt x="280" y="468" on="0"/>
        <pt x="219" y="300" on="1"/>
        <pt x="472" y="300" on="1"/>
        <pt x="436" y="399" on="0"/>
      </contour>
      <contour>
        <pt x="229" y="746" on="1"/>
        <pt x="199" y="746" on="0"/>
        <pt x="199" y="770" on="1"/>
        <pt x="199" y="782" on="0"/>
        <pt x="221" y="797" on="1"/>
        <pt x="310" y="860" on="1"/>
        <pt x="324" y="870" on="0"/>
        <pt x="360" y="870" on="0"/>
        <pt x="376" y="859" on="1"/>
        <pt x="465" y="797" on="1"/>
        <pt x="487" y="782" on="0"/>
        <pt x="487" y="770" on="1"/>
        <pt x="487" y="746" on="0"/>
        <pt x="457" y="746" on="1"/>
        <pt x="443" y="746" on="0"/>
        <pt x="429" y="755" on="1"/>
        <pt x="343" y="808" on="1"/>
        <pt x="257" y="755" on="1"/>
        <pt x="243" y="746" on="0"/>
      </contour>
    </TTGlyph>
    <TTGlyph name="Adieresis" xMin="40" yMin="0" xMax="650" yMax="841">
      <contour>
        <pt x="340" y="678" on="1"/>
        <pt x="351" y="678" on="1"/>
        <pt x="376" y="678" on="0"/>
        <pt x="391" y="666" on="0"/>
        <pt x="396" y="663" on="0"/>
        <pt x="405" y="649" on="0"/>
        <pt x="408" y="645" on="0"/>
        <pt x="418" y="625" on="0"/>
        <pt x="420" y="622" on="1"/>
        <pt x="543" y="399" on="0"/>
        <pt x="647" y="50" on="1"/>
        <pt x="650" y="38" on="0"/>
        <pt x="650" y="27" on="1"/>
        <pt x="650" y="0" on="0"/>
        <pt x="619" y="0" on="1"/>
        <pt x="595" y="0" on="1"/>
        <pt x="578" y="0" on="0"/>
        <pt x="565" y="12" on="0"/>
        <pt x="559" y="18" on="0"/>
        <pt x="553" y="35" on="0"/>
        <pt x="552" y="39" on="1"/>
        <pt x="549" y="45" on="0"/>
        <pt x="516" y="170" on="0"/>
        <pt x="496" y="228" on="1"/>
        <pt x="194" y="228" on="1"/>
        <pt x="169" y="151" on="0"/>
        <pt x="141" y="43" on="0"/>
        <pt x="138" y="35" on="0"/>
        <pt x="132" y="18" on="0"/>
        <pt x="126" y="12" on="0"/>
        <pt x="121" y="8" on="1"/>
        <pt x="113" y="0" on="0"/>
        <pt x="96" y="0" on="1"/>
        <pt x="72" y="0" on="1"/>
        <pt x="40" y="0" on="0"/>
        <pt x="40" y="27" on="1"/>
        <pt x="40" y="34" on="0"/>
        <pt x="44" y="50" on="1"/>
        <pt x="148" y="399" on="0"/>
        <pt x="271" y="622" on="1"/>
        <pt x="273" y="625" on="0"/>
        <pt x="283" y="645" on="0"/>
        <pt x="286" y="649" on="0"/>
        <pt x="295" y="663" on="0"/>
        <pt x="300" y="666" on="0"/>
        <pt x="310" y="674" on="0"/>
        <pt x="314" y="675" on="1"/>
        <pt x="328" y="678" on="0"/>
      </contour>
      <contour>
        <pt x="345" y="583" on="1"/>
        <pt x="280" y="468" on="0"/>
        <pt x="219" y="300" on="1"/>
        <pt x="472" y="300" on="1"/>
        <pt x="436" y="399" on="0"/>
      </contour>
      <contour>
        <pt x="224" y="751" on="0"/>
        <pt x="197" y="777" on="0"/>
        <pt x="197" y="816" on="0"/>
        <pt x="224" y="841" on="0"/>
        <pt x="262" y="841" on="0"/>
        <pt x="288" y="816" on="0"/>
        <pt x="288" y="777" on="0"/>
        <pt x="262" y="751" on="0"/>
      </contour>
      <contour>
        <pt x="425" y="751" on="0"/>
        <pt x="399" y="777" on="0"/>
        <pt x="399" y="816" on="0"/>
        <pt x="425" y="841" on="0"/>
        <pt x="463" y="841" on="0"/>
        <pt x="489" y="816" on="0"/>
        <pt x="489" y="777" on="0"/>
        <pt x="463" y="751" on="0"/>
      </contour>
    </TTGlyph>
    <TTGlyph name="Agrave" xMin="40" yMin="0" xMax="650" yMax="896">
      <contour>
        <pt x="340" y="678" on="1"/>
        <pt x="351" y="678" on="1"/>
        <pt x="376" y="678" on="0"/>
        <pt x="391" y="666" on="0"/>
        <pt x="396" y="663" on="0"/>
        <pt x="405" y="649" on="0"/>
        <pt x="408" y="645" on="0"/>
        <pt x="418" y="625" on="0"/>
        <pt x="420" y="622" on="1"/>
        <pt x="543" y="399" on="0"/>
        <pt x="647" y="50" on="1"/>
        <pt x="650" y="38" on="0"/>
        <pt x="650" y="27" on="1"/>
        <pt x="650" y="0" on="0"/>
        <pt x="619" y="0" on="1"/>
        <pt x="595" y="0" on="1"/>
        <pt x="578" y="0" on="0"/>
        <pt x="565" y="12" on="0"/>
        <pt x="559" y="18" on="0"/>
        <pt x="553" y="35" on="0"/>
        <pt x="552" y="39" on="1"/>
        <pt x="549" y="45" on="0"/>
        <pt x="516" y="170" on="0"/>
        <pt x="496" y="228" on="1"/>
        <pt x="194" y="228" on="1"/>
        <pt x="169" y="151" on="0"/>
        <pt x="141" y="43" on="0"/>
        <pt x="138" y="35" on="0"/>
        <pt x="132" y="18" on="0"/>
        <pt x="126" y="12" on="0"/>
        <pt x="121" y="8" on="1"/>
        <pt x="113" y="0" on="0"/>
        <pt x="96" y="0" on="1"/>
        <pt x="72" y="0" on="1"/>
        <pt x="40" y="0" on="0"/>
        <pt x="40" y="27" on="1"/>
        <pt x="40" y="34" on="0"/>
        <pt x="44" y="50" on="1"/>
        <pt x="148" y="399" on="0"/>
        <pt x="271" y="622" on="1"/>
        <pt x="273" y="625" on="0"/>
        <pt x="283" y="645" on="0"/>
        <pt x="286" y="649" on="0"/>
        <pt x="295" y="663" on="0"/>
        <pt x="300" y="666" on="0"/>
        <pt x="310" y="674" on="0"/>
        <pt x="314" y="675" on="1"/>
        <pt x="328" y="678" on="0"/>
      </contour>
      <contour>
        <pt x="345" y="583" on="1"/>
        <pt x="272" y="450" on="0"/>
        <pt x="219" y="300" on="1"/>
        <pt x="472" y="300" on="1"/>
        <pt x="436" y="399" on="0"/>
      </contour>
      <contour>
        <pt x="227" y="851" on="1"/>
        <pt x="227" y="878" on="1"/>
        <pt x="227" y="896" on="0"/>
        <pt x="245" y="896" on="1"/>
        <pt x="254" y="896" on="0"/>
        <pt x="261" y="892" on="1"/>
        <pt x="441" y="785" on="1"/>
        <pt x="457" y="775" on="0"/>
        <pt x="459" y="758" on="1"/>
        <pt x="459" y="749" on="1"/>
        <pt x="459" y="734" on="0"/>
        <pt x="442" y="734" on="1"/>
        <pt x="435" y="734" on="0"/>
        <pt x="429" y="737" on="1"/>
        <pt x="247" y="818" on="1"/>
        <pt x="227" y="827" on="0"/>
      </contour>
    </TTGlyph>
    <TTGlyph name="Amacron" xMin="40" yMin="0" xMax="650" yMax="827">
      <contour>
        <pt x="340" y="678" on="1"/>
        <pt x="351" y="678" on="1"/>
        <pt x="376" y="678" on="0"/>
        <pt x="391" y="666" on="0"/>
        <pt x="396" y="663" on="0"/>
        <pt x="405" y="649" on="0"/>
        <pt x="408" y="645" on="0"/>
        <pt x="418" y="625" on="0"/>
        <pt x="420" y="622" on="1"/>
        <pt x="543" y="399" on="0"/>
        <pt x="647" y="50" on="1"/>
        <pt x="650" y="38" on="0"/>
        <pt x="650" y="27" on="1"/>
        <pt x="650" y="0" on="0"/>
        <pt x="619" y="0" on="1"/>
        <pt x="595" y="0" on="1"/>
        <pt x="578" y="0" on="0"/>
        <pt x="565" y="12" on="0"/>
        <pt x="559" y="18" on="0"/>
        <pt x="553" y="35" on="0"/>
        <pt x="552" y="39" on="1"/>
        <pt x="549" y="45" on="0"/>
        <pt x="516" y="170" on="0"/>
        <pt x="496" y="228" on="1"/>
        <pt x="194" y="228" on="1"/>
        <pt x="169" y="151" on="0"/>
        <pt x="141" y="43" on="0"/>
        <pt x="138" y="35" on="0"/>
        <pt x="132" y="18" on="0"/>
        <pt x="126" y="12" on="0"/>
        <pt x="121" y="8" on="1"/>
        <pt x="113" y="0" on="0"/>
        <pt x="96" y="0" on="1"/>
        <pt x="72" y="0" on="1"/>
        <pt x="40" y="0" on="0"/>
        <pt x="40" y="27" on="1"/>
        <pt x="40" y="34" on="0"/>
        <pt x="44" y="50" on="1"/>
        <pt x="148" y="399" on="0"/>
        <pt x="271" y="622" on="1"/>
        <pt x="273" y="625" on="0"/>
        <pt x="283" y="645" on="0"/>
        <pt x="286" y="649" on="0"/>
        <pt x="295" y="663" on="0"/>
        <pt x="300" y="666" on="0"/>
        <pt x="310" y="674" on="0"/>
        <pt x="314" y="675" on="1"/>
        <pt x="328" y="678" on="0"/>
      </contour>
      <contour>
        <pt x="345" y="583" on="1"/>
        <pt x="280" y="468" on="0"/>
        <pt x="219" y="300" on="1"/>
        <pt x="472" y="300" on="1"/>
        <pt x="436" y="399" on="0"/>
      </contour>
      <contour>
        <pt x="209" y="827" on="1"/>
        <pt x="475" y="827" on="1"/>
        <pt x="512" y="827" on="0"/>
        <pt x="512" y="761" on="0"/>
        <pt x="475" y="761" on="1"/>
        <pt x="209" y="761" on="1"/>
        <pt x="172" y="761" on="0"/>
        <pt x="172" y="827" on="0"/>
      </contour>
    </TTGlyph>
    <TTGlyph name="Aogonek" xMin="40" yMin="-148" xMax="654" yMax="678">
      <contour>
        <pt x="340" y="678" on="1"/>
        <pt x="351" y="678" on="1"/>
        <pt x="376" y="678" on="0"/>
        <pt x="391" y="666" on="0"/>
        <pt x="396" y="663" on="0"/>
        <pt x="405" y="649" on="0"/>
        <pt x="408" y="645" on="0"/>
        <pt x="418" y="625" on="0"/>
        <pt x="420" y="622" on="1"/>
        <pt x="543" y="399" on="0"/>
        <pt x="647" y="50" on="1"/>
        <pt x="650" y="38" on="0"/>
        <pt x="650" y="27" on="1"/>
        <pt x="650" y="0" on="0"/>
        <pt x="619" y="0" on="1"/>
        <pt x="595" y="0" on="1"/>
        <pt x="578" y="0" on="0"/>
        <pt x="565" y="12" on="0"/>
        <pt x="559" y="18" on="0"/>
        <pt x="553" y="35" on="0"/>
        <pt x="552" y="39" on="1"/>
        <pt x="549" y="45" on="0"/>
        <pt x="516" y="170" on="0"/>
        <pt x="496" y="228" on="1"/>
        <pt x="194" y="228" on="1"/>
        <pt x="169" y="151" on="0"/>
        <pt x="141" y="43" on="0"/>
        <pt x="138" y="35" on="0"/>
        <pt x="132" y="18" on="0"/>
        <pt x="126" y="12" on="0"/>
        <pt x="121" y="8" on="1"/>
        <pt x="113" y="0" on="0"/>
        <pt x="96" y="0" on="1"/>
        <pt x="72" y="0" on="1"/>
        <pt x="40" y="0" on="0"/>
        <pt x="40" y="27" on="1"/>
        <pt x="40" y="34" on="0"/>
        <pt x="44" y="50" on="1"/>
        <pt x="148" y="399" on="0"/>
        <pt x="271" y="622" on="1"/>
        <pt x="273" y="625" on="0"/>
        <pt x="283" y="645" on="0"/>
        <pt x="286" y="649" on="0"/>
        <pt x="295" y="663" on="0"/>
        <pt x="300" y="666" on="0"/>
        <pt x="310" y="674" on="0"/>
        <pt x="314" y="675" on="1"/>
        <pt x="328" y="678" on="0"/>
      </contour>
      <contour>
        <pt x="345" y="583" on="1"/>
        <pt x="280" y="468" on="0"/>
        <pt x="219" y="300" on="1"/>
        <pt x="472" y="300" on="1"/>
        <pt x="436" y="399" on="0"/>
      </contour>
      <contour>
        <pt x="599" y="34" on="1"/>
        <pt x="599" y="0" on="1"/>
        <pt x="574" y="0" on="0"/>
        <pt x="546" y="-28" on="0"/>
        <pt x="546" y="-50" on="1"/>
        <pt x="546" y="-91" on="0"/>
        <pt x="595" y="-91" on="1"/>
        <pt x="629" y="-91" on="0"/>
        <pt x="629" y="-75" on="1"/>
        <pt x="638" y="-75" on="0"/>
        <pt x="654" y="-91" on="0"/>
        <pt x="654" y="-124" on="0"/>
        <pt x="615" y="-148" on="0"/>
        <pt x="541" y="-148" on="0"/>
        <pt x="488" y="-100" on="0"/>
        <pt x="488" y="-21" on="0"/>
        <pt x="548" y="34" on="0"/>
      </contour>
    </TTGlyph>
    <TTGlyph name="Aring" xMin="40" yMin="0" xMax="650" yMax="904">
      <contour>
        <pt x="340" y="678" on="1"/>
        <pt x="351" y="678" on="1"/>
        <pt x="376" y="678" on="0"/>
        <pt x="391" y="666" on="0"/>
        <pt x="396" y="663" on="0"/>
        <pt x="405" y="649" on="0"/>
        <pt x="408" y="645" on="0"/>
        <pt x="418" y="625" on="0"/>
        <pt x="420" y="622" on="1"/>
        <pt x="543" y="399" on="0"/>
        <pt x="647" y="50" on="1"/>
        <pt x="650" y="38" on="0"/>
        <pt x="650" y="27" on="1"/>
        <pt x="650" y="0" on="0"/>
        <pt x="619" y="0" on="1"/>
        <pt x="595" y="0" on="1"/>
        <pt x="578" y="0" on="0"/>
        <pt x="565" y="12" on="0"/>
        <pt x="559" y="18" on="0"/>
        <pt x="553" y="35" on="0"/>
        <pt x="552" y="39" on="1"/>
        <pt x="549" y="45" on="0"/>
        <pt x="516" y="170" on="0"/>
        <pt x="496" y="228" on="1"/>
        <pt x="194" y="228" on="1"/>
        <pt x="169" y="151" on="0"/>
        <pt x="141" y="43" on="0"/>
        <pt x="138" y="35" on="0"/>
        <pt x="132" y="18" on="0"/>
        <pt x="126" y="12" on="0"/>
        <pt x="121" y="8" on="1"/>
        <pt x="113" y="0" on="0"/>
        <pt x="96" y="0" on="1"/>
        <pt x="72" y="0" on="1"/>
        <pt x="40" y="0" on="0"/>
        <pt x="40" y="27" on="1"/>
        <pt x="40" y="34" on="0"/>
        <pt x="44" y="50" on="1"/>
        <pt x="148" y="399" on="0"/>
        <pt x="271" y="622" on="1"/>
        <pt x="273" y="625" on="0"/>
        <pt x="283" y="645" on="0"/>
        <pt x="286" y="649" on="0"/>
        <pt x="295" y="663" on="0"/>
        <pt x="300" y="666" on="0"/>
        <pt x="310" y="674" on="0"/>
        <pt x="314" y="675" on="1"/>
        <pt x="328" y="678" on="0"/>
      </contour>
      <contour>
        <pt x="345" y="583" on="1"/>
        <pt x="280" y="468" on="0"/>
        <pt x="219" y="300" on="1"/>
        <pt x="472" y="300" on="1"/>
        <pt x="436" y="399" on="0"/>
      </contour>
      <contour>
        <pt x="256" y="780" on="0"/>
        <pt x="256" y="858" on="0"/>
        <pt x="304" y="904" on="0"/>
        <pt x="382" y="904" on="0"/>
        <pt x="430" y="858" on="0"/>
        <pt x="430" y="780" on="0"/>
        <pt x="382" y="734" on="0"/>
        <pt x="304" y="734" on="0"/>
      </contour>
      <contour>
        <pt x="301" y="840" on="0"/>
        <pt x="301" y="798" on="0"/>
        <pt x="324" y="775" on="0"/>
        <pt x="361" y="775" on="0"/>
        <pt x="385" y="800" on="0"/>
        <pt x="385" y="840" on="0"/>
        <pt x="362" y="863" on="0"/>
        <pt x="324" y="863" on="0"/>
      </contour>
    </TTGlyph>
    <TTGlyph name="Atilde" xMin="40" yMin="0" xMax="650" yMax="852">
      <contour>
        <pt x="340" y="678" on="1"/>
        <pt x="351" y="678" on="1"/>
        <pt x="376" y="678" on="0"/>
        <pt x="391" y="666" on="0"/>
        <pt x="396" y="663" on="0"/>
        <pt x="405" y="649" on="0"/>
        <pt x="408" y="645" on="0"/>
        <pt x="418" y="625" on="0"/>
        <pt x="420" y="622" on="1"/>
        <pt x="543" y="399" on="0"/>
        <pt x="647" y="50" on="1"/>
        <pt x="650" y="38" on="0"/>
        <pt x="650" y="27" on="1"/>
        <pt x="650" y="0" on="0"/>
        <pt x="619" y="0" on="1"/>
        <pt x="595" y="0" on="1"/>
        <pt x="578" y="0" on="0"/>
        <pt x="565" y="12" on="0"/>
        <pt x="559" y="18" on="0"/>
        <pt x="553" y="35" on="0"/>
        <pt x="552" y="39" on="1"/>
        <pt x="549" y="45" on="0"/>
        <pt x="516" y="170" on="0"/>
        <pt x="496" y="228" on="1"/>
        <pt x="194" y="228" on="1"/>
        <pt x="169" y="151" on="0"/>
        <pt x="141" y="43" on="0"/>
        <pt x="138" y="35" on="0"/>
        <pt x="132" y="18" on="0"/>
        <pt x="126" y="12" on="0"/>
        <pt x="121" y="8" on="1"/>
        <pt x="113" y="0" on="0"/>
        <pt x="96" y="0" on="1"/>
        <pt x="72" y="0" on="1"/>
        <pt x="40" y="0" on="0"/>
        <pt x="40" y="27" on="1"/>
        <pt x="40" y="34" on="0"/>
        <pt x="44" y="50" on="1"/>
        <pt x="148" y="399" on="0"/>
        <pt x="271" y="622" on="1"/>
        <pt x="273" y="625" on="0"/>
        <pt x="283" y="645" on="0"/>
        <pt x="286" y="649" on="0"/>
        <pt x="295" y="663" on="0"/>
        <pt x="300" y="666" on="0"/>
        <pt x="310" y="674" on="0"/>
        <pt x="314" y="675" on="1"/>
        <pt x="328" y="678" on="0"/>
      </contour>
      <contour>
        <pt x="345" y="583" on="1"/>
        <pt x="280" y="468" on="0"/>
        <pt x="219" y="300" on="1"/>
        <pt x="472" y="300" on="1"/>
        <pt x="436" y="399" on="0"/>
      </contour>
      <contour>
        <pt x="357" y="755" on="0"/>
        <pt x="336" y="764" on="0"/>
        <pt x="298" y="781" on="0"/>
        <pt x="250" y="781" on="0"/>
        <pt x="220" y="757" on="0"/>
        <pt x="212" y="757" on="1"/>
        <pt x="190" y="757" on="0"/>
        <pt x="190" y="779" on="1"/>
        <pt x="190" y="852" on="0"/>
        <pt x="274" y="852" on="1"/>
        <pt x="289" y="852" on="0"/>
        <pt x="308" y="848" on="0"/>
        <pt x="315" y="847" on="0"/>
        <pt x="331" y="841" on="0"/>
        <pt x="335" y="839" on="0"/>
        <pt x="356" y="830" on="0"/>
        <pt x="358" y="829" on="1"/>
        <pt x="394" y="813" on="0"/>
        <pt x="442" y="813" on="0"/>
        <pt x="472" y="837" on="0"/>
        <pt x="489" y="837" on="0"/>
        <pt x="502" y="825" on="0"/>
        <pt x="502" y="815" on="1"/>
        <pt x="502" y="742" on="0"/>
        <pt x="418" y="742" on="1"/>
        <pt x="403" y="742" on="0"/>
        <pt x="384" y="746" on="0"/>
        <pt x="377" y="747" on="0"/>
        <pt x="361" y="753" on="0"/>
      </contour>
    </TTGlyph>
    <TTGlyph name="B" xMin="101" yMin="0" xMax="576" yMax="679">
      <contour>
        <pt x="139" y="679" on="1"/>
        <pt x="313" y="679" on="1"/>
        <pt x="413" y="679" on="0"/>
        <pt x="533" y="593" on="0"/>
        <pt x="533" y="504" on="1"/>
        <pt x="533" y="452" on="0"/>
        <pt x="479" y="375" on="0"/>
        <pt x="435" y="361" on="1"/>
        <pt x="492" y="351" on="0"/>
        <pt x="576" y="277" on="0"/>
        <pt x="576" y="202" on="1"/>
        <pt x="576" y="100" on="0"/>
        <pt x="439" y="0" on="0"/>
        <pt x="330" y="0" on="1"/>
        <pt x="139" y="0" on="1"/>
        <pt x="101" y="0" on="0"/>
        <pt x="101" y="37" on="1"/>
        <pt x="101" y="640" on="1"/>
        <pt x="101" y="679" on="0"/>
      </contour>
      <contour>
        <pt x="187" y="604" on="1"/>
        <pt x="187" y="387" on="1"/>
        <pt x="320" y="387" on="1"/>
        <pt x="386" y="387" on="0"/>
        <pt x="449" y="441" on="0"/>
        <pt x="449" y="497" on="1"/>
        <pt x="449" y="604" on="0"/>
        <pt x="313" y="604" on="1"/>
      </contour>
      <contour>
        <pt x="187" y="319" on="1"/>
        <pt x="187" y="75" on="1"/>
        <pt x="330" y="75" on="1"/>
        <pt x="491" y="75" on="0"/>
        <pt x="491" y="202" on="1"/>
        <pt x="491" y="319" on="0"/>
        <pt x="338" y="319" on="1"/>
      </contour>
    </TTGlyph>
    <TTGlyph name="C" xMin="63" yMin="-8" xMax="641" yMax="687">
      <contour>
        <pt x="394" y="687" on="1"/>
        <pt x="500" y="687" on="0"/>
        <pt x="637" y="603" on="0"/>
        <pt x="637" y="552" on="1"/>
        <pt x="637" y="530" on="0"/>
        <pt x="604" y="503" on="0"/>
        <pt x="577" y="503" on="1"/>
        <pt x="546" y="609" on="0"/>
        <pt x="394" y="609" on="1"/>
        <pt x="294" y="609" on="0"/>
        <pt x="155" y="474" on="0"/>
        <pt x="155" y="209" on="0"/>
        <pt x="295" y="68" on="0"/>
        <pt x="394" y="68" on="1"/>
        <pt x="548" y="68" on="0"/>
        <pt x="590" y="181" on="1"/>
        <pt x="614" y="181" on="0"/>
        <pt x="641" y="154" on="0"/>
        <pt x="641" y="132" on="1"/>
        <pt x="641" y="81" on="0"/>
        <pt x="501" y="-8" on="0"/>
        <pt x="394" y="-8" on="1"/>
        <pt x="253" y="-8" on="0"/>
        <pt x="63" y="174" on="0"/>
        <pt x="63" y="508" on="0"/>
        <pt x="253" y="687" on="0"/>
      </contour>
    </TTGlyph>
    <TTGlyph name="Cacute" xMin="63" yMin="-8" xMax="641" yMax="896">
      <contour>
        <pt x="394" y="687" on="1"/>
        <pt x="500" y="687" on="0"/>
        <pt x="637" y="603" on="0"/>
        <pt x="637" y="552" on="1"/>
        <pt x="637" y="530" on="0"/>
        <pt x="604" y="503" on="0"/>
        <pt x="577" y="503" on="1"/>
        <pt x="546" y="609" on="0"/>
        <pt x="394" y="609" on="1"/>
        <pt x="294" y="609" on="0"/>
        <pt x="155" y="474" on="0"/>
        <pt x="155" y="209" on="0"/>
        <pt x="295" y="68" on="0"/>
        <pt x="394" y="68" on="1"/>
        <pt x="548" y="68" on="0"/>
        <pt x="590" y="181" on="1"/>
        <pt x="614" y="181" on="0"/>
        <pt x="641" y="154" on="0"/>
        <pt x="641" y="132" on="1"/>
        <pt x="641" y="81" on="0"/>
        <pt x="501" y="-8" on="0"/>
        <pt x="394" y="-8" on="1"/>
        <pt x="253" y="-8" on="0"/>
        <pt x="63" y="174" on="0"/>
        <pt x="63" y="508" on="0"/>
        <pt x="253" y="687" on="0"/>
      </contour>
      <contour>
        <pt x="267" y="734" on="1"/>
        <pt x="251" y="734" on="0"/>
        <pt x="251" y="749" on="1"/>
        <pt x="251" y="758" on="1"/>
        <pt x="251" y="773" on="0"/>
        <pt x="269" y="785" on="1"/>
        <pt x="449" y="892" on="1"/>
        <pt x="454" y="896" on="0"/>
        <pt x="465" y="896" on="1"/>
        <pt x="483" y="896" on="0"/>
        <pt x="483" y="878" on="1"/>
        <pt x="483" y="851" on="1"/>
        <pt x="483" y="827" on="0"/>
        <pt x="461" y="818" on="1"/>
        <pt x="280" y="737" on="1"/>
        <pt x="274" y="734" on="0"/>
      </contour>
    </TTGlyph>
    <TTGlyph name="Ccaron" xMin="63" yMin="-8" xMax="641" yMax="870">
      <contour>
        <pt x="394" y="687" on="1"/>
        <pt x="500" y="687" on="0"/>
        <pt x="637" y="603" on="0"/>
        <pt x="637" y="552" on="1"/>
        <pt x="637" y="530" on="0"/>
        <pt x="604" y="503" on="0"/>
        <pt x="577" y="503" on="1"/>
        <pt x="546" y="609" on="0"/>
        <pt x="394" y="609" on="1"/>
        <pt x="294" y="609" on="0"/>
        <pt x="155" y="474" on="0"/>
        <pt x="155" y="209" on="0"/>
        <pt x="295" y="68" on="0"/>
        <pt x="394" y="68" on="1"/>
        <pt x="548" y="68" on="0"/>
        <pt x="590" y="181" on="1"/>
        <pt x="614" y="181" on="0"/>
        <pt x="641" y="154" on="0"/>
        <pt x="641" y="132" on="1"/>
        <pt x="641" y="81" on="0"/>
        <pt x="501" y="-8" on="0"/>
        <pt x="394" y="-8" on="1"/>
        <pt x="253" y="-8" on="0"/>
        <pt x="63" y="174" on="0"/>
        <pt x="63" y="508" on="0"/>
        <pt x="253" y="687" on="0"/>
      </contour>
      <contour>
        <pt x="253" y="870" on="1"/>
        <pt x="267" y="870" on="0"/>
        <pt x="281" y="861" on="1"/>
        <pt x="367" y="808" on="1"/>
        <pt x="453" y="861" on="1"/>
        <pt x="467" y="870" on="0"/>
        <pt x="481" y="870" on="1"/>
        <pt x="511" y="870" on="0"/>
        <pt x="511" y="846" on="1"/>
        <pt x="511" y="834" on="0"/>
        <pt x="489" y="819" on="1"/>
        <pt x="400" y="756" on="1"/>
        <pt x="386" y="746" on="0"/>
        <pt x="350" y="746" on="0"/>
        <pt x="334" y="757" on="1"/>
        <pt x="245" y="819" on="1"/>
        <pt x="223" y="834" on="0"/>
        <pt x="223" y="846" on="1"/>
        <pt x="223" y="870" on="0"/>
      </contour>
    </TTGlyph>
    <TTGlyph name="Ccedilla" xMin="63" yMin="-157" xMax="641" yMax="687">
      <contour>
        <pt x="394" y="687" on="1"/>
        <pt x="253" y="687" on="0"/>
        <pt x="63" y="508" on="0"/>
        <pt x="63" y="174" on="0"/>
        <pt x="253" y="-8" on="0"/>
        <pt x="394" y="-8" on="1"/>
        <pt x="501" y="-8" on="0"/>
        <pt x="641" y="81" on="0"/>
        <pt x="641" y="132" on="1"/>
        <pt x="641" y="154" on="0"/>
        <pt x="614" y="181" on="0"/>
        <pt x="590" y="181" on="1"/>
        <pt x="548" y="68" on="0"/>
        <pt x="394" y="68" on="1"/>
        <pt x="295" y="68" on="0"/>
        <pt x="155" y="209" on="0"/>
        <pt x="155" y="474" on="0"/>
        <pt x="294" y="609" on="0"/>
        <pt x="394" y="609" on="1"/>
        <pt x="546" y="609" on="0"/>
        <pt x="577" y="503" on="1"/>
        <pt x="604" y="503" on="0"/>
        <pt x="637" y="530" on="0"/>
        <pt x="637" y="552" on="1"/>
        <pt x="637" y="603" on="0"/>
        <pt x="500" y="687" on="0"/>
      </contour>
      <contour>
        <pt x="413" y="-28" on="1"/>
        <pt x="444" y="-28" on="0"/>
        <pt x="483" y="-57" on="0"/>
        <pt x="483" y="-119" on="0"/>
        <pt x="426" y="-157" on="0"/>
        <pt x="389" y="-157" on="1"/>
        <pt x="316" y="-157" on="0"/>
        <pt x="316" y="-113" on="1"/>
        <pt x="316" y="-99" on="0"/>
        <pt x="334" y="-80" on="0"/>
        <pt x="348" y="-80" on="1"/>
        <pt x="348" y="-105" on="0"/>
        <pt x="392" y="-105" on="1"/>
        <pt x="409" y="-105" on="0"/>
        <pt x="431" y="-91" on="0"/>
        <pt x="431" y="-79" on="1"/>
        <pt x="431" y="-57" on="0"/>
        <pt x="396" y="-57" on="1"/>
        <pt x="374" y="-57" on="1"/>
        <pt x="351" y="-57" on="0"/>
        <pt x="351" y="-37" on="1"/>
        <pt x="351" y="-32" on="0"/>
        <pt x="354" y="-24" on="1"/>
        <pt x="369" y="14" on="1"/>
        <pt x="413" y="14" on="1"/>
        <pt x="400" y="-28" on="1"/>
      </contour>
    </TTGlyph>
    <TTGlyph name="Ccircumflex" xMin="63" yMin="-8" xMax="641" yMax="870">
      <contour>
        <pt x="394" y="687" on="1"/>
        <pt x="500" y="687" on="0"/>
        <pt x="637" y="603" on="0"/>
        <pt x="637" y="552" on="1"/>
        <pt x="637" y="530" on="0"/>
        <pt x="604" y="503" on="0"/>
        <pt x="577" y="503" on="1"/>
        <pt x="546" y="609" on="0"/>
        <pt x="394" y="609" on="1"/>
        <pt x="294" y="609" on="0"/>
        <pt x="155" y="474" on="0"/>
        <pt x="155" y="209" on="0"/>
        <pt x="295" y="68" on="0"/>
        <pt x="394" y="68" on="1"/>
        <pt x="548" y="68" on="0"/>
        <pt x="590" y="181" on="1"/>
        <pt x="614" y="181" on="0"/>
        <pt x="641" y="154" on="0"/>
        <pt x="641" y="132" on="1"/>
        <pt x="641" y="81" on="0"/>
        <pt x="501" y="-8" on="0"/>
        <pt x="394" y="-8" on="1"/>
        <pt x="253" y="-8" on="0"/>
        <pt x="63" y="174" on="0"/>
        <pt x="63" y="508" on="0"/>
        <pt x="253" y="687" on="0"/>
      </contour>
      <contour>
        <pt x="253" y="746" on="1"/>
        <pt x="223" y="746" on="0"/>
        <pt x="223" y="770" on="1"/>
        <pt x="223" y="782" on="0"/>
        <pt x="245" y="797" on="1"/>
        <pt x="334" y="860" on="1"/>
        <pt x="348" y="870" on="0"/>
        <pt x="384" y="870" on="0"/>
        <pt x="400" y="859" on="1"/>
        <pt x="489" y="797" on="1"/>
        <pt x="511" y="782" on="0"/>
        <pt x="511" y="770" on="1"/>
        <pt x="511" y="746" on="0"/>
        <pt x="481" y="746" on="1"/>
        <pt x="467" y="746" on="0"/>
        <pt x="453" y="755" on="1"/>
        <pt x="367" y="808" on="1"/>
        <pt x="281" y="755" on="1"/>
        <pt x="267" y="746" on="0"/>
      </contour>
    </TTGlyph>
    <TTGlyph name="Cdotaccent" xMin="63" yMin="-8" xMax="641" yMax="852">
      <contour>
        <pt x="394" y="687" on="1"/>
        <pt x="500" y="687" on="0"/>
        <pt x="637" y="603" on="0"/>
        <pt x="637" y="552" on="1"/>
        <pt x="637" y="530" on="0"/>
        <pt x="604" y="503" on="0"/>
        <pt x="577" y="503" on="1"/>
        <pt x="546" y="609" on="0"/>
        <pt x="394" y="609" on="1"/>
        <pt x="294" y="609" on="0"/>
        <pt x="155" y="474" on="0"/>
        <pt x="155" y="209" on="0"/>
        <pt x="295" y="68" on="0"/>
        <pt x="394" y="68" on="1"/>
        <pt x="548" y="68" on="0"/>
        <pt x="590" y="181" on="1"/>
        <pt x="614" y="181" on="0"/>
        <pt x="641" y="154" on="0"/>
        <pt x="641" y="132" on="1"/>
        <pt x="641" y="81" on="0"/>
        <pt x="501" y="-8" on="0"/>
        <pt x="394" y="-8" on="1"/>
        <pt x="253" y="-8" on="0"/>
        <pt x="63" y="174" on="0"/>
        <pt x="63" y="508" on="0"/>
        <pt x="253" y="687" on="0"/>
      </contour>
      <contour>
        <pt x="311" y="774" on="0"/>
        <pt x="311" y="820" on="0"/>
        <pt x="343" y="852" on="0"/>
        <pt x="390" y="852" on="0"/>
        <pt x="422" y="820" on="0"/>
        <pt x="422" y="774" on="0"/>
        <pt x="390" y="742" on="0"/>
        <pt x="343" y="742" on="0"/>
      </contour>
    </TTGlyph>
    <TTGlyph name="D" xMin="101" yMin="0" xMax="662" yMax="679">
      <contour>
        <pt x="139" y="679" on="1"/>
        <pt x="338" y="679" on="1"/>
        <pt x="472" y="679" on="0"/>
        <pt x="564" y="600" on="1"/>
        <pt x="609" y="560" on="0"/>
        <pt x="662" y="426" on="0"/>
        <pt x="662" y="252" on="0"/>
        <pt x="609" y="119" on="0"/>
        <pt x="564" y="80" on="1"/>
        <pt x="472" y="0" on="0"/>
        <pt x="338" y="0" on="1"/>
        <pt x="139" y="0" on="1"/>
        <pt x="101" y="0" on="0"/>
        <pt x="101" y="37" on="1"/>
        <pt x="101" y="641" on="1"/>
        <pt x="101" y="679" on="0"/>
      </contour>
      <contour>
        <pt x="187" y="603" on="1"/>
        <pt x="187" y="74" on="1"/>
        <pt x="330" y="74" on="1"/>
        <pt x="446" y="74" on="0"/>
        <pt x="578" y="210" on="0"/>
        <pt x="578" y="468" on="0"/>
        <pt x="446" y="603" on="0"/>
        <pt x="330" y="603" on="1"/>
      </contour>
    </TTGlyph>
    <TTGlyph name="Dcaron" xMin="101" yMin="0" xMax="662" yMax="869">
      <contour>
        <pt x="139" y="679" on="1"/>
        <pt x="338" y="679" on="1"/>
        <pt x="472" y="679" on="0"/>
        <pt x="564" y="600" on="1"/>
        <pt x="609" y="560" on="0"/>
        <pt x="662" y="426" on="0"/>
        <pt x="662" y="252" on="0"/>
        <pt x="609" y="119" on="0"/>
        <pt x="564" y="80" on="1"/>
        <pt x="472" y="0" on="0"/>
        <pt x="338" y="0" on="1"/>
        <pt x="139" y="0" on="1"/>
        <pt x="101" y="0" on="0"/>
        <pt x="101" y="37" on="1"/>
        <pt x="101" y="641" on="1"/>
        <pt x="101" y="679" on="0"/>
      </contour>
      <contour>
        <pt x="187" y="603" on="1"/>
        <pt x="187" y="74" on="1"/>
        <pt x="330" y="74" on="1"/>
        <pt x="446" y="74" on="0"/>
        <pt x="578" y="210" on="0"/>
        <pt x="578" y="468" on="0"/>
        <pt x="446" y="603" on="0"/>
        <pt x="330" y="603" on="1"/>
      </contour>
      <contour>
        <pt x="220" y="869" on="1"/>
        <pt x="234" y="869" on="0"/>
        <pt x="248" y="860" on="1"/>
        <pt x="334" y="807" on="1"/>
        <pt x="420" y="860" on="1"/>
        <pt x="434" y="869" on="0"/>
        <pt x="448" y="869" on="1"/>
        <pt x="478" y="869" on="0"/>
        <pt x="478" y="845" on="1"/>
        <pt x="478" y="833" on="0"/>
        <pt x="456" y="818" on="1"/>
        <pt x="367" y="755" on="1"/>
        <pt x="353" y="745" on="0"/>
        <pt x="317" y="745" on="0"/>
        <pt x="301" y="756" on="1"/>
        <pt x="212" y="818" on="1"/>
        <pt x="190" y="833" on="0"/>
        <pt x="190" y="845" on="1"/>
        <pt x="190" y="869" on="0"/>
      </contour>
    </TTGlyph>
    <TTGlyph name="Dcroat" xMin="12" yMin="0" xMax="661" yMax="679">
      <contour>
        <pt x="138" y="679" on="1"/>
        <pt x="337" y="679" on="1"/>
        <pt x="471" y="679" on="0"/>
        <pt x="562" y="600" on="1"/>
        <pt x="608" y="560" on="0"/>
        <pt x="661" y="426" on="0"/>
        <pt x="661" y="252" on="0"/>
        <pt x="608" y="119" on="0"/>
        <pt x="562" y="80" on="1"/>
        <pt x="471" y="0" on="0"/>
        <pt x="337" y="0" on="1"/>
        <pt x="138" y="0" on="1"/>
        <pt x="100" y="0" on="0"/>
        <pt x="100" y="37" on="1"/>
        <pt x="100" y="641" on="1"/>
        <pt x="100" y="679" on="0"/>
      </contour>
      <contour>
        <pt x="186" y="603" on="1"/>
        <pt x="186" y="74" on="1"/>
        <pt x="329" y="74" on="1"/>
        <pt x="445" y="74" on="0"/>
        <pt x="577" y="210" on="0"/>
        <pt x="577" y="468" on="0"/>
        <pt x="445" y="603" on="0"/>
        <pt x="329" y="603" on="1"/>
      </contour>
      <contour>
        <pt x="49" y="373" on="1"/>
        <pt x="315" y="373" on="1"/>
        <pt x="352" y="373" on="0"/>
        <pt x="352" y="307" on="0"/>
        <pt x="315" y="307" on="1"/>
        <pt x="49" y="307" on="1"/>
        <pt x="12" y="307" on="0"/>
        <pt x="12" y="373" on="0"/>
      </contour>
    </TTGlyph>
    <TTGlyph name="E" xMin="101" yMin="0" xMax="522" yMax="679">
      <contour>
        <pt x="140" y="679" on="1"/>
        <pt x="485" y="679" on="1"/>
        <pt x="522" y="679" on="0"/>
        <pt x="522" y="604" on="0"/>
        <pt x="485" y="604" on="1"/>
        <pt x="188" y="604" on="1"/>
        <pt x="188" y="390" on="1"/>
        <pt x="452" y="390" on="1"/>
        <pt x="489" y="390" on="0"/>
        <pt x="489" y="315" on="0"/>
        <pt x="452" y="315" on="1"/>
        <pt x="188" y="315" on="1"/>
        <pt x="188" y="75" on="1"/>
        <pt x="485" y="75" on="1"/>
        <pt x="522" y="75" on="0"/>
        <pt x="522" y="0" on="0"/>
        <pt x="485" y="0" on="1"/>
        <pt x="140" y="0" on="1"/>
        <pt x="101" y="0" on="0"/>
        <pt x="101" y="38" on="1"/>
        <pt x="101" y="641" on="1"/>
        <pt x="101" y="679" on="0"/>
      </contour>
    </TTGlyph>
    <TTGlyph name="Eacute" xMin="101" yMin="0" xMax="522" yMax="896">
      <contour>
        <pt x="140" y="679" on="1"/>
        <pt x="485" y="679" on="1"/>
        <pt x="522" y="679" on="0"/>
        <pt x="522" y="604" on="0"/>
        <pt x="485" y="604" on="1"/>
        <pt x="188" y="604" on="1"/>
        <pt x="188" y="390" on="1"/>
        <pt x="452" y="390" on="1"/>
        <pt x="489" y="390" on="0"/>
        <pt x="489" y="315" on="0"/>
        <pt x="452" y="315" on="1"/>
        <pt x="188" y="315" on="1"/>
        <pt x="188" y="75" on="1"/>
        <pt x="485" y="75" on="1"/>
        <pt x="522" y="75" on="0"/>
        <pt x="522" y="0" on="0"/>
        <pt x="485" y="0" on="1"/>
        <pt x="140" y="0" on="1"/>
        <pt x="101" y="0" on="0"/>
        <pt x="101" y="38" on="1"/>
        <pt x="101" y="641" on="1"/>
        <pt x="101" y="679" on="0"/>
      </contour>
      <contour>
        <pt x="197" y="734" on="1"/>
        <pt x="181" y="734" on="0"/>
        <pt x="181" y="749" on="1"/>
        <pt x="181" y="758" on="1"/>
        <pt x="181" y="773" on="0"/>
        <pt x="199" y="785" on="1"/>
        <pt x="379" y="892" on="1"/>
        <pt x="384" y="896" on="0"/>
        <pt x="395" y="896" on="1"/>
        <pt x="413" y="896" on="0"/>
        <pt x="413" y="878" on="1"/>
        <pt x="413" y="851" on="1"/>
        <pt x="413" y="827" on="0"/>
        <pt x="391" y="818" on="1"/>
        <pt x="210" y="737" on="1"/>
        <pt x="204" y="734" on="0"/>
      </contour>
    </TTGlyph>
    <TTGlyph name="Ebreve" xMin="101" yMin="0" xMax="522" yMax="874">
      <contour>
        <pt x="140" y="679" on="1"/>
        <pt x="485" y="679" on="1"/>
        <pt x="522" y="679" on="0"/>
        <pt x="522" y="604" on="0"/>
        <pt x="485" y="604" on="1"/>
        <pt x="188" y="604" on="1"/>
        <pt x="188" y="390" on="1"/>
        <pt x="452" y="390" on="1"/>
        <pt x="489" y="390" on="0"/>
        <pt x="489" y="315" on="0"/>
        <pt x="452" y="315" on="1"/>
        <pt x="188" y="315" on="1"/>
        <pt x="188" y="75" on="1"/>
        <pt x="485" y="75" on="1"/>
        <pt x="522" y="75" on="0"/>
        <pt x="522" y="0" on="0"/>
        <pt x="485" y="0" on="1"/>
        <pt x="140" y="0" on="1"/>
        <pt x="101" y="0" on="0"/>
        <pt x="101" y="38" on="1"/>
        <pt x="101" y="641" on="1"/>
        <pt x="101" y="679" on="0"/>
      </contour>
      <contour>
        <pt x="219" y="844" on="0"/>
        <pt x="263" y="814" on="0"/>
        <pt x="313" y="814" on="0"/>
        <pt x="357" y="844" on="0"/>
        <pt x="390" y="874" on="0"/>
        <pt x="400" y="874" on="1"/>
        <pt x="425" y="874" on="0"/>
        <pt x="425" y="818" on="0"/>
        <pt x="342" y="760" on="0"/>
        <pt x="236" y="760" on="0"/>
        <pt x="152" y="819" on="0"/>
        <pt x="152" y="850" on="1"/>
        <pt x="152" y="861" on="0"/>
        <pt x="167" y="874" on="0"/>
        <pt x="188" y="874" on="0"/>
      </contour>
    </TTGlyph>
    <TTGlyph name="Ecaron" xMin="101" yMin="0" xMax="522" yMax="870">
      <contour>
        <pt x="140" y="679" on="1"/>
        <pt x="485" y="679" on="1"/>
        <pt x="522" y="679" on="0"/>
        <pt x="522" y="604" on="0"/>
        <pt x="485" y="604" on="1"/>
        <pt x="188" y="604" on="1"/>
        <pt x="188" y="390" on="1"/>
        <pt x="452" y="390" on="1"/>
        <pt x="489" y="390" on="0"/>
        <pt x="489" y="315" on="0"/>
        <pt x="452" y="315" on="1"/>
        <pt x="188" y="315" on="1"/>
        <pt x="188" y="75" on="1"/>
        <pt x="485" y="75" on="1"/>
        <pt x="522" y="75" on="0"/>
        <pt x="522" y="0" on="0"/>
        <pt x="485" y="0" on="1"/>
        <pt x="140" y="0" on="1"/>
        <pt x="101" y="0" on="0"/>
        <pt x="101" y="38" on="1"/>
        <pt x="101" y="641" on="1"/>
        <pt x="101" y="679" on="0"/>
      </contour>
      <contour>
        <pt x="183" y="870" on="1"/>
        <pt x="197" y="870" on="0"/>
        <pt x="211" y="861" on="1"/>
        <pt x="297" y="808" on="1"/>
        <pt x="383" y="861" on="1"/>
        <pt x="397" y="870" on="0"/>
        <pt x="411" y="870" on="1"/>
        <pt x="441" y="870" on="0"/>
        <pt x="441" y="846" on="1"/>
        <pt x="441" y="834" on="0"/>
        <pt x="419" y="819" on="1"/>
        <pt x="330" y="756" on="1"/>
        <pt x="316" y="746" on="0"/>
        <pt x="280" y="746" on="0"/>
        <pt x="264" y="757" on="1"/>
        <pt x="175" y="819" on="1"/>
        <pt x="153" y="834" on="0"/>
        <pt x="153" y="846" on="1"/>
        <pt x="153" y="870" on="0"/>
      </contour>
    </TTGlyph>
    <TTGlyph name="Ecircumflex" xMin="101" yMin="0" xMax="522" yMax="870">
      <contour>
        <pt x="140" y="679" on="1"/>
        <pt x="485" y="679" on="1"/>
        <pt x="522" y="679" on="0"/>
        <pt x="522" y="604" on="0"/>
        <pt x="485" y="604" on="1"/>
        <pt x="188" y="604" on="1"/>
        <pt x="188" y="390" on="1"/>
        <pt x="452" y="390" on="1"/>
        <pt x="489" y="390" on="0"/>
        <pt x="489" y="315" on="0"/>
        <pt x="452" y="315" on="1"/>
        <pt x="188" y="315" on="1"/>
        <pt x="188" y="75" on="1"/>
        <pt x="485" y="75" on="1"/>
        <pt x="522" y="75" on="0"/>
        <pt x="522" y="0" on="0"/>
        <pt x="485" y="0" on="1"/>
        <pt x="140" y="0" on="1"/>
        <pt x="101" y="0" on="0"/>
        <pt x="101" y="38" on="1"/>
        <pt x="101" y="641" on="1"/>
        <pt x="101" y="679" on="0"/>
      </contour>
      <contour>
        <pt x="183" y="746" on="1"/>
        <pt x="153" y="746" on="0"/>
        <pt x="153" y="770" on="1"/>
        <pt x="153" y="782" on="0"/>
        <pt x="175" y="797" on="1"/>
        <pt x="264" y="860" on="1"/>
        <pt x="278" y="870" on="0"/>
        <pt x="314" y="870" on="0"/>
        <pt x="330" y="859" on="1"/>
        <pt x="419" y="797" on="1"/>
        <pt x="441" y="782" on="0"/>
        <pt x="441" y="770" on="1"/>
        <pt x="441" y="746" on="0"/>
        <pt x="411" y="746" on="1"/>
        <pt x="397" y="746" on="0"/>
        <pt x="383" y="755" on="1"/>
        <pt x="297" y="808" on="1"/>
        <pt x="211" y="755" on="1"/>
        <pt x="197" y="746" on="0"/>
      </contour>
    </TTGlyph>
    <TTGlyph name="Edieresis" xMin="101" yMin="0" xMax="522" yMax="841">
      <contour>
        <pt x="140" y="679" on="1"/>
        <pt x="485" y="679" on="1"/>
        <pt x="522" y="679" on="0"/>
        <pt x="522" y="604" on="0"/>
        <pt x="485" y="604" on="1"/>
        <pt x="188" y="604" on="1"/>
        <pt x="188" y="390" on="1"/>
        <pt x="452" y="390" on="1"/>
        <pt x="489" y="390" on="0"/>
        <pt x="489" y="315" on="0"/>
        <pt x="452" y="315" on="1"/>
        <pt x="188" y="315" on="1"/>
        <pt x="188" y="75" on="1"/>
        <pt x="485" y="75" on="1"/>
        <pt x="522" y="75" on="0"/>
        <pt x="522" y="0" on="0"/>
        <pt x="485" y="0" on="1"/>
        <pt x="140" y="0" on="1"/>
        <pt x="101" y="0" on="0"/>
        <pt x="101" y="38" on="1"/>
        <pt x="101" y="641" on="1"/>
        <pt x="101" y="679" on="0"/>
      </contour>
      <contour>
        <pt x="178" y="751" on="0"/>
        <pt x="151" y="777" on="0"/>
        <pt x="151" y="816" on="0"/>
        <pt x="178" y="841" on="0"/>
        <pt x="216" y="841" on="0"/>
        <pt x="242" y="816" on="0"/>
        <pt x="242" y="777" on="0"/>
        <pt x="216" y="751" on="0"/>
      </contour>
      <contour>
        <pt x="379" y="751" on="0"/>
        <pt x="353" y="777" on="0"/>
        <pt x="353" y="816" on="0"/>
        <pt x="379" y="841" on="0"/>
        <pt x="417" y="841" on="0"/>
        <pt x="443" y="816" on="0"/>
        <pt x="443" y="777" on="0"/>
        <pt x="417" y="751" on="0"/>
      </contour>
    </TTGlyph>
    <TTGlyph name="Edotaccent" xMin="101" yMin="0" xMax="522" yMax="866">
      <contour>
        <pt x="140" y="679" on="1"/>
        <pt x="485" y="679" on="1"/>
        <pt x="522" y="679" on="0"/>
        <pt x="522" y="604" on="0"/>
        <pt x="485" y="604" on="1"/>
        <pt x="188" y="604" on="1"/>
        <pt x="188" y="390" on="1"/>
        <pt x="452" y="390" on="1"/>
        <pt x="489" y="390" on="0"/>
        <pt x="489" y="315" on="0"/>
        <pt x="452" y="315" on="1"/>
        <pt x="188" y="315" on="1"/>
        <pt x="188" y="75" on="1"/>
        <pt x="485" y="75" on="1"/>
        <pt x="522" y="75" on="0"/>
        <pt x="522" y="0" on="0"/>
        <pt x="485" y="0" on="1"/>
        <pt x="140" y="0" on="1"/>
        <pt x="101" y="0" on="0"/>
        <pt x="101" y="38" on="1"/>
        <pt x="101" y="641" on="1"/>
        <pt x="101" y="679" on="0"/>
      </contour>
      <contour>
        <pt x="273" y="788" on="0"/>
        <pt x="273" y="834" on="0"/>
        <pt x="305" y="866" on="0"/>
        <pt x="352" y="866" on="0"/>
        <pt x="384" y="834" on="0"/>
        <pt x="384" y="788" on="0"/>
        <pt x="352" y="756" on="0"/>
        <pt x="305" y="756" on="0"/>
      </contour>
    </TTGlyph>
    <TTGlyph name="Egrave" xMin="101" yMin="0" xMax="522" yMax="896">
      <contour>
        <pt x="140" y="679" on="1"/>
        <pt x="485" y="679" on="1"/>
        <pt x="522" y="679" on="0"/>
        <pt x="522" y="604" on="0"/>
        <pt x="485" y="604" on="1"/>
        <pt x="188" y="604" on="1"/>
        <pt x="188" y="390" on="1"/>
        <pt x="452" y="390" on="1"/>
        <pt x="489" y="390" on="0"/>
        <pt x="489" y="315" on="0"/>
        <pt x="452" y="315" on="1"/>
        <pt x="188" y="315" on="1"/>
        <pt x="188" y="75" on="1"/>
        <pt x="485" y="75" on="1"/>
        <pt x="522" y="75" on="0"/>
        <pt x="522" y="0" on="0"/>
        <pt x="485" y="0" on="1"/>
        <pt x="140" y="0" on="1"/>
        <pt x="101" y="0" on="0"/>
        <pt x="101" y="38" on="1"/>
        <pt x="101" y="641" on="1"/>
        <pt x="101" y="679" on="0"/>
      </contour>
      <contour>
        <pt x="181" y="851" on="1"/>
        <pt x="181" y="878" on="1"/>
        <pt x="181" y="896" on="0"/>
        <pt x="199" y="896" on="1"/>
        <pt x="208" y="896" on="0"/>
        <pt x="215" y="892" on="1"/>
        <pt x="395" y="785" on="1"/>
        <pt x="411" y="775" on="0"/>
        <pt x="413" y="758" on="1"/>
        <pt x="413" y="749" on="1"/>
        <pt x="413" y="734" on="0"/>
        <pt x="396" y="734" on="1"/>
        <pt x="389" y="734" on="0"/>
        <pt x="383" y="737" on="1"/>
        <pt x="201" y="818" on="1"/>
        <pt x="181" y="827" on="0"/>
      </contour>
    </TTGlyph>
    <TTGlyph name="Emacron" xMin="101" yMin="0" xMax="522" yMax="827">
      <contour>
        <pt x="140" y="679" on="1"/>
        <pt x="485" y="679" on="1"/>
        <pt x="522" y="679" on="0"/>
        <pt x="522" y="604" on="0"/>
        <pt x="485" y="604" on="1"/>
        <pt x="188" y="604" on="1"/>
        <pt x="188" y="390" on="1"/>
        <pt x="452" y="390" on="1"/>
        <pt x="489" y="390" on="0"/>
        <pt x="489" y="315" on="0"/>
        <pt x="452" y="315" on="1"/>
        <pt x="188" y="315" on="1"/>
        <pt x="188" y="75" on="1"/>
        <pt x="485" y="75" on="1"/>
        <pt x="522" y="75" on="0"/>
        <pt x="522" y="0" on="0"/>
        <pt x="485" y="0" on="1"/>
        <pt x="140" y="0" on="1"/>
        <pt x="101" y="0" on="0"/>
        <pt x="101" y="38" on="1"/>
        <pt x="101" y="641" on="1"/>
        <pt x="101" y="679" on="0"/>
      </contour>
      <contour>
        <pt x="154" y="827" on="1"/>
        <pt x="420" y="827" on="1"/>
        <pt x="457" y="827" on="0"/>
        <pt x="457" y="761" on="0"/>
        <pt x="420" y="761" on="1"/>
        <pt x="154" y="761" on="1"/>
        <pt x="117" y="761" on="0"/>
        <pt x="117" y="827" on="0"/>
      </contour>
    </TTGlyph>
    <TTGlyph name="Eogonek" xMin="101" yMin="-148" xMax="555" yMax="679">
      <contour>
        <pt x="140" y="679" on="1"/>
        <pt x="485" y="679" on="1"/>
        <pt x="522" y="679" on="0"/>
        <pt x="522" y="604" on="0"/>
        <pt x="485" y="604" on="1"/>
        <pt x="188" y="604" on="1"/>
        <pt x="188" y="390" on="1"/>
        <pt x="452" y="390" on="1"/>
        <pt x="489" y="390" on="0"/>
        <pt x="489" y="315" on="0"/>
        <pt x="452" y="315" on="1"/>
        <pt x="188" y="315" on="1"/>
        <pt x="188" y="75" on="1"/>
        <pt x="485" y="75" on="1"/>
        <pt x="522" y="75" on="0"/>
        <pt x="522" y="0" on="0"/>
        <pt x="485" y="0" on="1"/>
        <pt x="140" y="0" on="1"/>
        <pt x="101" y="0" on="0"/>
        <pt x="101" y="38" on="1"/>
        <pt x="101" y="641" on="1"/>
        <pt x="101" y="679" on="0"/>
      </contour>
      <contour>
        <pt x="500" y="34" on="1"/>
        <pt x="500" y="0" on="1"/>
        <pt x="475" y="0" on="0"/>
        <pt x="447" y="-28" on="0"/>
        <pt x="447" y="-50" on="1"/>
        <pt x="447" y="-91" on="0"/>
        <pt x="496" y="-91" on="1"/>
        <pt x="530" y="-91" on="0"/>
        <pt x="530" y="-75" on="1"/>
        <pt x="539" y="-75" on="0"/>
        <pt x="555" y="-91" on="0"/>
        <pt x="555" y="-124" on="0"/>
        <pt x="516" y="-148" on="0"/>
        <pt x="442" y="-148" on="0"/>
        <pt x="389" y="-100" on="0"/>
        <pt x="389" y="-21" on="0"/>
        <pt x="449" y="34" on="0"/>
      </contour>
    </TTGlyph>
    <TTGlyph name="Euro" xMin="34" yMin="-7" xMax="622" yMax="687">
      <contour>
        <pt x="213" y="370" on="1"/>
        <pt x="212" y="359" on="0"/>
        <pt x="212" y="314" on="0"/>
        <pt x="215" y="291" on="1"/>
        <pt x="458" y="291" on="1"/>
        <pt x="478" y="291" on="0"/>
        <pt x="495" y="274" on="0"/>
        <pt x="495" y="253" on="1"/>
        <pt x="495" y="219" on="0"/>
        <pt x="458" y="216" on="1"/>
        <pt x="228" y="216" on="1"/>
        <pt x="251" y="143" on="0"/>
        <pt x="347" y="66" on="0"/>
        <pt x="481" y="66" on="0"/>
        <pt x="561" y="124" on="0"/>
        <pt x="566" y="178" on="1"/>
        <pt x="589" y="176" on="0"/>
        <pt x="622" y="145" on="0"/>
        <pt x="622" y="124" on="1"/>
        <pt x="622" y="69" on="0"/>
        <pt x="505" y="-7" on="0"/>
        <pt x="310" y="-7" on="0"/>
        <pt x="166" y="108" on="0"/>
        <pt x="140" y="216" on="1"/>
        <pt x="72" y="216" on="1"/>
        <pt x="34" y="216" on="0"/>
        <pt x="34" y="291" on="0"/>
        <pt x="71" y="291" on="1"/>
        <pt x="128" y="291" on="1"/>
        <pt x="126" y="307" on="0"/>
        <pt x="126" y="341" on="1"/>
        <pt x="126" y="370" on="1"/>
        <pt x="72" y="370" on="1"/>
        <pt x="34" y="370" on="0"/>
        <pt x="34" y="445" on="0"/>
        <pt x="71" y="445" on="1"/>
        <pt x="136" y="445" on="1"/>
        <pt x="159" y="562" on="0"/>
        <pt x="306" y="687" on="0"/>
        <pt x="506" y="687" on="0"/>
        <pt x="618" y="617" on="0"/>
        <pt x="618" y="559" on="1"/>
        <pt x="618" y="533" on="0"/>
        <pt x="584" y="504" on="0"/>
        <pt x="558" y="502" on="1"/>
        <pt x="555" y="555" on="0"/>
        <pt x="479" y="611" on="0"/>
        <pt x="341" y="611" on="0"/>
        <pt x="243" y="526" on="0"/>
        <pt x="223" y="445" on="1"/>
        <pt x="458" y="445" on="1"/>
        <pt x="495" y="445" on="0"/>
        <pt x="495" y="373" on="0"/>
        <pt x="458" y="370" on="1"/>
      </contour>
    </TTGlyph>
    <TTGlyph name="F" xMin="101" yMin="0" xMax="521" yMax="679">
      <contour>
        <pt x="140" y="679" on="1"/>
        <pt x="483" y="679" on="1"/>
        <pt x="521" y="679" on="0"/>
        <pt x="521" y="604" on="0"/>
        <pt x="483" y="604" on="1"/>
        <pt x="188" y="604" on="1"/>
        <pt x="188" y="390" on="1"/>
        <pt x="444" y="390" on="1"/>
        <pt x="481" y="390" on="0"/>
        <pt x="481" y="315" on="0"/>
        <pt x="444" y="315" on="1"/>
        <pt x="188" y="315" on="1"/>
        <pt x="188" y="37" on="1"/>
        <pt x="188" y="0" on="0"/>
        <pt x="149" y="0" on="1"/>
        <pt x="140" y="0" on="1"/>
        <pt x="101" y="0" on="0"/>
        <pt x="101" y="38" on="1"/>
        <pt x="101" y="641" on="1"/>
        <pt x="101" y="679" on="0"/>
      </contour>
    </TTGlyph>
    <TTGlyph name="G" xMin="63" yMin="-8" xMax="681" yMax="687">
      <contour>
        <pt x="386" y="687" on="1"/>
        <pt x="503" y="687" on="0"/>
        <pt x="632" y="607" on="0"/>
        <pt x="632" y="552" on="1"/>
        <pt x="632" y="532" on="0"/>
        <pt x="600" y="504" on="0"/>
        <pt x="573" y="504" on="1"/>
        <pt x="542" y="607" on="0"/>
        <pt x="386" y="607" on="1"/>
        <pt x="291" y="607" on="0"/>
        <pt x="155" y="469" on="0"/>
        <pt x="155" y="212" on="0"/>
        <pt x="286" y="69" on="0"/>
        <pt x="486" y="69" on="0"/>
        <pt x="597" y="180" on="0"/>
        <pt x="597" y="264" on="1"/>
        <pt x="597" y="278" on="0"/>
        <pt x="583" y="278" on="1"/>
        <pt x="430" y="278" on="1"/>
        <pt x="391" y="278" on="0"/>
        <pt x="391" y="357" on="0"/>
        <pt x="430" y="357" on="1"/>
        <pt x="625" y="357" on="1"/>
        <pt x="650" y="357" on="0"/>
        <pt x="681" y="329" on="0"/>
        <pt x="681" y="305" on="1"/>
        <pt x="681" y="263" on="1"/>
        <pt x="681" y="162" on="0"/>
        <pt x="606" y="80" on="1"/>
        <pt x="571" y="40" on="0"/>
        <pt x="456" y="-8" on="0"/>
        <pt x="386" y="-8" on="1"/>
        <pt x="245" y="-8" on="0"/>
        <pt x="63" y="176" on="0"/>
        <pt x="63" y="505" on="0"/>
        <pt x="251" y="687" on="0"/>
      </contour>
    </TTGlyph>
    <TTGlyph name="Gbreve" xMin="63" yMin="-8" xMax="681" yMax="874">
      <contour>
        <pt x="386" y="687" on="1"/>
        <pt x="503" y="687" on="0"/>
        <pt x="632" y="607" on="0"/>
        <pt x="632" y="552" on="1"/>
        <pt x="632" y="532" on="0"/>
        <pt x="600" y="504" on="0"/>
        <pt x="573" y="504" on="1"/>
        <pt x="542" y="607" on="0"/>
        <pt x="386" y="607" on="1"/>
        <pt x="291" y="607" on="0"/>
        <pt x="155" y="469" on="0"/>
        <pt x="155" y="212" on="0"/>
        <pt x="286" y="69" on="0"/>
        <pt x="486" y="69" on="0"/>
        <pt x="597" y="180" on="0"/>
        <pt x="597" y="264" on="1"/>
        <pt x="597" y="278" on="0"/>
        <pt x="583" y="278" on="1"/>
        <pt x="430" y="278" on="1"/>
        <pt x="391" y="278" on="0"/>
        <pt x="391" y="357" on="0"/>
        <pt x="430" y="357" on="1"/>
        <pt x="625" y="357" on="1"/>
        <pt x="650" y="357" on="0"/>
        <pt x="681" y="329" on="0"/>
        <pt x="681" y="305" on="1"/>
        <pt x="681" y="263" on="1"/>
        <pt x="681" y="162" on="0"/>
        <pt x="606" y="80" on="1"/>
        <pt x="571" y="40" on="0"/>
        <pt x="456" y="-8" on="0"/>
        <pt x="386" y="-8" on="1"/>
        <pt x="245" y="-8" on="0"/>
        <pt x="63" y="176" on="0"/>
        <pt x="63" y="505" on="0"/>
        <pt x="251" y="687" on="0"/>
      </contour>
      <contour>
        <pt x="292" y="844" on="0"/>
        <pt x="336" y="814" on="0"/>
        <pt x="386" y="814" on="0"/>
        <pt x="430" y="844" on="0"/>
        <pt x="463" y="874" on="0"/>
        <pt x="473" y="874" on="1"/>
        <pt x="498" y="874" on="0"/>
        <pt x="498" y="818" on="0"/>
        <pt x="415" y="760" on="0"/>
        <pt x="309" y="760" on="0"/>
        <pt x="225" y="819" on="0"/>
        <pt x="225" y="850" on="1"/>
        <pt x="225" y="861" on="0"/>
        <pt x="240" y="874" on="0"/>
        <pt x="261" y="874" on="0"/>
      </contour>
    </TTGlyph>
    <TTGlyph name="Gcircumflex" xMin="63" yMin="-8" xMax="681" yMax="884">
      <contour>
        <pt x="386" y="687" on="1"/>
        <pt x="503" y="687" on="0"/>
        <pt x="632" y="607" on="0"/>
        <pt x="632" y="552" on="1"/>
        <pt x="632" y="532" on="0"/>
        <pt x="600" y="504" on="0"/>
        <pt x="573" y="504" on="1"/>
        <pt x="542" y="607" on="0"/>
        <pt x="386" y="607" on="1"/>
        <pt x="291" y="607" on="0"/>
        <pt x="155" y="469" on="0"/>
        <pt x="155" y="212" on="0"/>
        <pt x="286" y="69" on="0"/>
        <pt x="486" y="69" on="0"/>
        <pt x="597" y="180" on="0"/>
        <pt x="597" y="264" on="1"/>
        <pt x="597" y="278" on="0"/>
        <pt x="583" y="278" on="1"/>
        <pt x="430" y="278" on="1"/>
        <pt x="391" y="278" on="0"/>
        <pt x="391" y="357" on="0"/>
        <pt x="430" y="357" on="1"/>
        <pt x="625" y="357" on="1"/>
        <pt x="650" y="357" on="0"/>
        <pt x="681" y="329" on="0"/>
        <pt x="681" y="305" on="1"/>
        <pt x="681" y="263" on="1"/>
        <pt x="681" y="162" on="0"/>
        <pt x="606" y="80" on="1"/>
        <pt x="571" y="40" on="0"/>
        <pt x="456" y="-8" on="0"/>
        <pt x="386" y="-8" on="1"/>
        <pt x="245" y="-8" on="0"/>
        <pt x="63" y="176" on="0"/>
        <pt x="63" y="505" on="0"/>
        <pt x="251" y="687" on="0"/>
      </contour>
      <contour>
        <pt x="248" y="760" on="1"/>
        <pt x="218" y="760" on="0"/>
        <pt x="218" y="784" on="1"/>
        <pt x="218" y="796" on="0"/>
        <pt x="240" y="811" on="1"/>
        <pt x="329" y="874" on="1"/>
        <pt x="343" y="884" on="0"/>
        <pt x="379" y="884" on="0"/>
        <pt x="395" y="873" on="1"/>
        <pt x="484" y="811" on="1"/>
        <pt x="506" y="796" on="0"/>
        <pt x="506" y="784" on="1"/>
        <pt x="506" y="760" on="0"/>
        <pt x="476" y="760" on="1"/>
        <pt x="462" y="760" on="0"/>
        <pt x="448" y="769" on="1"/>
        <pt x="362" y="822" on="1"/>
        <pt x="276" y="769" on="1"/>
        <pt x="262" y="760" on="0"/>
      </contour>
    </TTGlyph>
    <TTGlyph name="Gcommaaccent" xMin="63" yMin="-267" xMax="681" yMax="687">
      <contour>
        <pt x="386" y="687" on="1"/>
        <pt x="503" y="687" on="0"/>
        <pt x="632" y="607" on="0"/>
        <pt x="632" y="552" on="1"/>
        <pt x="632" y="532" on="0"/>
        <pt x="600" y="504" on="0"/>
        <pt x="573" y="504" on="1"/>
        <pt x="542" y="607" on="0"/>
        <pt x="386" y="607" on="1"/>
        <pt x="291" y="607" on="0"/>
        <pt x="155" y="469" on="0"/>
        <pt x="155" y="212" on="0"/>
        <pt x="286" y="69" on="0"/>
        <pt x="486" y="69" on="0"/>
        <pt x="597" y="180" on="0"/>
        <pt x="597" y="264" on="1"/>
        <pt x="597" y="278" on="0"/>
        <pt x="583" y="278" on="1"/>
        <pt x="430" y="278" on="1"/>
        <pt x="391" y="278" on="0"/>
        <pt x="391" y="357" on="0"/>
        <pt x="430" y="357" on="1"/>
        <pt x="625" y="357" on="1"/>
        <pt x="650" y="357" on="0"/>
        <pt x="681" y="329" on="0"/>
        <pt x="681" y="305" on="1"/>
        <pt x="681" y="263" on="1"/>
        <pt x="681" y="162" on="0"/>
        <pt x="606" y="80" on="1"/>
        <pt x="571" y="40" on="0"/>
        <pt x="456" y="-8" on="0"/>
        <pt x="386" y="-8" on="1"/>
        <pt x="245" y="-8" on="0"/>
        <pt x="63" y="176" on="0"/>
        <pt x="63" y="505" on="0"/>
        <pt x="251" y="687" on="0"/>
      </contour>
      <contour>
        <pt x="342" y="-145" on="0"/>
        <pt x="316" y="-113" on="0"/>
        <pt x="316" y="-64" on="0"/>
        <pt x="354" y="-28" on="0"/>
        <pt x="411" y="-28" on="0"/>
        <pt x="454" y="-73" on="0"/>
        <pt x="454" y="-112" on="1"/>
        <pt x="454" y="-176" on="0"/>
        <pt x="388" y="-267" on="0"/>
        <pt x="342" y="-267" on="1"/>
        <pt x="309" y="-267" on="0"/>
        <pt x="309" y="-243" on="1"/>
        <pt x="342" y="-235" on="0"/>
        <pt x="385" y="-180" on="0"/>
        <pt x="385" y="-141" on="1"/>
        <pt x="377" y="-145" on="0"/>
      </contour>
    </TTGlyph>
    <TTGlyph name="Gdotaccent" xMin="63" yMin="-8" xMax="681" yMax="866">
      <contour>
        <pt x="386" y="687" on="1"/>
        <pt x="503" y="687" on="0"/>
        <pt x="632" y="607" on="0"/>
        <pt x="632" y="552" on="1"/>
        <pt x="632" y="532" on="0"/>
        <pt x="600" y="504" on="0"/>
        <pt x="573" y="504" on="1"/>
        <pt x="542" y="607" on="0"/>
        <pt x="386" y="607" on="1"/>
        <pt x="291" y="607" on="0"/>
        <pt x="155" y="469" on="0"/>
        <pt x="155" y="212" on="0"/>
        <pt x="286" y="69" on="0"/>
        <pt x="486" y="69" on="0"/>
        <pt x="597" y="180" on="0"/>
        <pt x="597" y="264" on="1"/>
        <pt x="597" y="278" on="0"/>
        <pt x="583" y="278" on="1"/>
        <pt x="430" y="278" on="1"/>
        <pt x="391" y="278" on="0"/>
        <pt x="391" y="357" on="0"/>
        <pt x="430" y="357" on="1"/>
        <pt x="625" y="357" on="1"/>
        <pt x="650" y="357" on="0"/>
        <pt x="681" y="329" on="0"/>
        <pt x="681" y="305" on="1"/>
        <pt x="681" y="263" on="1"/>
        <pt x="681" y="162" on="0"/>
        <pt x="606" y="80" on="1"/>
        <pt x="571" y="40" on="0"/>
        <pt x="456" y="-8" on="0"/>
        <pt x="386" y="-8" on="1"/>
        <pt x="245" y="-8" on="0"/>
        <pt x="63" y="176" on="0"/>
        <pt x="63" y="505" on="0"/>
        <pt x="251" y="687" on="0"/>
      </contour>
      <contour>
        <pt x="306" y="788" on="0"/>
        <pt x="306" y="834" on="0"/>
        <pt x="338" y="866" on="0"/>
        <pt x="385" y="866" on="0"/>
        <pt x="417" y="834" on="0"/>
        <pt x="417" y="788" on="0"/>
        <pt x="385" y="756" on="0"/>
        <pt x="338" y="756" on="0"/>
      </contour>
    </TTGlyph>
    <TTGlyph name="H" xMin="101" yMin="0" xMax="656" yMax="679">
      <contour>
        <pt x="140" y="679" on="1"/>
        <pt x="149" y="679" on="1"/>
        <pt x="188" y="679" on="0"/>
        <pt x="188" y="640" on="1"/>
        <pt x="188" y="389" on="1"/>
        <pt x="570" y="389" on="1"/>
        <pt x="570" y="640" on="1"/>
        <pt x="570" y="679" on="0"/>
        <pt x="609" y="679" on="1"/>
        <pt x="618" y="679" on="1"/>
        <pt x="656" y="679" on="0"/>
        <pt x="656" y="640" on="1"/>
        <pt x="656" y="38" on="1"/>
        <pt x="656" y="0" on="0"/>
        <pt x="618" y="0" on="1"/>
        <pt x="609" y="0" on="1"/>
        <pt x="570" y="0" on="0"/>
        <pt x="570" y="38" on="1"/>
        <pt x="570" y="314" on="1"/>
        <pt x="188" y="314" on="1"/>
        <pt x="188" y="38" on="1"/>
        <pt x="188" y="0" on="0"/>
        <pt x="149" y="0" on="1"/>
        <pt x="140" y="0" on="1"/>
        <pt x="101" y="0" on="0"/>
        <pt x="101" y="38" on="1"/>
        <pt x="101" y="640" on="1"/>
        <pt x="101" y="679" on="0"/>
      </contour>
    </TTGlyph>
    <TTGlyph name="Hbar" xMin="28" yMin="0" xMax="723" yMax="679">
      <contour>
        <pt x="65" y="534" on="1"/>
        <pt x="686" y="534" on="1"/>
        <pt x="723" y="534" on="0"/>
        <pt x="723" y="468" on="0"/>
        <pt x="686" y="468" on="1"/>
        <pt x="65" y="468" on="1"/>
        <pt x="28" y="468" on="0"/>
        <pt x="28" y="534" on="0"/>
      </contour>
      <contour>
        <pt x="140" y="679" on="1"/>
        <pt x="149" y="679" on="1"/>
        <pt x="188" y="679" on="0"/>
        <pt x="188" y="640" on="1"/>
        <pt x="188" y="389" on="1"/>
        <pt x="570" y="389" on="1"/>
        <pt x="570" y="640" on="1"/>
        <pt x="570" y="679" on="0"/>
        <pt x="609" y="679" on="1"/>
        <pt x="618" y="679" on="1"/>
        <pt x="656" y="679" on="0"/>
        <pt x="656" y="640" on="1"/>
        <pt x="656" y="38" on="1"/>
        <pt x="656" y="0" on="0"/>
        <pt x="618" y="0" on="1"/>
        <pt x="609" y="0" on="1"/>
        <pt x="570" y="0" on="0"/>
        <pt x="570" y="38" on="1"/>
        <pt x="570" y="314" on="1"/>
        <pt x="188" y="314" on="1"/>
        <pt x="188" y="38" on="1"/>
        <pt x="188" y="0" on="0"/>
        <pt x="149" y="0" on="1"/>
        <pt x="140" y="0" on="1"/>
        <pt x="101" y="0" on="0"/>
        <pt x="101" y="38" on="1"/>
        <pt x="101" y="640" on="1"/>
        <pt x="101" y="679" on="0"/>
      </contour>
    </TTGlyph>
    <TTGlyph name="Hcircumflex" xMin="101" yMin="0" xMax="656" yMax="869">
      <contour>
        <pt x="140" y="679" on="1"/>
        <pt x="149" y="679" on="1"/>
        <pt x="188" y="679" on="0"/>
        <pt x="188" y="640" on="1"/>
        <pt x="188" y="389" on="1"/>
        <pt x="570" y="389" on="1"/>
        <pt x="570" y="640" on="1"/>
        <pt x="570" y="679" on="0"/>
        <pt x="609" y="679" on="1"/>
        <pt x="618" y="679" on="1"/>
        <pt x="656" y="679" on="0"/>
        <pt x="656" y="640" on="1"/>
        <pt x="656" y="38" on="1"/>
        <pt x="656" y="0" on="0"/>
        <pt x="618" y="0" on="1"/>
        <pt x="609" y="0" on="1"/>
        <pt x="570" y="0" on="0"/>
        <pt x="570" y="38" on="1"/>
        <pt x="570" y="314" on="1"/>
        <pt x="188" y="314" on="1"/>
        <pt x="188" y="38" on="1"/>
        <pt x="188" y="0" on="0"/>
        <pt x="149" y="0" on="1"/>
        <pt x="140" y="0" on="1"/>
        <pt x="101" y="0" on="0"/>
        <pt x="101" y="38" on="1"/>
        <pt x="101" y="640" on="1"/>
        <pt x="101" y="679" on="0"/>
      </contour>
      <contour>
        <pt x="263" y="745" on="1"/>
        <pt x="233" y="745" on="0"/>
        <pt x="233" y="769" on="1"/>
        <pt x="233" y="781" on="0"/>
        <pt x="255" y="796" on="1"/>
        <pt x="344" y="859" on="1"/>
        <pt x="358" y="869" on="0"/>
        <pt x="394" y="869" on="0"/>
        <pt x="410" y="858" on="1"/>
        <pt x="499" y="796" on="1"/>
        <pt x="521" y="781" on="0"/>
        <pt x="521" y="769" on="1"/>
        <pt x="521" y="745" on="0"/>
        <pt x="491" y="745" on="1"/>
        <pt x="477" y="745" on="0"/>
        <pt x="463" y="754" on="1"/>
        <pt x="377" y="807" on="1"/>
        <pt x="291" y="754" on="1"/>
        <pt x="277" y="745" on="0"/>
      </contour>
    </TTGlyph>
    <TTGlyph name="I" xMin="101" yMin="0" xMax="188" yMax="679">
      <contour>
        <pt x="139" y="679" on="1"/>
        <pt x="148" y="679" on="1"/>
        <pt x="188" y="679" on="0"/>
        <pt x="188" y="640" on="1"/>
        <pt x="188" y="38" on="1"/>
        <pt x="188" y="0" on="0"/>
        <pt x="148" y="0" on="1"/>
        <pt x="139" y="0" on="1"/>
        <pt x="101" y="0" on="0"/>
        <pt x="101" y="38" on="1"/>
        <pt x="101" y="640" on="1"/>
        <pt x="101" y="679" on="0"/>
      </contour>
    </TTGlyph>
    <TTGlyph name="Iacute" xMin="26" yMin="0" xMax="258" yMax="895">
      <contour>
        <pt x="138" y="679" on="1"/>
        <pt x="147" y="679" on="1"/>
        <pt x="187" y="679" on="0"/>
        <pt x="187" y="640" on="1"/>
        <pt x="187" y="38" on="1"/>
        <pt x="187" y="0" on="0"/>
        <pt x="147" y="0" on="1"/>
        <pt x="138" y="0" on="1"/>
        <pt x="100" y="0" on="0"/>
        <pt x="100" y="38" on="1"/>
        <pt x="100" y="640" on="1"/>
        <pt x="100" y="679" on="0"/>
      </contour>
      <contour>
        <pt x="42" y="733" on="1"/>
        <pt x="26" y="733" on="0"/>
        <pt x="26" y="748" on="1"/>
        <pt x="26" y="757" on="1"/>
        <pt x="26" y="772" on="0"/>
        <pt x="44" y="784" on="1"/>
        <pt x="224" y="891" on="1"/>
        <pt x="229" y="895" on="0"/>
        <pt x="240" y="895" on="1"/>
        <pt x="258" y="895" on="0"/>
        <pt x="258" y="877" on="1"/>
        <pt x="258" y="850" on="1"/>
        <pt x="258" y="826" on="0"/>
        <pt x="236" y="817" on="1"/>
        <pt x="55" y="736" on="1"/>
        <pt x="49" y="733" on="0"/>
      </contour>
    </TTGlyph>
    <TTGlyph name="Ibreve" xMin="8" yMin="0" xMax="281" yMax="874">
      <contour>
        <pt x="139" y="679" on="1"/>
        <pt x="148" y="679" on="1"/>
        <pt x="188" y="679" on="0"/>
        <pt x="188" y="640" on="1"/>
        <pt x="188" y="38" on="1"/>
        <pt x="188" y="0" on="0"/>
        <pt x="148" y="0" on="1"/>
        <pt x="139" y="0" on="1"/>
        <pt x="101" y="0" on="0"/>
        <pt x="101" y="38" on="1"/>
        <pt x="101" y="640" on="1"/>
        <pt x="101" y="679" on="0"/>
      </contour>
      <contour>
        <pt x="75" y="844" on="0"/>
        <pt x="119" y="814" on="0"/>
        <pt x="169" y="814" on="0"/>
        <pt x="213" y="844" on="0"/>
        <pt x="246" y="874" on="0"/>
        <pt x="256" y="874" on="1"/>
        <pt x="281" y="874" on="0"/>
        <pt x="281" y="818" on="0"/>
        <pt x="198" y="760" on="0"/>
        <pt x="92" y="760" on="0"/>
        <pt x="8" y="819" on="0"/>
        <pt x="8" y="850" on="1"/>
        <pt x="8" y="861" on="0"/>
        <pt x="23" y="874" on="0"/>
        <pt x="44" y="874" on="0"/>
      </contour>
    </TTGlyph>
    <TTGlyph name="Icircumflex" xMin="1" yMin="0" xMax="289" yMax="869">
      <contour>
        <pt x="139" y="679" on="1"/>
        <pt x="148" y="679" on="1"/>
        <pt x="188" y="679" on="0"/>
        <pt x="188" y="640" on="1"/>
        <pt x="188" y="38" on="1"/>
        <pt x="188" y="0" on="0"/>
        <pt x="148" y="0" on="1"/>
        <pt x="139" y="0" on="1"/>
        <pt x="101" y="0" on="0"/>
        <pt x="101" y="38" on="1"/>
        <pt x="101" y="640" on="1"/>
        <pt x="101" y="679" on="0"/>
      </contour>
      <contour>
        <pt x="31" y="745" on="1"/>
        <pt x="1" y="745" on="0"/>
        <pt x="1" y="769" on="1"/>
        <pt x="1" y="781" on="0"/>
        <pt x="23" y="796" on="1"/>
        <pt x="112" y="859" on="1"/>
        <pt x="126" y="869" on="0"/>
        <pt x="162" y="869" on="0"/>
        <pt x="178" y="858" on="1"/>
        <pt x="267" y="796" on="1"/>
        <pt x="289" y="781" on="0"/>
        <pt x="289" y="769" on="1"/>
        <pt x="289" y="745" on="0"/>
        <pt x="259" y="745" on="1"/>
        <pt x="245" y="745" on="0"/>
        <pt x="231" y="754" on="1"/>
        <pt x="145" y="807" on="1"/>
        <pt x="59" y="754" on="1"/>
        <pt x="45" y="745" on="0"/>
      </contour>
    </TTGlyph>
    <TTGlyph name="Idieresis" xMin="-5" yMin="0" xMax="287" yMax="840">
      <contour>
        <pt x="136" y="679" on="1"/>
        <pt x="145" y="679" on="1"/>
        <pt x="185" y="679" on="0"/>
        <pt x="185" y="640" on="1"/>
        <pt x="185" y="38" on="1"/>
        <pt x="185" y="0" on="0"/>
        <pt x="145" y="0" on="1"/>
        <pt x="136" y="0" on="1"/>
        <pt x="98" y="0" on="0"/>
        <pt x="98" y="38" on="1"/>
        <pt x="98" y="640" on="1"/>
        <pt x="98" y="679" on="0"/>
      </contour>
      <contour>
        <pt x="22" y="750" on="0"/>
        <pt x="-5" y="776" on="0"/>
        <pt x="-5" y="815" on="0"/>
        <pt x="22" y="840" on="0"/>
        <pt x="60" y="840" on="0"/>
        <pt x="86" y="815" on="0"/>
        <pt x="86" y="776" on="0"/>
        <pt x="60" y="750" on="0"/>
      </contour>
      <contour>
        <pt x="223" y="750" on="0"/>
        <pt x="197" y="776" on="0"/>
        <pt x="197" y="815" on="0"/>
        <pt x="223" y="840" on="0"/>
        <pt x="261" y="840" on="0"/>
        <pt x="287" y="815" on="0"/>
        <pt x="287" y="776" on="0"/>
        <pt x="261" y="750" on="0"/>
      </contour>
    </TTGlyph>
    <TTGlyph name="Idotaccent" xMin="89" yMin="0" xMax="200" yMax="851">
      <contour>
        <pt x="140" y="679" on="1"/>
        <pt x="149" y="679" on="1"/>
        <pt x="189" y="679" on="0"/>
        <pt x="189" y="640" on="1"/>
        <pt x="189" y="38" on="1"/>
        <pt x="189" y="0" on="0"/>
        <pt x="149" y="0" on="1"/>
        <pt x="140" y="0" on="1"/>
        <pt x="102" y="0" on="0"/>
        <pt x="102" y="38" on="1"/>
        <pt x="102" y="640" on="1"/>
        <pt x="102" y="679" on="0"/>
      </contour>
      <contour>
        <pt x="89" y="773" on="0"/>
        <pt x="89" y="819" on="0"/>
        <pt x="121" y="851" on="0"/>
        <pt x="168" y="851" on="0"/>
        <pt x="200" y="819" on="0"/>
        <pt x="200" y="773" on="0"/>
        <pt x="168" y="741" on="0"/>
        <pt x="121" y="741" on="0"/>
      </contour>
    </TTGlyph>
    <TTGlyph name="Igrave" xMin="26" yMin="0" xMax="258" yMax="895">
      <contour>
        <pt x="138" y="679" on="1"/>
        <pt x="147" y="679" on="1"/>
        <pt x="187" y="679" on="0"/>
        <pt x="187" y="640" on="1"/>
        <pt x="187" y="38" on="1"/>
        <pt x="187" y="0" on="0"/>
        <pt x="147" y="0" on="1"/>
        <pt x="138" y="0" on="1"/>
        <pt x="100" y="0" on="0"/>
        <pt x="100" y="38" on="1"/>
        <pt x="100" y="640" on="1"/>
        <pt x="100" y="679" on="0"/>
      </contour>
      <contour>
        <pt x="26" y="850" on="1"/>
        <pt x="26" y="877" on="1"/>
        <pt x="26" y="895" on="0"/>
        <pt x="44" y="895" on="1"/>
        <pt x="53" y="895" on="0"/>
        <pt x="60" y="891" on="1"/>
        <pt x="240" y="784" on="1"/>
        <pt x="256" y="774" on="0"/>
        <pt x="258" y="757" on="1"/>
        <pt x="258" y="748" on="1"/>
        <pt x="258" y="733" on="0"/>
        <pt x="241" y="733" on="1"/>
        <pt x="234" y="733" on="0"/>
        <pt x="228" y="736" on="1"/>
        <pt x="46" y="817" on="1"/>
        <pt x="26" y="826" on="0"/>
      </contour>
    </TTGlyph>
    <TTGlyph name="Imacron" xMin="-26" yMin="0" xMax="314" yMax="827">
      <contour>
        <pt x="139" y="679" on="1"/>
        <pt x="148" y="679" on="1"/>
        <pt x="188" y="679" on="0"/>
        <pt x="188" y="640" on="1"/>
        <pt x="188" y="38" on="1"/>
        <pt x="188" y="0" on="0"/>
        <pt x="148" y="0" on="1"/>
        <pt x="139" y="0" on="1"/>
        <pt x="101" y="0" on="0"/>
        <pt x="101" y="38" on="1"/>
        <pt x="101" y="640" on="1"/>
        <pt x="101" y="679" on="0"/>
      </contour>
      <contour>
        <pt x="11" y="827" on="1"/>
        <pt x="277" y="827" on="1"/>
        <pt x="314" y="827" on="0"/>
        <pt x="314" y="761" on="0"/>
        <pt x="277" y="761" on="1"/>
        <pt x="11" y="761" on="1"/>
        <pt x="-26" y="761" on="0"/>
        <pt x="-26" y="827" on="0"/>
      </contour>
    </TTGlyph>
    <TTGlyph name="Iogonek" xMin="22" yMin="-148" xMax="188" yMax="679">
      <contour>
        <pt x="139" y="679" on="1"/>
        <pt x="101" y="679" on="0"/>
        <pt x="101" y="640" on="1"/>
        <pt x="101" y="38" on="1"/>
        <pt x="101" y="0" on="0"/>
        <pt x="139" y="0" on="1"/>
        <pt x="148" y="0" on="1"/>
        <pt x="188" y="0" on="0"/>
        <pt x="188" y="38" on="1"/>
        <pt x="188" y="640" on="1"/>
        <pt x="188" y="679" on="0"/>
        <pt x="148" y="679" on="1"/>
      </contour>
      <contour>
        <pt x="133" y="34" on="1"/>
        <pt x="133" y="0" on="1"/>
        <pt x="108" y="0" on="0"/>
        <pt x="80" y="-28" on="0"/>
        <pt x="80" y="-50" on="1"/>
        <pt x="80" y="-91" on="0"/>
        <pt x="129" y="-91" on="1"/>
        <pt x="163" y="-91" on="0"/>
        <pt x="163" y="-75" on="1"/>
        <pt x="172" y="-75" on="0"/>
        <pt x="188" y="-91" on="0"/>
        <pt x="188" y="-124" on="0"/>
        <pt x="149" y="-148" on="0"/>
        <pt x="75" y="-148" on="0"/>
        <pt x="22" y="-100" on="0"/>
        <pt x="22" y="-21" on="0"/>
        <pt x="82" y="34" on="0"/>
      </contour>
    </TTGlyph>
    <TTGlyph name="Itilde" xMin="-8" yMin="0" xMax="304" yMax="852">
      <contour>
        <pt x="139" y="679" on="1"/>
        <pt x="148" y="679" on="1"/>
        <pt x="188" y="679" on="0"/>
        <pt x="188" y="640" on="1"/>
        <pt x="188" y="38" on="1"/>
        <pt x="188" y="0" on="0"/>
        <pt x="148" y="0" on="1"/>
        <pt x="139" y="0" on="1"/>
        <pt x="101" y="0" on="0"/>
        <pt x="101" y="38" on="1"/>
        <pt x="101" y="640" on="1"/>
        <pt x="101" y="679" on="0"/>
      </contour>
      <contour>
        <pt x="159" y="755" on="0"/>
        <pt x="138" y="764" on="0"/>
        <pt x="100" y="781" on="0"/>
        <pt x="52" y="781" on="0"/>
        <pt x="22" y="757" on="0"/>
        <pt x="14" y="757" on="1"/>
        <pt x="-8" y="757" on="0"/>
        <pt x="-8" y="779" on="1"/>
        <pt x="-8" y="852" on="0"/>
        <pt x="76" y="852" on="1"/>
        <pt x="91" y="852" on="0"/>
        <pt x="110" y="848" on="0"/>
        <pt x="117" y="847" on="0"/>
        <pt x="133" y="841" on="0"/>
        <pt x="137" y="839" on="0"/>
        <pt x="158" y="830" on="0"/>
        <pt x="160" y="829" on="1"/>
        <pt x="196" y="813" on="0"/>
        <pt x="244" y="813" on="0"/>
        <pt x="274" y="837" on="0"/>
        <pt x="291" y="837" on="0"/>
        <pt x="304" y="825" on="0"/>
        <pt x="304" y="815" on="1"/>
        <pt x="304" y="742" on="0"/>
        <pt x="220" y="742" on="1"/>
        <pt x="205" y="742" on="0"/>
        <pt x="186" y="746" on="0"/>
        <pt x="179" y="747" on="0"/>
        <pt x="163" y="753" on="0"/>
      </contour>
    </TTGlyph>
    <TTGlyph name="J" xMin="-163" yMin="-212" xMax="176" yMax="679">
      <contour>
        <pt x="128" y="679" on="1"/>
        <pt x="137" y="679" on="1"/>
        <pt x="176" y="679" on="0"/>
        <pt x="176" y="642" on="1"/>
        <pt x="176" y="40" on="1"/>
        <pt x="176" y="-83" on="0"/>
        <pt x="65" y="-212" on="0"/>
        <pt x="-35" y="-212" on="1"/>
        <pt x="-95" y="-212" on="0"/>
        <pt x="-163" y="-162" on="0"/>
        <pt x="-163" y="-129" on="1"/>
        <pt x="-163" y="-108" on="0"/>
        <pt x="-141" y="-84" on="0"/>
        <pt x="-125" y="-84" on="1"/>
        <pt x="-119" y="-105" on="0"/>
        <pt x="-64" y="-142" on="0"/>
        <pt x="28" y="-142" on="0"/>
        <pt x="89" y="-64" on="0"/>
        <pt x="89" y="7" on="1"/>
        <pt x="89" y="642" on="1"/>
        <pt x="89" y="679" on="0"/>
      </contour>
    </TTGlyph>
    <TTGlyph name="Jcircumflex" xMin="-171" yMin="-212" xMax="274" yMax="869">
      <contour>
        <pt x="120" y="679" on="1"/>
        <pt x="129" y="679" on="1"/>
        <pt x="168" y="679" on="0"/>
        <pt x="168" y="642" on="1"/>
        <pt x="168" y="40" on="1"/>
        <pt x="168" y="-83" on="0"/>
        <pt x="57" y="-212" on="0"/>
        <pt x="-43" y="-212" on="1"/>
        <pt x="-103" y="-212" on="0"/>
        <pt x="-171" y="-162" on="0"/>
        <pt x="-171" y="-129" on="1"/>
        <pt x="-171" y="-108" on="0"/>
        <pt x="-149" y="-84" on="0"/>
        <pt x="-133" y="-84" on="1"/>
        <pt x="-127" y="-105" on="0"/>
        <pt x="-72" y="-142" on="0"/>
        <pt x="20" y="-142" on="0"/>
        <pt x="81" y="-64" on="0"/>
        <pt x="81" y="7" on="1"/>
        <pt x="81" y="642" on="1"/>
        <pt x="81" y="679" on="0"/>
      </contour>
      <contour>
        <pt x="16" y="745" on="1"/>
        <pt x="-14" y="745" on="0"/>
        <pt x="-14" y="769" on="1"/>
        <pt x="-14" y="781" on="0"/>
        <pt x="8" y="796" on="1"/>
        <pt x="97" y="859" on="1"/>
        <pt x="111" y="869" on="0"/>
        <pt x="147" y="869" on="0"/>
        <pt x="163" y="858" on="1"/>
        <pt x="252" y="796" on="1"/>
        <pt x="274" y="781" on="0"/>
        <pt x="274" y="769" on="1"/>
        <pt x="274" y="745" on="0"/>
        <pt x="244" y="745" on="1"/>
        <pt x="230" y="745" on="0"/>
        <pt x="216" y="754" on="1"/>
        <pt x="130" y="807" on="1"/>
        <pt x="44" y="754" on="1"/>
        <pt x="30" y="745" on="0"/>
      </contour>
    </TTGlyph>
    <TTGlyph name="K" xMin="100" yMin="0" xMax="601" yMax="679">
      <contour>
        <pt x="139" y="679" on="1"/>
        <pt x="148" y="679" on="1"/>
        <pt x="187" y="679" on="0"/>
        <pt x="187" y="640" on="1"/>
        <pt x="187" y="379" on="1"/>
        <pt x="360" y="519" on="0"/>
        <pt x="459" y="650" on="1"/>
        <pt x="479" y="679" on="0"/>
        <pt x="520" y="679" on="1"/>
        <pt x="555" y="679" on="1"/>
        <pt x="579" y="679" on="0"/>
        <pt x="579" y="659" on="1"/>
        <pt x="579" y="649" on="0"/>
        <pt x="572" y="642" on="1"/>
        <pt x="437" y="489" on="0"/>
        <pt x="277" y="363" on="1"/>
        <pt x="357" y="309" on="0"/>
        <pt x="527" y="138" on="0"/>
        <pt x="594" y="40" on="1"/>
        <pt x="601" y="30" on="0"/>
        <pt x="601" y="20" on="1"/>
        <pt x="601" y="0" on="0"/>
        <pt x="574" y="0" on="1"/>
        <pt x="532" y="0" on="1"/>
        <pt x="505" y="0" on="0"/>
        <pt x="481" y="34" on="1"/>
        <pt x="355" y="213" on="0"/>
        <pt x="187" y="333" on="1"/>
        <pt x="187" y="38" on="1"/>
        <pt x="187" y="0" on="0"/>
        <pt x="148" y="0" on="1"/>
        <pt x="139" y="0" on="1"/>
        <pt x="100" y="0" on="0"/>
        <pt x="100" y="38" on="1"/>
        <pt x="100" y="640" on="1"/>
        <pt x="100" y="679" on="0"/>
      </contour>
    </TTGlyph>
    <TTGlyph name="Kcommaaccent" xMin="100" yMin="-257" xMax="601" yMax="679">
      <contour>
        <pt x="139" y="679" on="1"/>
        <pt x="148" y="679" on="1"/>
        <pt x="187" y="679" on="0"/>
        <pt x="187" y="640" on="1"/>
        <pt x="187" y="379" on="1"/>
        <pt x="360" y="519" on="0"/>
        <pt x="459" y="650" on="1"/>
        <pt x="479" y="679" on="0"/>
        <pt x="520" y="679" on="1"/>
        <pt x="555" y="679" on="1"/>
        <pt x="579" y="679" on="0"/>
        <pt x="579" y="659" on="1"/>
        <pt x="579" y="649" on="0"/>
        <pt x="572" y="642" on="1"/>
        <pt x="437" y="489" on="0"/>
        <pt x="277" y="363" on="1"/>
        <pt x="357" y="309" on="0"/>
        <pt x="527" y="138" on="0"/>
        <pt x="594" y="40" on="1"/>
        <pt x="601" y="30" on="0"/>
        <pt x="601" y="20" on="1"/>
        <pt x="601" y="0" on="0"/>
        <pt x="574" y="0" on="1"/>
        <pt x="532" y="0" on="1"/>
        <pt x="505" y="0" on="0"/>
        <pt x="481" y="34" on="1"/>
        <pt x="355" y="213" on="0"/>
        <pt x="187" y="333" on="1"/>
        <pt x="187" y="38" on="1"/>
        <pt x="187" y="0" on="0"/>
        <pt x="148" y="0" on="1"/>
        <pt x="139" y="0" on="1"/>
        <pt x="100" y="0" on="0"/>
        <pt x="100" y="38" on="1"/>
        <pt x="100" y="640" on="1"/>
        <pt x="100" y="679" on="0"/>
      </contour>
      <contour>
        <pt x="267" y="-135" on="0"/>
        <pt x="241" y="-103" on="0"/>
        <pt x="241" y="-54" on="0"/>
        <pt x="279" y="-18" on="0"/>
        <pt x="336" y="-18" on="0"/>
        <pt x="379" y="-63" on="0"/>
        <pt x="379" y="-102" on="1"/>
        <pt x="379" y="-166" on="0"/>
        <pt x="313" y="-257" on="0"/>
        <pt x="267" y="-257" on="1"/>
        <pt x="234" y="-257" on="0"/>
        <pt x="234" y="-233" on="1"/>
        <pt x="267" y="-225" on="0"/>
        <pt x="310" y="-170" on="0"/>
        <pt x="310" y="-131" on="1"/>
        <pt x="302" y="-135" on="0"/>
      </contour>
    </TTGlyph>
    <TTGlyph name="L" xMin="101" yMin="0" xMax="534" yMax="679">
      <contour>
        <pt x="140" y="679" on="1"/>
        <pt x="149" y="679" on="1"/>
        <pt x="188" y="679" on="0"/>
        <pt x="188" y="641" on="1"/>
        <pt x="188" y="75" on="1"/>
        <pt x="496" y="75" on="1"/>
        <pt x="534" y="75" on="0"/>
        <pt x="534" y="0" on="0"/>
        <pt x="496" y="0" on="1"/>
        <pt x="140" y="0" on="1"/>
        <pt x="101" y="0" on="0"/>
        <pt x="101" y="38" on="1"/>
        <pt x="101" y="641" on="1"/>
        <pt x="101" y="679" on="0"/>
      </contour>
    </TTGlyph>
    <TTGlyph name="Lacute" xMin="40" yMin="0" xMax="534" yMax="895">
      <contour>
        <pt x="140" y="679" on="1"/>
        <pt x="149" y="679" on="1"/>
        <pt x="188" y="679" on="0"/>
        <pt x="188" y="641" on="1"/>
        <pt x="188" y="75" on="1"/>
        <pt x="496" y="75" on="1"/>
        <pt x="534" y="75" on="0"/>
        <pt x="534" y="0" on="0"/>
        <pt x="496" y="0" on="1"/>
        <pt x="140" y="0" on="1"/>
        <pt x="101" y="0" on="0"/>
        <pt x="101" y="38" on="1"/>
        <pt x="101" y="641" on="1"/>
        <pt x="101" y="679" on="0"/>
      </contour>
      <contour>
        <pt x="56" y="733" on="1"/>
        <pt x="40" y="733" on="0"/>
        <pt x="40" y="748" on="1"/>
        <pt x="40" y="757" on="1"/>
        <pt x="40" y="772" on="0"/>
        <pt x="58" y="784" on="1"/>
        <pt x="238" y="891" on="1"/>
        <pt x="243" y="895" on="0"/>
        <pt x="254" y="895" on="1"/>
        <pt x="272" y="895" on="0"/>
        <pt x="272" y="877" on="1"/>
        <pt x="272" y="850" on="1"/>
        <pt x="272" y="826" on="0"/>
        <pt x="250" y="817" on="1"/>
        <pt x="69" y="736" on="1"/>
        <pt x="63" y="733" on="0"/>
      </contour>
    </TTGlyph>
    <TTGlyph name="Lcaron" xMin="101" yMin="0" xMax="534" yMax="679">
      <contour>
        <pt x="140" y="679" on="1"/>
        <pt x="149" y="679" on="1"/>
        <pt x="188" y="679" on="0"/>
        <pt x="188" y="641" on="1"/>
        <pt x="188" y="75" on="1"/>
        <pt x="496" y="75" on="1"/>
        <pt x="534" y="75" on="0"/>
        <pt x="534" y="0" on="0"/>
        <pt x="496" y="0" on="1"/>
        <pt x="140" y="0" on="1"/>
        <pt x="101" y="0" on="0"/>
        <pt x="101" y="38" on="1"/>
        <pt x="101" y="641" on="1"/>
        <pt x="101" y="679" on="0"/>
      </contour>
      <contour>
        <pt x="359" y="558" on="0"/>
        <pt x="333" y="590" on="0"/>
        <pt x="333" y="639" on="0"/>
        <pt x="371" y="675" on="0"/>
        <pt x="428" y="675" on="0"/>
        <pt x="471" y="630" on="0"/>
        <pt x="471" y="591" on="1"/>
        <pt x="471" y="527" on="0"/>
        <pt x="405" y="436" on="0"/>
        <pt x="359" y="436" on="1"/>
        <pt x="326" y="436" on="0"/>
        <pt x="326" y="460" on="1"/>
        <pt x="359" y="468" on="0"/>
        <pt x="402" y="523" on="0"/>
        <pt x="402" y="562" on="1"/>
        <pt x="394" y="558" on="0"/>
      </contour>
    </TTGlyph>
    <TTGlyph name="Lcommaaccent" xMin="101" yMin="-257" xMax="534" yMax="679">
      <contour>
        <pt x="140" y="679" on="1"/>
        <pt x="149" y="679" on="1"/>
        <pt x="188" y="679" on="0"/>
        <pt x="188" y="641" on="1"/>
        <pt x="188" y="75" on="1"/>
        <pt x="496" y="75" on="1"/>
        <pt x="534" y="75" on="0"/>
        <pt x="534" y="0" on="0"/>
        <pt x="496" y="0" on="1"/>
        <pt x="140" y="0" on="1"/>
        <pt x="101" y="0" on="0"/>
        <pt x="101" y="38" on="1"/>
        <pt x="101" y="641" on="1"/>
        <pt x="101" y="679" on="0"/>
      </contour>
      <contour>
        <pt x="245" y="-135" on="0"/>
        <pt x="219" y="-103" on="0"/>
        <pt x="219" y="-54" on="0"/>
        <pt x="257" y="-18" on="0"/>
        <pt x="314" y="-18" on="0"/>
        <pt x="357" y="-63" on="0"/>
        <pt x="357" y="-102" on="1"/>
        <pt x="357" y="-166" on="0"/>
        <pt x="291" y="-257" on="0"/>
        <pt x="245" y="-257" on="1"/>
        <pt x="212" y="-257" on="0"/>
        <pt x="212" y="-233" on="1"/>
        <pt x="245" y="-225" on="0"/>
        <pt x="288" y="-170" on="0"/>
        <pt x="288" y="-131" on="1"/>
        <pt x="280" y="-135" on="0"/>
      </contour>
    </TTGlyph>
    <TTGlyph name="Ldot" xMin="101" yMin="0" xMax="534" yMax="679">
      <contour>
        <pt x="140" y="679" on="1"/>
        <pt x="149" y="679" on="1"/>
        <pt x="188" y="679" on="0"/>
        <pt x="188" y="641" on="1"/>
        <pt x="188" y="75" on="1"/>
        <pt x="496" y="75" on="1"/>
        <pt x="534" y="75" on="0"/>
        <pt x="534" y="0" on="0"/>
        <pt x="496" y="0" on="1"/>
        <pt x="140" y="0" on="1"/>
        <pt x="101" y="0" on="0"/>
        <pt x="101" y="38" on="1"/>
        <pt x="101" y="641" on="1"/>
        <pt x="101" y="679" on="0"/>
      </contour>
      <contour>
        <pt x="299" y="398" on="0"/>
        <pt x="337" y="434" on="0"/>
        <pt x="392" y="434" on="0"/>
        <pt x="430" y="398" on="0"/>
        <pt x="430" y="340" on="0"/>
        <pt x="392" y="304" on="0"/>
        <pt x="337" y="304" on="0"/>
        <pt x="299" y="340" on="0"/>
      </contour>
    </TTGlyph>
    <TTGlyph name="Lslash" xMin="37" yMin="0" xMax="564" yMax="679">
      <contour>
        <pt x="263" y="442" on="1"/>
        <pt x="275" y="450" on="0"/>
        <pt x="300" y="450" on="0"/>
        <pt x="326" y="423" on="0"/>
        <pt x="326" y="391" on="0"/>
        <pt x="308" y="379" on="1"/>
        <pt x="100" y="229" on="1"/>
        <pt x="86" y="220" on="0"/>
        <pt x="61" y="220" on="0"/>
        <pt x="36" y="248" on="0"/>
        <pt x="38" y="279" on="0"/>
        <pt x="56" y="292" on="1"/>
      </contour>
      <contour>
        <pt x="170" y="679" on="1"/>
        <pt x="179" y="679" on="1"/>
        <pt x="218" y="679" on="0"/>
        <pt x="218" y="641" on="1"/>
        <pt x="218" y="75" on="1"/>
        <pt x="526" y="75" on="1"/>
        <pt x="564" y="75" on="0"/>
        <pt x="564" y="0" on="0"/>
        <pt x="526" y="0" on="1"/>
        <pt x="170" y="0" on="1"/>
        <pt x="131" y="0" on="0"/>
        <pt x="131" y="38" on="1"/>
        <pt x="131" y="641" on="1"/>
        <pt x="131" y="679" on="0"/>
      </contour>
    </TTGlyph>
    <TTGlyph name="M" xMin="101" yMin="0" xMax="802" yMax="679">
      <contour>
        <pt x="101" y="37" on="1"/>
        <pt x="107" y="630" on="1"/>
        <pt x="107" y="679" on="0"/>
        <pt x="156" y="679" on="1"/>
        <pt x="189" y="679" on="1"/>
        <pt x="244" y="679" on="0"/>
        <pt x="267" y="616" on="1"/>
        <pt x="295" y="537" on="0"/>
        <pt x="414" y="183" on="0"/>
        <pt x="449" y="86" on="1"/>
        <pt x="481" y="176" on="0"/>
        <pt x="602" y="526" on="0"/>
        <pt x="634" y="616" on="1"/>
        <pt x="656" y="679" on="0"/>
        <pt x="711" y="679" on="1"/>
        <pt x="747" y="679" on="1"/>
        <pt x="770" y="679" on="0"/>
        <pt x="798" y="652" on="0"/>
        <pt x="798" y="630" on="1"/>
        <pt x="798" y="575" on="1"/>
        <pt x="802" y="37" on="1"/>
        <pt x="802" y="0" on="0"/>
        <pt x="763" y="0" on="1"/>
        <pt x="754" y="0" on="1"/>
        <pt x="715" y="0" on="0"/>
        <pt x="715" y="37" on="1"/>
        <pt x="718" y="616" on="1"/>
        <pt x="547" y="149" on="0"/>
        <pt x="507" y="43" on="1"/>
        <pt x="490" y="0" on="0"/>
        <pt x="450" y="0" on="1"/>
        <pt x="443" y="0" on="1"/>
        <pt x="401" y="0" on="0"/>
        <pt x="386" y="43" on="1"/>
        <pt x="359" y="117" on="0"/>
        <pt x="226" y="514" on="0"/>
        <pt x="185" y="616" on="1"/>
        <pt x="188" y="37" on="1"/>
        <pt x="188" y="0" on="0"/>
        <pt x="149" y="0" on="1"/>
        <pt x="140" y="0" on="1"/>
        <pt x="101" y="0" on="0"/>
      </contour>
    </TTGlyph>
    <TTGlyph name="N" xMin="101" yMin="0" xMax="655" yMax="679">
      <contour>
        <pt x="141" y="679" on="1"/>
        <pt x="161" y="679" on="1"/>
        <pt x="199" y="679" on="0"/>
        <pt x="225" y="637" on="1"/>
        <pt x="569" y="137" on="1"/>
        <pt x="569" y="640" on="1"/>
        <pt x="569" y="661" on="0"/>
        <pt x="587" y="679" on="0"/>
        <pt x="607" y="679" on="1"/>
        <pt x="616" y="679" on="1"/>
        <pt x="655" y="679" on="0"/>
        <pt x="655" y="640" on="1"/>
        <pt x="655" y="48" on="1"/>
        <pt x="655" y="27" on="0"/>
        <pt x="635" y="0" on="0"/>
        <pt x="616" y="0" on="1"/>
        <pt x="603" y="0" on="1"/>
        <pt x="565" y="0" on="0"/>
        <pt x="530" y="51" on="1"/>
        <pt x="187" y="550" on="1"/>
        <pt x="187" y="38" on="1"/>
        <pt x="187" y="0" on="0"/>
        <pt x="151" y="0" on="1"/>
        <pt x="141" y="0" on="1"/>
        <pt x="101" y="0" on="0"/>
        <pt x="101" y="38" on="1"/>
        <pt x="101" y="630" on="1"/>
        <pt x="101" y="679" on="0"/>
      </contour>
    </TTGlyph>
    <TTGlyph name="Nacute" xMin="102" yMin="0" xMax="656" yMax="895">
      <contour>
        <pt x="142" y="679" on="1"/>
        <pt x="162" y="679" on="1"/>
        <pt x="200" y="679" on="0"/>
        <pt x="226" y="637" on="1"/>
        <pt x="570" y="137" on="1"/>
        <pt x="570" y="640" on="1"/>
        <pt x="570" y="661" on="0"/>
        <pt x="588" y="679" on="0"/>
        <pt x="608" y="679" on="1"/>
        <pt x="617" y="679" on="1"/>
        <pt x="656" y="679" on="0"/>
        <pt x="656" y="640" on="1"/>
        <pt x="656" y="48" on="1"/>
        <pt x="656" y="27" on="0"/>
        <pt x="636" y="0" on="0"/>
        <pt x="617" y="0" on="1"/>
        <pt x="604" y="0" on="1"/>
        <pt x="566" y="0" on="0"/>
        <pt x="531" y="51" on="1"/>
        <pt x="188" y="550" on="1"/>
        <pt x="188" y="38" on="1"/>
        <pt x="188" y="0" on="0"/>
        <pt x="152" y="0" on="1"/>
        <pt x="142" y="0" on="1"/>
        <pt x="102" y="0" on="0"/>
        <pt x="102" y="38" on="1"/>
        <pt x="102" y="630" on="1"/>
        <pt x="102" y="679" on="0"/>
      </contour>
      <contour>
        <pt x="273" y="733" on="1"/>
        <pt x="257" y="733" on="0"/>
        <pt x="257" y="748" on="1"/>
        <pt x="257" y="757" on="1"/>
        <pt x="257" y="772" on="0"/>
        <pt x="275" y="784" on="1"/>
        <pt x="455" y="891" on="1"/>
        <pt x="460" y="895" on="0"/>
        <pt x="471" y="895" on="1"/>
        <pt x="489" y="895" on="0"/>
        <pt x="489" y="877" on="1"/>
        <pt x="489" y="850" on="1"/>
        <pt x="489" y="826" on="0"/>
        <pt x="467" y="817" on="1"/>
        <pt x="286" y="736" on="1"/>
        <pt x="280" y="733" on="0"/>
      </contour>
    </TTGlyph>
    <TTGlyph name="Ncaron" xMin="102" yMin="0" xMax="656" yMax="869">
      <contour>
        <pt x="142" y="679" on="1"/>
        <pt x="162" y="679" on="1"/>
        <pt x="200" y="679" on="0"/>
        <pt x="226" y="637" on="1"/>
        <pt x="570" y="137" on="1"/>
        <pt x="570" y="640" on="1"/>
        <pt x="570" y="661" on="0"/>
        <pt x="588" y="679" on="0"/>
        <pt x="608" y="679" on="1"/>
        <pt x="617" y="679" on="1"/>
        <pt x="656" y="679" on="0"/>
        <pt x="656" y="640" on="1"/>
        <pt x="656" y="48" on="1"/>
        <pt x="656" y="27" on="0"/>
        <pt x="636" y="0" on="0"/>
        <pt x="617" y="0" on="1"/>
        <pt x="604" y="0" on="1"/>
        <pt x="566" y="0" on="0"/>
        <pt x="531" y="51" on="1"/>
        <pt x="188" y="550" on="1"/>
        <pt x="188" y="38" on="1"/>
        <pt x="188" y="0" on="0"/>
        <pt x="152" y="0" on="1"/>
        <pt x="142" y="0" on="1"/>
        <pt x="102" y="0" on="0"/>
        <pt x="102" y="38" on="1"/>
        <pt x="102" y="630" on="1"/>
        <pt x="102" y="679" on="0"/>
      </contour>
      <contour>
        <pt x="258" y="869" on="1"/>
        <pt x="272" y="869" on="0"/>
        <pt x="286" y="860" on="1"/>
        <pt x="372" y="807" on="1"/>
        <pt x="458" y="860" on="1"/>
        <pt x="472" y="869" on="0"/>
        <pt x="486" y="869" on="1"/>
        <pt x="516" y="869" on="0"/>
        <pt x="516" y="845" on="1"/>
        <pt x="516" y="833" on="0"/>
        <pt x="494" y="818" on="1"/>
        <pt x="405" y="755" on="1"/>
        <pt x="391" y="745" on="0"/>
        <pt x="355" y="745" on="0"/>
        <pt x="339" y="756" on="1"/>
        <pt x="250" y="818" on="1"/>
        <pt x="228" y="833" on="0"/>
        <pt x="228" y="845" on="1"/>
        <pt x="228" y="869" on="0"/>
      </contour>
    </TTGlyph>
    <TTGlyph name="Ncommaaccent" xMin="101" yMin="-257" xMax="655" yMax="679">
      <contour>
        <pt x="141" y="679" on="1"/>
        <pt x="161" y="679" on="1"/>
        <pt x="199" y="679" on="0"/>
        <pt x="225" y="637" on="1"/>
        <pt x="569" y="137" on="1"/>
        <pt x="569" y="640" on="1"/>
        <pt x="569" y="661" on="0"/>
        <pt x="587" y="679" on="0"/>
        <pt x="607" y="679" on="1"/>
        <pt x="616" y="679" on="1"/>
        <pt x="655" y="679" on="0"/>
        <pt x="655" y="640" on="1"/>
        <pt x="655" y="48" on="1"/>
        <pt x="655" y="27" on="0"/>
        <pt x="635" y="0" on="0"/>
        <pt x="616" y="0" on="1"/>
        <pt x="603" y="0" on="1"/>
        <pt x="565" y="0" on="0"/>
        <pt x="530" y="51" on="1"/>
        <pt x="187" y="550" on="1"/>
        <pt x="187" y="38" on="1"/>
        <pt x="187" y="0" on="0"/>
        <pt x="151" y="0" on="1"/>
        <pt x="141" y="0" on="1"/>
        <pt x="101" y="0" on="0"/>
        <pt x="101" y="38" on="1"/>
        <pt x="101" y="630" on="1"/>
        <pt x="101" y="679" on="0"/>
      </contour>
      <contour>
        <pt x="338" y="-135" on="0"/>
        <pt x="312" y="-103" on="0"/>
        <pt x="312" y="-54" on="0"/>
        <pt x="350" y="-18" on="0"/>
        <pt x="407" y="-18" on="0"/>
        <pt x="450" y="-63" on="0"/>
        <pt x="450" y="-102" on="1"/>
        <pt x="450" y="-166" on="0"/>
        <pt x="384" y="-257" on="0"/>
        <pt x="338" y="-257" on="1"/>
        <pt x="305" y="-257" on="0"/>
        <pt x="305" y="-233" on="1"/>
        <pt x="338" y="-225" on="0"/>
        <pt x="381" y="-170" on="0"/>
        <pt x="381" y="-131" on="1"/>
        <pt x="373" y="-135" on="0"/>
      </contour>
    </TTGlyph>
    <TTGlyph name="Ntilde" xMin="102" yMin="0" xMax="656" yMax="837">
      <contour>
        <pt x="142" y="679" on="1"/>
        <pt x="162" y="679" on="1"/>
        <pt x="200" y="679" on="0"/>
        <pt x="226" y="637" on="1"/>
        <pt x="570" y="137" on="1"/>
        <pt x="570" y="640" on="1"/>
        <pt x="570" y="661" on="0"/>
        <pt x="588" y="679" on="0"/>
        <pt x="608" y="679" on="1"/>
        <pt x="617" y="679" on="1"/>
        <pt x="656" y="679" on="0"/>
        <pt x="656" y="640" on="1"/>
        <pt x="656" y="48" on="1"/>
        <pt x="656" y="27" on="0"/>
        <pt x="636" y="0" on="0"/>
        <pt x="617" y="0" on="1"/>
        <pt x="604" y="0" on="1"/>
        <pt x="566" y="0" on="0"/>
        <pt x="531" y="51" on="1"/>
        <pt x="188" y="550" on="1"/>
        <pt x="188" y="38" on="1"/>
        <pt x="188" y="0" on="0"/>
        <pt x="152" y="0" on="1"/>
        <pt x="142" y="0" on="1"/>
        <pt x="102" y="0" on="0"/>
        <pt x="102" y="38" on="1"/>
        <pt x="102" y="630" on="1"/>
        <pt x="102" y="679" on="0"/>
      </contour>
      <contour>
        <pt x="363" y="750" on="1"/>
        <pt x="327" y="766" on="0"/>
        <pt x="278" y="766" on="0"/>
        <pt x="250" y="742" on="0"/>
        <pt x="241" y="742" on="1"/>
        <pt x="219" y="742" on="0"/>
        <pt x="219" y="764" on="1"/>
        <pt x="219" y="837" on="0"/>
        <pt x="303" y="837" on="1"/>
        <pt x="318" y="837" on="0"/>
        <pt x="337" y="833" on="0"/>
        <pt x="344" y="832" on="0"/>
        <pt x="360" y="826" on="0"/>
        <pt x="364" y="824" on="0"/>
        <pt x="385" y="815" on="0"/>
        <pt x="387" y="814" on="1"/>
        <pt x="423" y="798" on="0"/>
        <pt x="472" y="798" on="0"/>
        <pt x="500" y="822" on="0"/>
        <pt x="518" y="822" on="0"/>
        <pt x="531" y="810" on="0"/>
        <pt x="531" y="800" on="1"/>
        <pt x="531" y="727" on="0"/>
        <pt x="447" y="727" on="1"/>
        <pt x="432" y="727" on="0"/>
        <pt x="413" y="731" on="0"/>
        <pt x="406" y="732" on="0"/>
        <pt x="390" y="738" on="0"/>
        <pt x="386" y="740" on="0"/>
        <pt x="365" y="749" on="0"/>
      </contour>
    </TTGlyph>
    <TTGlyph name="O" xMin="58" yMin="-8" xMax="710" yMax="687">
      <contour>
        <pt x="322" y="687" on="0"/>
        <pt x="446" y="687" on="0"/>
        <pt x="558" y="646" on="0"/>
        <pt x="653" y="566" on="0"/>
        <pt x="710" y="427" on="0"/>
        <pt x="710" y="250" on="0"/>
        <pt x="653" y="113" on="0"/>
        <pt x="558" y="33" on="0"/>
        <pt x="446" y="-8" on="0"/>
        <pt x="322" y="-8" on="0"/>
        <pt x="209" y="33" on="0"/>
        <pt x="114" y="113" on="0"/>
        <pt x="58" y="250" on="0"/>
        <pt x="58" y="427" on="0"/>
        <pt x="114" y="566" on="0"/>
        <pt x="209" y="646" on="0"/>
      </contour>
      <contour>
        <pt x="482" y="610" on="0"/>
        <pt x="286" y="610" on="0"/>
        <pt x="145" y="470" on="0"/>
        <pt x="145" y="209" on="0"/>
        <pt x="286" y="69" on="0"/>
        <pt x="482" y="69" on="0"/>
        <pt x="623" y="209" on="0"/>
        <pt x="623" y="470" on="0"/>
      </contour>
    </TTGlyph>
    <TTGlyph name="Oacute" xMin="58" yMin="-8" xMax="710" yMax="895">
      <contour>
        <pt x="322" y="687" on="0"/>
        <pt x="446" y="687" on="0"/>
        <pt x="558" y="646" on="0"/>
        <pt x="653" y="566" on="0"/>
        <pt x="710" y="427" on="0"/>
        <pt x="710" y="250" on="0"/>
        <pt x="653" y="113" on="0"/>
        <pt x="558" y="33" on="0"/>
        <pt x="446" y="-8" on="0"/>
        <pt x="322" y="-8" on="0"/>
        <pt x="209" y="33" on="0"/>
        <pt x="114" y="113" on="0"/>
        <pt x="58" y="250" on="0"/>
        <pt x="58" y="427" on="0"/>
        <pt x="114" y="566" on="0"/>
        <pt x="209" y="646" on="0"/>
      </contour>
      <contour>
        <pt x="482" y="610" on="0"/>
        <pt x="286" y="610" on="0"/>
        <pt x="145" y="470" on="0"/>
        <pt x="145" y="209" on="0"/>
        <pt x="286" y="69" on="0"/>
        <pt x="482" y="69" on="0"/>
        <pt x="623" y="209" on="0"/>
        <pt x="623" y="470" on="0"/>
      </contour>
      <contour>
        <pt x="286" y="733" on="1"/>
        <pt x="270" y="733" on="0"/>
        <pt x="270" y="748" on="1"/>
        <pt x="270" y="757" on="1"/>
        <pt x="270" y="772" on="0"/>
        <pt x="288" y="784" on="1"/>
        <pt x="468" y="891" on="1"/>
        <pt x="473" y="895" on="0"/>
        <pt x="484" y="895" on="1"/>
        <pt x="502" y="895" on="0"/>
        <pt x="502" y="877" on="1"/>
        <pt x="502" y="850" on="1"/>
        <pt x="502" y="826" on="0"/>
        <pt x="480" y="817" on="1"/>
        <pt x="299" y="736" on="1"/>
        <pt x="293" y="733" on="0"/>
      </contour>
    </TTGlyph>
    <TTGlyph name="Obreve" xMin="58" yMin="-8" xMax="710" yMax="874">
      <contour>
        <pt x="322" y="687" on="0"/>
        <pt x="446" y="687" on="0"/>
        <pt x="558" y="646" on="0"/>
        <pt x="653" y="566" on="0"/>
        <pt x="710" y="427" on="0"/>
        <pt x="710" y="250" on="0"/>
        <pt x="653" y="113" on="0"/>
        <pt x="558" y="33" on="0"/>
        <pt x="446" y="-8" on="0"/>
        <pt x="322" y="-8" on="0"/>
        <pt x="209" y="33" on="0"/>
        <pt x="114" y="113" on="0"/>
        <pt x="58" y="250" on="0"/>
        <pt x="58" y="427" on="0"/>
        <pt x="114" y="566" on="0"/>
        <pt x="209" y="646" on="0"/>
      </contour>
      <contour>
        <pt x="482" y="610" on="0"/>
        <pt x="286" y="610" on="0"/>
        <pt x="145" y="470" on="0"/>
        <pt x="145" y="209" on="0"/>
        <pt x="286" y="69" on="0"/>
        <pt x="482" y="69" on="0"/>
        <pt x="623" y="209" on="0"/>
        <pt x="623" y="470" on="0"/>
      </contour>
      <contour>
        <pt x="314" y="844" on="0"/>
        <pt x="358" y="814" on="0"/>
        <pt x="408" y="814" on="0"/>
        <pt x="452" y="844" on="0"/>
        <pt x="485" y="874" on="0"/>
        <pt x="495" y="874" on="1"/>
        <pt x="520" y="874" on="0"/>
        <pt x="520" y="818" on="0"/>
        <pt x="437" y="760" on="0"/>
        <pt x="331" y="760" on="0"/>
        <pt x="247" y="819" on="0"/>
        <pt x="247" y="850" on="1"/>
        <pt x="247" y="861" on="0"/>
        <pt x="262" y="874" on="0"/>
        <pt x="283" y="874" on="0"/>
      </contour>
    </TTGlyph>
    <TTGlyph name="Ocircumflex" xMin="58" yMin="-8" xMax="710" yMax="869">
      <contour>
        <pt x="322" y="687" on="0"/>
        <pt x="446" y="687" on="0"/>
        <pt x="558" y="646" on="0"/>
        <pt x="653" y="566" on="0"/>
        <pt x="710" y="427" on="0"/>
        <pt x="710" y="250" on="0"/>
        <pt x="653" y="113" on="0"/>
        <pt x="558" y="33" on="0"/>
        <pt x="446" y="-8" on="0"/>
        <pt x="322" y="-8" on="0"/>
        <pt x="209" y="33" on="0"/>
        <pt x="114" y="113" on="0"/>
        <pt x="58" y="250" on="0"/>
        <pt x="58" y="427" on="0"/>
        <pt x="114" y="566" on="0"/>
        <pt x="209" y="646" on="0"/>
      </contour>
      <contour>
        <pt x="482" y="610" on="0"/>
        <pt x="286" y="610" on="0"/>
        <pt x="145" y="470" on="0"/>
        <pt x="145" y="209" on="0"/>
        <pt x="286" y="69" on="0"/>
        <pt x="482" y="69" on="0"/>
        <pt x="623" y="209" on="0"/>
        <pt x="623" y="470" on="0"/>
      </contour>
      <contour>
        <pt x="271" y="745" on="1"/>
        <pt x="241" y="745" on="0"/>
        <pt x="241" y="769" on="1"/>
        <pt x="241" y="781" on="0"/>
        <pt x="263" y="796" on="1"/>
        <pt x="352" y="859" on="1"/>
        <pt x="366" y="869" on="0"/>
        <pt x="402" y="869" on="0"/>
        <pt x="418" y="858" on="1"/>
        <pt x="507" y="796" on="1"/>
        <pt x="529" y="781" on="0"/>
        <pt x="529" y="769" on="1"/>
        <pt x="529" y="745" on="0"/>
        <pt x="499" y="745" on="1"/>
        <pt x="485" y="745" on="0"/>
        <pt x="471" y="754" on="1"/>
        <pt x="385" y="807" on="1"/>
        <pt x="299" y="754" on="1"/>
        <pt x="285" y="745" on="0"/>
      </contour>
    </TTGlyph>
    <TTGlyph name="Odieresis" xMin="58" yMin="-8" xMax="710" yMax="840">
      <contour>
        <pt x="322" y="687" on="0"/>
        <pt x="446" y="687" on="0"/>
        <pt x="558" y="646" on="0"/>
        <pt x="653" y="566" on="0"/>
        <pt x="710" y="427" on="0"/>
        <pt x="710" y="250" on="0"/>
        <pt x="653" y="113" on="0"/>
        <pt x="558" y="33" on="0"/>
        <pt x="446" y="-8" on="0"/>
        <pt x="322" y="-8" on="0"/>
        <pt x="209" y="33" on="0"/>
        <pt x="114" y="113" on="0"/>
        <pt x="58" y="250" on="0"/>
        <pt x="58" y="427" on="0"/>
        <pt x="114" y="566" on="0"/>
        <pt x="209" y="646" on="0"/>
      </contour>
      <contour>
        <pt x="482" y="610" on="0"/>
        <pt x="286" y="610" on="0"/>
        <pt x="145" y="470" on="0"/>
        <pt x="145" y="209" on="0"/>
        <pt x="286" y="69" on="0"/>
        <pt x="482" y="69" on="0"/>
        <pt x="623" y="209" on="0"/>
        <pt x="623" y="470" on="0"/>
      </contour>
      <contour>
        <pt x="265" y="750" on="0"/>
        <pt x="238" y="776" on="0"/>
        <pt x="238" y="815" on="0"/>
        <pt x="265" y="840" on="0"/>
        <pt x="303" y="840" on="0"/>
        <pt x="329" y="815" on="0"/>
        <pt x="329" y="776" on="0"/>
        <pt x="303" y="750" on="0"/>
      </contour>
      <contour>
        <pt x="466" y="750" on="0"/>
        <pt x="440" y="776" on="0"/>
        <pt x="440" y="815" on="0"/>
        <pt x="466" y="840" on="0"/>
        <pt x="504" y="840" on="0"/>
        <pt x="530" y="815" on="0"/>
        <pt x="530" y="776" on="0"/>
        <pt x="504" y="750" on="0"/>
      </contour>
    </TTGlyph>
    <TTGlyph name="Ograve" xMin="58" yMin="-8" xMax="710" yMax="895">
      <contour>
        <pt x="322" y="687" on="0"/>
        <pt x="446" y="687" on="0"/>
        <pt x="558" y="646" on="0"/>
        <pt x="653" y="566" on="0"/>
        <pt x="710" y="427" on="0"/>
        <pt x="710" y="250" on="0"/>
        <pt x="653" y="113" on="0"/>
        <pt x="558" y="33" on="0"/>
        <pt x="446" y="-8" on="0"/>
        <pt x="322" y="-8" on="0"/>
        <pt x="209" y="33" on="0"/>
        <pt x="114" y="113" on="0"/>
        <pt x="58" y="250" on="0"/>
        <pt x="58" y="427" on="0"/>
        <pt x="114" y="566" on="0"/>
        <pt x="209" y="646" on="0"/>
      </contour>
      <contour>
        <pt x="482" y="610" on="0"/>
        <pt x="286" y="610" on="0"/>
        <pt x="145" y="470" on="0"/>
        <pt x="145" y="209" on="0"/>
        <pt x="286" y="69" on="0"/>
        <pt x="482" y="69" on="0"/>
        <pt x="623" y="209" on="0"/>
        <pt x="623" y="470" on="0"/>
      </contour>
      <contour>
        <pt x="270" y="850" on="1"/>
        <pt x="270" y="877" on="1"/>
        <pt x="270" y="895" on="0"/>
        <pt x="288" y="895" on="1"/>
        <pt x="297" y="895" on="0"/>
        <pt x="304" y="891" on="1"/>
        <pt x="484" y="784" on="1"/>
        <pt x="500" y="774" on="0"/>
        <pt x="502" y="757" on="1"/>
        <pt x="502" y="748" on="1"/>
        <pt x="502" y="733" on="0"/>
        <pt x="485" y="733" on="1"/>
        <pt x="478" y="733" on="0"/>
        <pt x="472" y="736" on="1"/>
        <pt x="290" y="817" on="1"/>
        <pt x="270" y="826" on="0"/>
      </contour>
    </TTGlyph>
    <TTGlyph name="Ohungarumlaut" xMin="58" yMin="-8" xMax="710" yMax="894">
      <contour>
        <pt x="322" y="687" on="0"/>
        <pt x="446" y="687" on="0"/>
        <pt x="558" y="646" on="0"/>
        <pt x="653" y="566" on="0"/>
        <pt x="710" y="427" on="0"/>
        <pt x="710" y="250" on="0"/>
        <pt x="653" y="113" on="0"/>
        <pt x="558" y="33" on="0"/>
        <pt x="446" y="-8" on="0"/>
        <pt x="322" y="-8" on="0"/>
        <pt x="209" y="33" on="0"/>
        <pt x="114" y="113" on="0"/>
        <pt x="58" y="250" on="0"/>
        <pt x="58" y="427" on="0"/>
        <pt x="114" y="566" on="0"/>
        <pt x="209" y="646" on="0"/>
      </contour>
      <contour>
        <pt x="482" y="610" on="0"/>
        <pt x="286" y="610" on="0"/>
        <pt x="145" y="470" on="0"/>
        <pt x="145" y="209" on="0"/>
        <pt x="286" y="69" on="0"/>
        <pt x="482" y="69" on="0"/>
        <pt x="623" y="209" on="0"/>
        <pt x="623" y="470" on="0"/>
      </contour>
      <contour>
        <pt x="206" y="737" on="1"/>
        <pt x="190" y="737" on="0"/>
        <pt x="190" y="752" on="1"/>
        <pt x="190" y="761" on="1"/>
        <pt x="190" y="776" on="0"/>
        <pt x="208" y="788" on="1"/>
        <pt x="369" y="890" on="1"/>
        <pt x="374" y="894" on="0"/>
        <pt x="385" y="894" on="1"/>
        <pt x="403" y="894" on="0"/>
        <pt x="403" y="876" on="1"/>
        <pt x="403" y="846" on="1"/>
        <pt x="403" y="824" on="0"/>
        <pt x="382" y="813" on="1"/>
        <pt x="219" y="740" on="1"/>
        <pt x="213" y="737" on="0"/>
      </contour>
      <contour>
        <pt x="395" y="737" on="1"/>
        <pt x="378" y="737" on="0"/>
        <pt x="378" y="752" on="1"/>
        <pt x="378" y="761" on="1"/>
        <pt x="378" y="776" on="0"/>
        <pt x="396" y="788" on="1"/>
        <pt x="558" y="890" on="1"/>
        <pt x="563" y="894" on="0"/>
        <pt x="574" y="894" on="1"/>
        <pt x="592" y="894" on="0"/>
        <pt x="592" y="876" on="1"/>
        <pt x="592" y="846" on="1"/>
        <pt x="592" y="825" on="0"/>
        <pt x="571" y="813" on="1"/>
        <pt x="408" y="740" on="1"/>
        <pt x="402" y="737" on="0"/>
      </contour>
    </TTGlyph>
    <TTGlyph name="Omacron" xMin="58" yMin="-8" xMax="710" yMax="827">
      <contour>
        <pt x="322" y="687" on="0"/>
        <pt x="446" y="687" on="0"/>
        <pt x="558" y="646" on="0"/>
        <pt x="653" y="566" on="0"/>
        <pt x="710" y="427" on="0"/>
        <pt x="710" y="250" on="0"/>
        <pt x="653" y="113" on="0"/>
        <pt x="558" y="33" on="0"/>
        <pt x="446" y="-8" on="0"/>
        <pt x="322" y="-8" on="0"/>
        <pt x="209" y="33" on="0"/>
        <pt x="114" y="113" on="0"/>
        <pt x="58" y="250" on="0"/>
        <pt x="58" y="427" on="0"/>
        <pt x="114" y="566" on="0"/>
        <pt x="209" y="646" on="0"/>
      </contour>
      <contour>
        <pt x="482" y="610" on="0"/>
        <pt x="286" y="610" on="0"/>
        <pt x="145" y="470" on="0"/>
        <pt x="145" y="209" on="0"/>
        <pt x="286" y="69" on="0"/>
        <pt x="482" y="69" on="0"/>
        <pt x="623" y="209" on="0"/>
        <pt x="623" y="470" on="0"/>
      </contour>
      <contour>
        <pt x="249" y="827" on="1"/>
        <pt x="515" y="827" on="1"/>
        <pt x="552" y="827" on="0"/>
        <pt x="552" y="761" on="0"/>
        <pt x="515" y="761" on="1"/>
        <pt x="249" y="761" on="1"/>
        <pt x="212" y="761" on="0"/>
        <pt x="212" y="827" on="0"/>
      </contour>
    </TTGlyph>
    <TTGlyph name="Oslash" xMin="58" yMin="-41" xMax="710" yMax="692">
      <contour>
        <pt x="147" y="-28" on="1"/>
        <pt x="137" y="-41" on="0"/>
        <pt x="118" y="-41" on="0"/>
        <pt x="89" y="-20" on="0"/>
        <pt x="89" y="0" on="0"/>
        <pt x="96" y="10" on="1"/>
        <pt x="618" y="679" on="1"/>
        <pt x="628" y="692" on="0"/>
        <pt x="638" y="692" on="1"/>
        <pt x="648" y="692" on="0"/>
        <pt x="677" y="671" on="0"/>
        <pt x="677" y="650" on="0"/>
        <pt x="669" y="641" on="1"/>
      </contour>
      <contour>
        <pt x="322" y="687" on="0"/>
        <pt x="446" y="687" on="0"/>
        <pt x="558" y="646" on="0"/>
        <pt x="653" y="566" on="0"/>
        <pt x="710" y="427" on="0"/>
        <pt x="710" y="250" on="0"/>
        <pt x="653" y="113" on="0"/>
        <pt x="558" y="33" on="0"/>
        <pt x="446" y="-8" on="0"/>
        <pt x="322" y="-8" on="0"/>
        <pt x="209" y="33" on="0"/>
        <pt x="114" y="113" on="0"/>
        <pt x="58" y="250" on="0"/>
        <pt x="58" y="427" on="0"/>
        <pt x="114" y="566" on="0"/>
        <pt x="209" y="646" on="0"/>
      </contour>
      <contour>
        <pt x="482" y="610" on="0"/>
        <pt x="286" y="610" on="0"/>
        <pt x="145" y="470" on="0"/>
        <pt x="145" y="209" on="0"/>
        <pt x="286" y="69" on="0"/>
        <pt x="482" y="69" on="0"/>
        <pt x="623" y="209" on="0"/>
        <pt x="623" y="470" on="0"/>
      </contour>
    </TTGlyph>
    <TTGlyph name="Otilde" xMin="58" yMin="-8" xMax="710" yMax="852">
      <contour>
        <pt x="322" y="687" on="0"/>
        <pt x="446" y="687" on="0"/>
        <pt x="558" y="646" on="0"/>
        <pt x="653" y="566" on="0"/>
        <pt x="710" y="427" on="0"/>
        <pt x="710" y="250" on="0"/>
        <pt x="653" y="113" on="0"/>
        <pt x="558" y="33" on="0"/>
        <pt x="446" y="-8" on="0"/>
        <pt x="322" y="-8" on="0"/>
        <pt x="209" y="33" on="0"/>
        <pt x="114" y="113" on="0"/>
        <pt x="58" y="250" on="0"/>
        <pt x="58" y="427" on="0"/>
        <pt x="114" y="566" on="0"/>
        <pt x="209" y="646" on="0"/>
      </contour>
      <contour>
        <pt x="482" y="610" on="0"/>
        <pt x="286" y="610" on="0"/>
        <pt x="145" y="470" on="0"/>
        <pt x="145" y="209" on="0"/>
        <pt x="286" y="69" on="0"/>
        <pt x="482" y="69" on="0"/>
        <pt x="623" y="209" on="0"/>
        <pt x="623" y="470" on="0"/>
      </contour>
      <contour>
        <pt x="397" y="755" on="0"/>
        <pt x="376" y="764" on="0"/>
        <pt x="338" y="781" on="0"/>
        <pt x="290" y="781" on="0"/>
        <pt x="260" y="757" on="0"/>
        <pt x="252" y="757" on="1"/>
        <pt x="230" y="757" on="0"/>
        <pt x="230" y="779" on="1"/>
        <pt x="230" y="852" on="0"/>
        <pt x="314" y="852" on="1"/>
        <pt x="329" y="852" on="0"/>
        <pt x="348" y="848" on="0"/>
        <pt x="355" y="847" on="0"/>
        <pt x="371" y="841" on="0"/>
        <pt x="375" y="839" on="0"/>
        <pt x="396" y="830" on="0"/>
        <pt x="398" y="829" on="1"/>
        <pt x="434" y="813" on="0"/>
        <pt x="482" y="813" on="0"/>
        <pt x="512" y="837" on="0"/>
        <pt x="529" y="837" on="0"/>
        <pt x="542" y="825" on="0"/>
        <pt x="542" y="815" on="1"/>
        <pt x="542" y="742" on="0"/>
        <pt x="458" y="742" on="1"/>
        <pt x="443" y="742" on="0"/>
        <pt x="424" y="746" on="0"/>
        <pt x="417" y="747" on="0"/>
        <pt x="401" y="753" on="0"/>
      </contour>
    </TTGlyph>
    <TTGlyph name="P" xMin="101" yMin="0" xMax="555" yMax="679">
      <contour>
        <pt x="140" y="679" on="1"/>
        <pt x="322" y="679" on="1"/>
        <pt x="425" y="679" on="0"/>
        <pt x="555" y="580" on="0"/>
        <pt x="555" y="365" on="0"/>
        <pt x="425" y="264" on="0"/>
        <pt x="322" y="264" on="1"/>
        <pt x="188" y="264" on="1"/>
        <pt x="188" y="38" on="1"/>
        <pt x="188" y="0" on="0"/>
        <pt x="149" y="0" on="1"/>
        <pt x="140" y="0" on="1"/>
        <pt x="101" y="0" on="0"/>
        <pt x="101" y="38" on="1"/>
        <pt x="101" y="640" on="1"/>
        <pt x="101" y="679" on="0"/>
      </contour>
      <contour>
        <pt x="188" y="605" on="1"/>
        <pt x="188" y="339" on="1"/>
        <pt x="323" y="339" on="1"/>
        <pt x="470" y="339" on="0"/>
        <pt x="470" y="605" on="0"/>
        <pt x="323" y="605" on="1"/>
      </contour>
    </TTGlyph>
    <TTGlyph name="Q" xMin="57" yMin="-117" xMax="709" yMax="687">
      <contour>
        <pt x="321" y="687" on="0"/>
        <pt x="445" y="687" on="0"/>
        <pt x="558" y="646" on="0"/>
        <pt x="653" y="565" on="0"/>
        <pt x="709" y="427" on="0"/>
        <pt x="709" y="223" on="0"/>
        <pt x="615" y="67" on="0"/>
        <pt x="538" y="28" on="1"/>
        <pt x="591" y="-35" on="0"/>
        <pt x="667" y="-35" on="1"/>
        <pt x="688" y="-35" on="0"/>
        <pt x="705" y="-31" on="1"/>
        <pt x="705" y="-67" on="0"/>
        <pt x="660" y="-117" on="0"/>
        <pt x="599" y="-117" on="0"/>
        <pt x="557" y="-104" on="0"/>
        <pt x="516" y="-71" on="0"/>
        <pt x="496" y="-53" on="0"/>
        <pt x="451" y="-3" on="0"/>
        <pt x="448" y="0" on="1"/>
        <pt x="414" y="-8" on="0"/>
        <pt x="321" y="-8" on="0"/>
        <pt x="209" y="33" on="0"/>
        <pt x="114" y="113" on="0"/>
        <pt x="57" y="250" on="0"/>
        <pt x="57" y="427" on="0"/>
        <pt x="114" y="565" on="0"/>
        <pt x="209" y="646" on="0"/>
      </contour>
      <contour>
        <pt x="482" y="609" on="0"/>
        <pt x="284" y="609" on="0"/>
        <pt x="144" y="470" on="0"/>
        <pt x="144" y="209" on="0"/>
        <pt x="285" y="69" on="0"/>
        <pt x="482" y="69" on="0"/>
        <pt x="622" y="209" on="0"/>
        <pt x="622" y="470" on="0"/>
      </contour>
    </TTGlyph>
    <TTGlyph name="R" xMin="101" yMin="-9" xMax="599" yMax="680">
      <contour>
        <pt x="185" y="604" on="1"/>
        <pt x="185" y="367" on="1"/>
        <pt x="325" y="367" on="1"/>
        <pt x="387" y="367" on="0"/>
        <pt x="464" y="429" on="0"/>
        <pt x="464" y="544" on="0"/>
        <pt x="391" y="604" on="0"/>
        <pt x="325" y="604" on="1"/>
      </contour>
      <contour>
        <pt x="328" y="679" on="1"/>
        <pt x="386" y="679" on="0"/>
        <pt x="480" y="646" on="0"/>
        <pt x="548" y="554" on="0"/>
        <pt x="548" y="405" on="0"/>
        <pt x="438" y="305" on="0"/>
        <pt x="359" y="299" on="1"/>
        <pt x="394" y="233" on="0"/>
        <pt x="535" y="67" on="0"/>
        <pt x="599" y="23" on="1"/>
        <pt x="579" y="-9" on="0"/>
        <pt x="515" y="-9" on="0"/>
        <pt x="454" y="33" on="0"/>
        <pt x="404" y="89" on="0"/>
        <pt x="372" y="136" on="1"/>
        <pt x="338" y="186" on="0"/>
        <pt x="277" y="295" on="1"/>
        <pt x="185" y="295" on="1"/>
        <pt x="185" y="37" on="1"/>
        <pt x="185" y="0" on="0"/>
        <pt x="145" y="0" on="1"/>
        <pt x="140" y="0" on="1"/>
        <pt x="101" y="0" on="0"/>
        <pt x="101" y="37" on="1"/>
        <pt x="101" y="640" on="1"/>
        <pt x="101" y="678" on="0"/>
        <pt x="140" y="678" on="1"/>
        <pt x="321" y="679" on="1"/>
        <pt x="324" y="679" on="0"/>
      </contour>
    </TTGlyph>
    <TTGlyph name="Racute" xMin="101" yMin="-9" xMax="599" yMax="895">
      <contour>
        <pt x="185" y="604" on="1"/>
        <pt x="185" y="367" on="1"/>
        <pt x="325" y="367" on="1"/>
        <pt x="387" y="367" on="0"/>
        <pt x="464" y="429" on="0"/>
        <pt x="464" y="544" on="0"/>
        <pt x="391" y="604" on="0"/>
        <pt x="325" y="604" on="1"/>
      </contour>
      <contour>
        <pt x="548" y="482" on="1"/>
        <pt x="548" y="405" on="0"/>
        <pt x="438" y="305" on="0"/>
        <pt x="359" y="299" on="1"/>
        <pt x="394" y="233" on="0"/>
        <pt x="535" y="67" on="0"/>
        <pt x="599" y="23" on="1"/>
        <pt x="579" y="-9" on="0"/>
        <pt x="515" y="-9" on="0"/>
        <pt x="454" y="33" on="0"/>
        <pt x="404" y="89" on="0"/>
        <pt x="372" y="136" on="1"/>
        <pt x="338" y="186" on="0"/>
        <pt x="277" y="295" on="1"/>
        <pt x="185" y="295" on="1"/>
        <pt x="185" y="37" on="1"/>
        <pt x="185" y="0" on="0"/>
        <pt x="145" y="0" on="1"/>
        <pt x="140" y="0" on="1"/>
        <pt x="101" y="0" on="0"/>
        <pt x="101" y="37" on="1"/>
        <pt x="101" y="640" on="1"/>
        <pt x="101" y="678" on="0"/>
        <pt x="140" y="678" on="1"/>
        <pt x="321" y="679" on="1"/>
        <pt x="419" y="679" on="0"/>
        <pt x="548" y="587" on="0"/>
      </contour>
      <contour>
        <pt x="209" y="733" on="1"/>
        <pt x="193" y="733" on="0"/>
        <pt x="193" y="748" on="1"/>
        <pt x="193" y="757" on="1"/>
        <pt x="193" y="772" on="0"/>
        <pt x="211" y="784" on="1"/>
        <pt x="391" y="891" on="1"/>
        <pt x="396" y="895" on="0"/>
        <pt x="407" y="895" on="1"/>
        <pt x="425" y="895" on="0"/>
        <pt x="425" y="877" on="1"/>
        <pt x="425" y="850" on="1"/>
        <pt x="425" y="826" on="0"/>
        <pt x="403" y="817" on="1"/>
        <pt x="222" y="736" on="1"/>
        <pt x="216" y="733" on="0"/>
      </contour>
    </TTGlyph>
    <TTGlyph name="Rcaron" xMin="101" yMin="-9" xMax="599" yMax="869">
      <contour>
        <pt x="185" y="604" on="1"/>
        <pt x="185" y="367" on="1"/>
        <pt x="325" y="367" on="1"/>
        <pt x="387" y="367" on="0"/>
        <pt x="464" y="429" on="0"/>
        <pt x="464" y="544" on="0"/>
        <pt x="391" y="604" on="0"/>
        <pt x="325" y="604" on="1"/>
      </contour>
      <contour>
        <pt x="548" y="482" on="1"/>
        <pt x="548" y="405" on="0"/>
        <pt x="438" y="305" on="0"/>
        <pt x="359" y="299" on="1"/>
        <pt x="394" y="233" on="0"/>
        <pt x="535" y="67" on="0"/>
        <pt x="599" y="23" on="1"/>
        <pt x="579" y="-9" on="0"/>
        <pt x="515" y="-9" on="0"/>
        <pt x="454" y="33" on="0"/>
        <pt x="404" y="89" on="0"/>
        <pt x="372" y="136" on="1"/>
        <pt x="338" y="186" on="0"/>
        <pt x="277" y="295" on="1"/>
        <pt x="185" y="295" on="1"/>
        <pt x="185" y="37" on="1"/>
        <pt x="185" y="0" on="0"/>
        <pt x="145" y="0" on="1"/>
        <pt x="140" y="0" on="1"/>
        <pt x="101" y="0" on="0"/>
        <pt x="101" y="37" on="1"/>
        <pt x="101" y="640" on="1"/>
        <pt x="101" y="678" on="0"/>
        <pt x="140" y="678" on="1"/>
        <pt x="321" y="679" on="1"/>
        <pt x="419" y="679" on="0"/>
        <pt x="548" y="587" on="0"/>
      </contour>
      <contour>
        <pt x="194" y="869" on="1"/>
        <pt x="208" y="869" on="0"/>
        <pt x="222" y="860" on="1"/>
        <pt x="308" y="807" on="1"/>
        <pt x="394" y="860" on="1"/>
        <pt x="408" y="869" on="0"/>
        <pt x="422" y="869" on="1"/>
        <pt x="452" y="869" on="0"/>
        <pt x="452" y="845" on="1"/>
        <pt x="452" y="833" on="0"/>
        <pt x="430" y="818" on="1"/>
        <pt x="341" y="755" on="1"/>
        <pt x="327" y="745" on="0"/>
        <pt x="291" y="745" on="0"/>
        <pt x="275" y="756" on="1"/>
        <pt x="186" y="818" on="1"/>
        <pt x="164" y="833" on="0"/>
        <pt x="164" y="845" on="1"/>
        <pt x="164" y="869" on="0"/>
      </contour>
    </TTGlyph>
    <TTGlyph name="Rcommaaccent" xMin="101" yMin="-257" xMax="599" yMax="679">
      <contour>
        <pt x="185" y="604" on="1"/>
        <pt x="185" y="367" on="1"/>
        <pt x="325" y="367" on="1"/>
        <pt x="387" y="367" on="0"/>
        <pt x="464" y="429" on="0"/>
        <pt x="464" y="544" on="0"/>
        <pt x="391" y="604" on="0"/>
        <pt x="325" y="604" on="1"/>
      </contour>
      <contour>
        <pt x="548" y="482" on="1"/>
        <pt x="548" y="405" on="0"/>
        <pt x="438" y="305" on="0"/>
        <pt x="359" y="299" on="1"/>
        <pt x="394" y="233" on="0"/>
        <pt x="535" y="67" on="0"/>
        <pt x="599" y="23" on="1"/>
        <pt x="579" y="-9" on="0"/>
        <pt x="515" y="-9" on="0"/>
        <pt x="454" y="33" on="0"/>
        <pt x="404" y="89" on="0"/>
        <pt x="372" y="136" on="1"/>
        <pt x="338" y="186" on="0"/>
        <pt x="277" y="295" on="1"/>
        <pt x="185" y="295" on="1"/>
        <pt x="185" y="37" on="1"/>
        <pt x="185" y="0" on="0"/>
        <pt x="145" y="0" on="1"/>
        <pt x="140" y="0" on="1"/>
        <pt x="101" y="0" on="0"/>
        <pt x="101" y="37" on="1"/>
        <pt x="101" y="640" on="1"/>
        <pt x="101" y="678" on="0"/>
        <pt x="140" y="678" on="1"/>
        <pt x="321" y="679" on="1"/>
        <pt x="419" y="679" on="0"/>
        <pt x="548" y="587" on="0"/>
      </contour>
      <contour>
        <pt x="277" y="-135" on="0"/>
        <pt x="251" y="-103" on="0"/>
        <pt x="251" y="-54" on="0"/>
        <pt x="289" y="-18" on="0"/>
        <pt x="346" y="-18" on="0"/>
        <pt x="389" y="-63" on="0"/>
        <pt x="389" y="-102" on="1"/>
        <pt x="389" y="-166" on="0"/>
        <pt x="323" y="-257" on="0"/>
        <pt x="277" y="-257" on="1"/>
        <pt x="244" y="-257" on="0"/>
        <pt x="244" y="-233" on="1"/>
        <pt x="277" y="-225" on="0"/>
        <pt x="320" y="-170" on="0"/>
        <pt x="320" y="-131" on="1"/>
        <pt x="312" y="-135" on="0"/>
      </contour>
    </TTGlyph>
    <TTGlyph name="S" xMin="57" yMin="-8" xMax="538" yMax="686">
      <contour>
        <pt x="61" y="578" on="0"/>
        <pt x="197" y="686" on="0"/>
        <pt x="396" y="686" on="0"/>
        <pt x="502" y="637" on="0"/>
        <pt x="502" y="565" on="0"/>
        <pt x="458" y="556" on="1"/>
        <pt x="420" y="613" on="0"/>
        <pt x="305" y="613" on="1"/>
        <pt x="237" y="613" on="0"/>
        <pt x="151" y="550" on="0"/>
        <pt x="151" y="460" on="0"/>
        <pt x="221" y="412" on="0"/>
        <pt x="356" y="377" on="0"/>
        <pt x="429" y="349" on="0"/>
        <pt x="466" y="326" on="1"/>
        <pt x="538" y="282" on="0"/>
        <pt x="538" y="105" on="0"/>
        <pt x="394" y="-8" on="0"/>
        <pt x="178" y="-8" on="0"/>
        <pt x="57" y="49" on="0"/>
        <pt x="57" y="128" on="0"/>
        <pt x="108" y="141" on="1"/>
        <pt x="145" y="66" on="0"/>
        <pt x="275" y="66" on="1"/>
        <pt x="358" y="66" on="0"/>
        <pt x="451" y="133" on="0"/>
        <pt x="451" y="238" on="0"/>
        <pt x="358" y="294" on="0"/>
        <pt x="161" y="343" on="0"/>
        <pt x="61" y="427" on="0"/>
      </contour>
    </TTGlyph>
    <TTGlyph name="Sacute" xMin="57" yMin="-8" xMax="538" yMax="895">
      <contour>
        <pt x="61" y="578" on="0"/>
        <pt x="197" y="686" on="0"/>
        <pt x="396" y="686" on="0"/>
        <pt x="502" y="637" on="0"/>
        <pt x="502" y="565" on="0"/>
        <pt x="458" y="556" on="1"/>
        <pt x="420" y="613" on="0"/>
        <pt x="305" y="613" on="1"/>
        <pt x="237" y="613" on="0"/>
        <pt x="151" y="550" on="0"/>
        <pt x="151" y="460" on="0"/>
        <pt x="221" y="412" on="0"/>
        <pt x="356" y="377" on="0"/>
        <pt x="429" y="349" on="0"/>
        <pt x="466" y="326" on="1"/>
        <pt x="538" y="282" on="0"/>
        <pt x="538" y="105" on="0"/>
        <pt x="394" y="-8" on="0"/>
        <pt x="178" y="-8" on="0"/>
        <pt x="57" y="49" on="0"/>
        <pt x="57" y="128" on="0"/>
        <pt x="108" y="141" on="1"/>
        <pt x="145" y="66" on="0"/>
        <pt x="275" y="66" on="1"/>
        <pt x="358" y="66" on="0"/>
        <pt x="451" y="133" on="0"/>
        <pt x="451" y="238" on="0"/>
        <pt x="358" y="294" on="0"/>
        <pt x="161" y="343" on="0"/>
        <pt x="61" y="427" on="0"/>
      </contour>
      <contour>
        <pt x="195" y="733" on="1"/>
        <pt x="179" y="733" on="0"/>
        <pt x="179" y="748" on="1"/>
        <pt x="179" y="757" on="1"/>
        <pt x="179" y="772" on="0"/>
        <pt x="197" y="784" on="1"/>
        <pt x="377" y="891" on="1"/>
        <pt x="382" y="895" on="0"/>
        <pt x="393" y="895" on="1"/>
        <pt x="411" y="895" on="0"/>
        <pt x="411" y="877" on="1"/>
        <pt x="411" y="850" on="1"/>
        <pt x="411" y="826" on="0"/>
        <pt x="389" y="817" on="1"/>
        <pt x="208" y="736" on="1"/>
        <pt x="202" y="733" on="0"/>
      </contour>
    </TTGlyph>
    <TTGlyph name="Scaron" xMin="57" yMin="-8" xMax="538" yMax="869">
      <contour>
        <pt x="61" y="578" on="0"/>
        <pt x="197" y="686" on="0"/>
        <pt x="396" y="686" on="0"/>
        <pt x="502" y="637" on="0"/>
        <pt x="502" y="565" on="0"/>
        <pt x="458" y="556" on="1"/>
        <pt x="420" y="613" on="0"/>
        <pt x="305" y="613" on="1"/>
        <pt x="237" y="613" on="0"/>
        <pt x="151" y="550" on="0"/>
        <pt x="151" y="460" on="0"/>
        <pt x="221" y="412" on="0"/>
        <pt x="356" y="377" on="0"/>
        <pt x="429" y="349" on="0"/>
        <pt x="466" y="326" on="1"/>
        <pt x="538" y="282" on="0"/>
        <pt x="538" y="105" on="0"/>
        <pt x="394" y="-8" on="0"/>
        <pt x="178" y="-8" on="0"/>
        <pt x="57" y="49" on="0"/>
        <pt x="57" y="128" on="0"/>
        <pt x="108" y="141" on="1"/>
        <pt x="145" y="66" on="0"/>
        <pt x="275" y="66" on="1"/>
        <pt x="358" y="66" on="0"/>
        <pt x="451" y="133" on="0"/>
        <pt x="451" y="238" on="0"/>
        <pt x="358" y="294" on="0"/>
        <pt x="161" y="343" on="0"/>
        <pt x="61" y="427" on="0"/>
      </contour>
      <contour>
        <pt x="179" y="869" on="1"/>
        <pt x="193" y="869" on="0"/>
        <pt x="207" y="860" on="1"/>
        <pt x="293" y="807" on="1"/>
        <pt x="379" y="860" on="1"/>
        <pt x="393" y="869" on="0"/>
        <pt x="407" y="869" on="1"/>
        <pt x="437" y="869" on="0"/>
        <pt x="437" y="845" on="1"/>
        <pt x="437" y="833" on="0"/>
        <pt x="415" y="818" on="1"/>
        <pt x="326" y="755" on="1"/>
        <pt x="312" y="745" on="0"/>
        <pt x="276" y="745" on="0"/>
        <pt x="260" y="756" on="1"/>
        <pt x="171" y="818" on="1"/>
        <pt x="149" y="833" on="0"/>
        <pt x="149" y="845" on="1"/>
        <pt x="149" y="869" on="0"/>
      </contour>
    </TTGlyph>
    <TTGlyph name="Scedilla" xMin="57" yMin="-157" xMax="538" yMax="686">
      <contour>
        <pt x="61" y="578" on="0"/>
        <pt x="197" y="686" on="0"/>
        <pt x="396" y="686" on="0"/>
        <pt x="502" y="637" on="0"/>
        <pt x="502" y="565" on="0"/>
        <pt x="458" y="556" on="1"/>
        <pt x="420" y="613" on="0"/>
        <pt x="305" y="613" on="1"/>
        <pt x="237" y="613" on="0"/>
        <pt x="151" y="550" on="0"/>
        <pt x="151" y="460" on="0"/>
        <pt x="221" y="412" on="0"/>
        <pt x="356" y="377" on="0"/>
        <pt x="429" y="349" on="0"/>
        <pt x="466" y="326" on="1"/>
        <pt x="538" y="282" on="0"/>
        <pt x="538" y="105" on="0"/>
        <pt x="394" y="-8" on="0"/>
        <pt x="178" y="-8" on="0"/>
        <pt x="57" y="49" on="0"/>
        <pt x="57" y="128" on="0"/>
        <pt x="108" y="141" on="1"/>
        <pt x="145" y="66" on="0"/>
        <pt x="275" y="66" on="1"/>
        <pt x="358" y="66" on="0"/>
        <pt x="451" y="133" on="0"/>
        <pt x="451" y="238" on="0"/>
        <pt x="358" y="294" on="0"/>
        <pt x="161" y="343" on="0"/>
        <pt x="61" y="427" on="0"/>
      </contour>
      <contour>
        <pt x="312" y="-28" on="1"/>
        <pt x="343" y="-28" on="0"/>
        <pt x="382" y="-57" on="0"/>
        <pt x="382" y="-119" on="0"/>
        <pt x="325" y="-157" on="0"/>
        <pt x="288" y="-157" on="1"/>
        <pt x="215" y="-157" on="0"/>
        <pt x="215" y="-113" on="1"/>
        <pt x="215" y="-99" on="0"/>
        <pt x="233" y="-80" on="0"/>
        <pt x="247" y="-80" on="1"/>
        <pt x="247" y="-105" on="0"/>
        <pt x="291" y="-105" on="1"/>
        <pt x="308" y="-105" on="0"/>
        <pt x="330" y="-91" on="0"/>
        <pt x="330" y="-79" on="1"/>
        <pt x="330" y="-57" on="0"/>
        <pt x="295" y="-57" on="1"/>
        <pt x="273" y="-57" on="1"/>
        <pt x="250" y="-57" on="0"/>
        <pt x="250" y="-37" on="1"/>
        <pt x="250" y="-32" on="0"/>
        <pt x="253" y="-24" on="1"/>
        <pt x="268" y="14" on="1"/>
        <pt x="312" y="14" on="1"/>
        <pt x="299" y="-28" on="1"/>
      </contour>
    </TTGlyph>
    <TTGlyph name="Scircumflex" xMin="57" yMin="-8" xMax="538" yMax="869">
      <contour>
        <pt x="61" y="578" on="0"/>
        <pt x="197" y="686" on="0"/>
        <pt x="396" y="686" on="0"/>
        <pt x="502" y="637" on="0"/>
        <pt x="502" y="565" on="0"/>
        <pt x="458" y="556" on="1"/>
        <pt x="420" y="613" on="0"/>
        <pt x="305" y="613" on="1"/>
        <pt x="237" y="613" on="0"/>
        <pt x="151" y="550" on="0"/>
        <pt x="151" y="460" on="0"/>
        <pt x="221" y="412" on="0"/>
        <pt x="356" y="377" on="0"/>
        <pt x="429" y="349" on="0"/>
        <pt x="466" y="326" on="1"/>
        <pt x="538" y="282" on="0"/>
        <pt x="538" y="105" on="0"/>
        <pt x="394" y="-8" on="0"/>
        <pt x="178" y="-8" on="0"/>
        <pt x="57" y="49" on="0"/>
        <pt x="57" y="128" on="0"/>
        <pt x="108" y="141" on="1"/>
        <pt x="145" y="66" on="0"/>
        <pt x="275" y="66" on="1"/>
        <pt x="358" y="66" on="0"/>
        <pt x="451" y="133" on="0"/>
        <pt x="451" y="238" on="0"/>
        <pt x="358" y="294" on="0"/>
        <pt x="161" y="343" on="0"/>
        <pt x="61" y="427" on="0"/>
      </contour>
      <contour>
        <pt x="179" y="745" on="1"/>
        <pt x="149" y="745" on="0"/>
        <pt x="149" y="769" on="1"/>
        <pt x="149" y="781" on="0"/>
        <pt x="171" y="796" on="1"/>
        <pt x="260" y="859" on="1"/>
        <pt x="274" y="869" on="0"/>
        <pt x="310" y="869" on="0"/>
        <pt x="326" y="858" on="1"/>
        <pt x="415" y="796" on="1"/>
        <pt x="437" y="781" on="0"/>
        <pt x="437" y="769" on="1"/>
        <pt x="437" y="745" on="0"/>
        <pt x="407" y="745" on="1"/>
        <pt x="393" y="745" on="0"/>
        <pt x="379" y="754" on="1"/>
        <pt x="293" y="807" on="1"/>
        <pt x="207" y="754" on="1"/>
        <pt x="193" y="745" on="0"/>
      </contour>
    </TTGlyph>
    <TTGlyph name="Scommaaccent" xMin="57" yMin="-267" xMax="538" yMax="686">
      <contour>
        <pt x="61" y="578" on="0"/>
        <pt x="197" y="686" on="0"/>
        <pt x="396" y="686" on="0"/>
        <pt x="502" y="637" on="0"/>
        <pt x="502" y="565" on="0"/>
        <pt x="458" y="556" on="1"/>
        <pt x="420" y="613" on="0"/>
        <pt x="305" y="613" on="1"/>
        <pt x="237" y="613" on="0"/>
        <pt x="151" y="550" on="0"/>
        <pt x="151" y="460" on="0"/>
        <pt x="221" y="412" on="0"/>
        <pt x="356" y="377" on="0"/>
        <pt x="429" y="349" on="0"/>
        <pt x="466" y="326" on="1"/>
        <pt x="538" y="282" on="0"/>
        <pt x="538" y="105" on="0"/>
        <pt x="394" y="-8" on="0"/>
        <pt x="178" y="-8" on="0"/>
        <pt x="57" y="49" on="0"/>
        <pt x="57" y="128" on="0"/>
        <pt x="108" y="141" on="1"/>
        <pt x="145" y="66" on="0"/>
        <pt x="275" y="66" on="1"/>
        <pt x="358" y="66" on="0"/>
        <pt x="451" y="133" on="0"/>
        <pt x="451" y="238" on="0"/>
        <pt x="358" y="294" on="0"/>
        <pt x="161" y="343" on="0"/>
        <pt x="61" y="427" on="0"/>
      </contour>
      <contour>
        <pt x="244" y="-145" on="0"/>
        <pt x="218" y="-113" on="0"/>
        <pt x="218" y="-64" on="0"/>
        <pt x="256" y="-28" on="0"/>
        <pt x="313" y="-28" on="0"/>
        <pt x="356" y="-73" on="0"/>
        <pt x="356" y="-112" on="1"/>
        <pt x="356" y="-176" on="0"/>
        <pt x="290" y="-267" on="0"/>
        <pt x="244" y="-267" on="1"/>
        <pt x="211" y="-267" on="0"/>
        <pt x="211" y="-243" on="1"/>
        <pt x="244" y="-235" on="0"/>
        <pt x="287" y="-180" on="0"/>
        <pt x="287" y="-141" on="1"/>
        <pt x="279" y="-145" on="0"/>
      </contour>
    </TTGlyph>
    <TTGlyph name="T" xMin="33" yMin="0" xMax="535" yMax="679">
      <contour>
        <pt x="71" y="679" on="1"/>
        <pt x="497" y="679" on="1"/>
        <pt x="535" y="679" on="0"/>
        <pt x="535" y="604" on="0"/>
        <pt x="497" y="604" on="1"/>
        <pt x="327" y="604" on="1"/>
        <pt x="327" y="38" on="1"/>
        <pt x="327" y="0" on="0"/>
        <pt x="288" y="0" on="1"/>
        <pt x="279" y="0" on="1"/>
        <pt x="240" y="0" on="0"/>
        <pt x="240" y="38" on="1"/>
        <pt x="240" y="604" on="1"/>
        <pt x="71" y="604" on="1"/>
        <pt x="33" y="604" on="0"/>
        <pt x="33" y="679" on="0"/>
      </contour>
    </TTGlyph>
    <TTGlyph name="Tbar" xMin="33" yMin="0" xMax="535" yMax="679">
      <contour>
        <pt x="127" y="424" on="1"/>
        <pt x="444" y="424" on="1"/>
        <pt x="465" y="424" on="0"/>
        <pt x="483" y="406" on="0"/>
        <pt x="483" y="385" on="1"/>
        <pt x="480" y="348" on="0"/>
        <pt x="444" y="348" on="1"/>
        <pt x="127" y="348" on="1"/>
        <pt x="88" y="348" on="0"/>
        <pt x="88" y="385" on="1"/>
        <pt x="88" y="424" on="0"/>
      </contour>
      <contour>
        <pt x="71" y="679" on="1"/>
        <pt x="497" y="679" on="1"/>
        <pt x="535" y="679" on="0"/>
        <pt x="535" y="604" on="0"/>
        <pt x="497" y="604" on="1"/>
        <pt x="327" y="604" on="1"/>
        <pt x="327" y="38" on="1"/>
        <pt x="327" y="0" on="0"/>
        <pt x="288" y="0" on="1"/>
        <pt x="279" y="0" on="1"/>
        <pt x="240" y="0" on="0"/>
        <pt x="240" y="38" on="1"/>
        <pt x="240" y="604" on="1"/>
        <pt x="71" y="604" on="1"/>
        <pt x="33" y="604" on="0"/>
        <pt x="33" y="679" on="0"/>
      </contour>
    </TTGlyph>
    <TTGlyph name="Tcaron" xMin="33" yMin="0" xMax="535" yMax="869">
      <contour>
        <pt x="71" y="679" on="1"/>
        <pt x="497" y="679" on="1"/>
        <pt x="535" y="679" on="0"/>
        <pt x="535" y="604" on="0"/>
        <pt x="497" y="604" on="1"/>
        <pt x="327" y="604" on="1"/>
        <pt x="327" y="38" on="1"/>
        <pt x="327" y="0" on="0"/>
        <pt x="288" y="0" on="1"/>
        <pt x="279" y="0" on="1"/>
        <pt x="240" y="0" on="0"/>
        <pt x="240" y="38" on="1"/>
        <pt x="240" y="604" on="1"/>
        <pt x="71" y="604" on="1"/>
        <pt x="33" y="604" on="0"/>
        <pt x="33" y="679" on="0"/>
      </contour>
      <contour>
        <pt x="165" y="869" on="1"/>
        <pt x="179" y="869" on="0"/>
        <pt x="193" y="860" on="1"/>
        <pt x="279" y="807" on="1"/>
        <pt x="365" y="860" on="1"/>
        <pt x="379" y="869" on="0"/>
        <pt x="393" y="869" on="1"/>
        <pt x="423" y="869" on="0"/>
        <pt x="423" y="845" on="1"/>
        <pt x="423" y="833" on="0"/>
        <pt x="401" y="818" on="1"/>
        <pt x="312" y="755" on="1"/>
        <pt x="298" y="745" on="0"/>
        <pt x="262" y="745" on="0"/>
        <pt x="246" y="756" on="1"/>
        <pt x="157" y="818" on="1"/>
        <pt x="135" y="833" on="0"/>
        <pt x="135" y="845" on="1"/>
        <pt x="135" y="869" on="0"/>
      </contour>
    </TTGlyph>
    <TTGlyph name="Tcommaaccent" xMin="33" yMin="-267" xMax="535" yMax="679">
      <contour>
        <pt x="71" y="679" on="1"/>
        <pt x="497" y="679" on="1"/>
        <pt x="535" y="679" on="0"/>
        <pt x="535" y="604" on="0"/>
        <pt x="497" y="604" on="1"/>
        <pt x="327" y="604" on="1"/>
        <pt x="327" y="38" on="1"/>
        <pt x="327" y="0" on="0"/>
        <pt x="288" y="0" on="1"/>
        <pt x="279" y="0" on="1"/>
        <pt x="240" y="0" on="0"/>
        <pt x="240" y="38" on="1"/>
        <pt x="240" y="604" on="1"/>
        <pt x="71" y="604" on="1"/>
        <pt x="33" y="604" on="0"/>
        <pt x="33" y="679" on="0"/>
      </contour>
      <contour>
        <pt x="244" y="-145" on="0"/>
        <pt x="218" y="-113" on="0"/>
        <pt x="218" y="-64" on="0"/>
        <pt x="256" y="-28" on="0"/>
        <pt x="313" y="-28" on="0"/>
        <pt x="356" y="-73" on="0"/>
        <pt x="356" y="-112" on="1"/>
        <pt x="356" y="-176" on="0"/>
        <pt x="290" y="-267" on="0"/>
        <pt x="244" y="-267" on="1"/>
        <pt x="211" y="-267" on="0"/>
        <pt x="211" y="-243" on="1"/>
        <pt x="244" y="-235" on="0"/>
        <pt x="287" y="-180" on="0"/>
        <pt x="287" y="-141" on="1"/>
        <pt x="279" y="-145" on="0"/>
      </contour>
    </TTGlyph>
    <TTGlyph name="U" xMin="97" yMin="-8" xMax="643" yMax="679">
      <contour>
        <pt x="136" y="679" on="1"/>
        <pt x="146" y="679" on="1"/>
        <pt x="185" y="679" on="0"/>
        <pt x="185" y="640" on="1"/>
        <pt x="185" y="284" on="1"/>
        <pt x="185" y="66" on="0"/>
        <pt x="555" y="66" on="0"/>
        <pt x="555" y="284" on="1"/>
        <pt x="555" y="640" on="1"/>
        <pt x="555" y="679" on="0"/>
        <pt x="594" y="679" on="1"/>
        <pt x="602" y="679" on="1"/>
        <pt x="643" y="679" on="0"/>
        <pt x="643" y="640" on="1"/>
        <pt x="643" y="288" on="1"/>
        <pt x="643" y="200" on="0"/>
        <pt x="614" y="130" on="1"/>
        <pt x="596" y="89" on="0"/>
        <pt x="538" y="30" on="0"/>
        <pt x="437" y="-8" on="0"/>
        <pt x="303" y="-8" on="0"/>
        <pt x="202" y="30" on="0"/>
        <pt x="144" y="89" on="0"/>
        <pt x="126" y="130" on="1"/>
        <pt x="97" y="200" on="0"/>
        <pt x="97" y="288" on="1"/>
        <pt x="97" y="640" on="1"/>
        <pt x="97" y="679" on="0"/>
      </contour>
    </TTGlyph>
    <TTGlyph name="Uacute" xMin="97" yMin="-8" xMax="643" yMax="895">
      <contour>
        <pt x="136" y="679" on="1"/>
        <pt x="146" y="679" on="1"/>
        <pt x="185" y="679" on="0"/>
        <pt x="185" y="640" on="1"/>
        <pt x="185" y="284" on="1"/>
        <pt x="185" y="66" on="0"/>
        <pt x="555" y="66" on="0"/>
        <pt x="555" y="284" on="1"/>
        <pt x="555" y="640" on="1"/>
        <pt x="555" y="679" on="0"/>
        <pt x="594" y="679" on="1"/>
        <pt x="602" y="679" on="1"/>
        <pt x="643" y="679" on="0"/>
        <pt x="643" y="640" on="1"/>
        <pt x="643" y="288" on="1"/>
        <pt x="643" y="200" on="0"/>
        <pt x="614" y="130" on="1"/>
        <pt x="596" y="89" on="0"/>
        <pt x="538" y="30" on="0"/>
        <pt x="437" y="-8" on="0"/>
        <pt x="303" y="-8" on="0"/>
        <pt x="202" y="30" on="0"/>
        <pt x="144" y="89" on="0"/>
        <pt x="126" y="130" on="1"/>
        <pt x="97" y="200" on="0"/>
        <pt x="97" y="288" on="1"/>
        <pt x="97" y="640" on="1"/>
        <pt x="97" y="679" on="0"/>
      </contour>
      <contour>
        <pt x="272" y="733" on="1"/>
        <pt x="256" y="733" on="0"/>
        <pt x="256" y="748" on="1"/>
        <pt x="256" y="757" on="1"/>
        <pt x="256" y="772" on="0"/>
        <pt x="274" y="784" on="1"/>
        <pt x="454" y="891" on="1"/>
        <pt x="459" y="895" on="0"/>
        <pt x="470" y="895" on="1"/>
        <pt x="488" y="895" on="0"/>
        <pt x="488" y="877" on="1"/>
        <pt x="488" y="850" on="1"/>
        <pt x="488" y="826" on="0"/>
        <pt x="466" y="817" on="1"/>
        <pt x="285" y="736" on="1"/>
        <pt x="279" y="733" on="0"/>
      </contour>
    </TTGlyph>
    <TTGlyph name="Ubreve" xMin="97" yMin="-8" xMax="643" yMax="859">
      <contour>
        <pt x="136" y="679" on="1"/>
        <pt x="146" y="679" on="1"/>
        <pt x="185" y="679" on="0"/>
        <pt x="185" y="640" on="1"/>
        <pt x="185" y="284" on="1"/>
        <pt x="185" y="66" on="0"/>
        <pt x="555" y="66" on="0"/>
        <pt x="555" y="284" on="1"/>
        <pt x="555" y="640" on="1"/>
        <pt x="555" y="679" on="0"/>
        <pt x="594" y="679" on="1"/>
        <pt x="602" y="679" on="1"/>
        <pt x="643" y="679" on="0"/>
        <pt x="643" y="640" on="1"/>
        <pt x="643" y="288" on="1"/>
        <pt x="643" y="200" on="0"/>
        <pt x="614" y="130" on="1"/>
        <pt x="596" y="89" on="0"/>
        <pt x="538" y="30" on="0"/>
        <pt x="437" y="-8" on="0"/>
        <pt x="303" y="-8" on="0"/>
        <pt x="202" y="30" on="0"/>
        <pt x="144" y="89" on="0"/>
        <pt x="126" y="130" on="1"/>
        <pt x="97" y="200" on="0"/>
        <pt x="97" y="288" on="1"/>
        <pt x="97" y="640" on="1"/>
        <pt x="97" y="679" on="0"/>
      </contour>
      <contour>
        <pt x="300" y="829" on="0"/>
        <pt x="344" y="799" on="0"/>
        <pt x="394" y="799" on="0"/>
        <pt x="438" y="829" on="0"/>
        <pt x="471" y="859" on="0"/>
        <pt x="481" y="859" on="1"/>
        <pt x="506" y="859" on="0"/>
        <pt x="506" y="803" on="0"/>
        <pt x="423" y="745" on="0"/>
        <pt x="317" y="745" on="0"/>
        <pt x="233" y="804" on="0"/>
        <pt x="233" y="835" on="1"/>
        <pt x="233" y="846" on="0"/>
        <pt x="248" y="859" on="0"/>
        <pt x="269" y="859" on="0"/>
      </contour>
    </TTGlyph>
    <TTGlyph name="Ucircumflex" xMin="97" yMin="-8" xMax="643" yMax="869">
      <contour>
        <pt x="136" y="679" on="1"/>
        <pt x="146" y="679" on="1"/>
        <pt x="185" y="679" on="0"/>
        <pt x="185" y="640" on="1"/>
        <pt x="185" y="284" on="1"/>
        <pt x="185" y="66" on="0"/>
        <pt x="555" y="66" on="0"/>
        <pt x="555" y="284" on="1"/>
        <pt x="555" y="640" on="1"/>
        <pt x="555" y="679" on="0"/>
        <pt x="594" y="679" on="1"/>
        <pt x="602" y="679" on="1"/>
        <pt x="643" y="679" on="0"/>
        <pt x="643" y="640" on="1"/>
        <pt x="643" y="288" on="1"/>
        <pt x="643" y="200" on="0"/>
        <pt x="614" y="130" on="1"/>
        <pt x="596" y="89" on="0"/>
        <pt x="538" y="30" on="0"/>
        <pt x="437" y="-8" on="0"/>
        <pt x="303" y="-8" on="0"/>
        <pt x="202" y="30" on="0"/>
        <pt x="144" y="89" on="0"/>
        <pt x="126" y="130" on="1"/>
        <pt x="97" y="200" on="0"/>
        <pt x="97" y="288" on="1"/>
        <pt x="97" y="640" on="1"/>
        <pt x="97" y="679" on="0"/>
      </contour>
      <contour>
        <pt x="257" y="745" on="1"/>
        <pt x="227" y="745" on="0"/>
        <pt x="227" y="769" on="1"/>
        <pt x="227" y="781" on="0"/>
        <pt x="249" y="796" on="1"/>
        <pt x="338" y="859" on="1"/>
        <pt x="352" y="869" on="0"/>
        <pt x="388" y="869" on="0"/>
        <pt x="404" y="858" on="1"/>
        <pt x="493" y="796" on="1"/>
        <pt x="515" y="781" on="0"/>
        <pt x="515" y="769" on="1"/>
        <pt x="515" y="745" on="0"/>
        <pt x="485" y="745" on="1"/>
        <pt x="471" y="745" on="0"/>
        <pt x="457" y="754" on="1"/>
        <pt x="371" y="807" on="1"/>
        <pt x="285" y="754" on="1"/>
        <pt x="271" y="745" on="0"/>
      </contour>
    </TTGlyph>
    <TTGlyph name="Udieresis" xMin="97" yMin="-8" xMax="643" yMax="840">
      <contour>
        <pt x="136" y="679" on="1"/>
        <pt x="146" y="679" on="1"/>
        <pt x="185" y="679" on="0"/>
        <pt x="185" y="640" on="1"/>
        <pt x="185" y="284" on="1"/>
        <pt x="185" y="66" on="0"/>
        <pt x="555" y="66" on="0"/>
        <pt x="555" y="284" on="1"/>
        <pt x="555" y="640" on="1"/>
        <pt x="555" y="679" on="0"/>
        <pt x="594" y="679" on="1"/>
        <pt x="602" y="679" on="1"/>
        <pt x="643" y="679" on="0"/>
        <pt x="643" y="640" on="1"/>
        <pt x="643" y="288" on="1"/>
        <pt x="643" y="200" on="0"/>
        <pt x="614" y="130" on="1"/>
        <pt x="596" y="89" on="0"/>
        <pt x="538" y="30" on="0"/>
        <pt x="437" y="-8" on="0"/>
        <pt x="303" y="-8" on="0"/>
        <pt x="202" y="30" on="0"/>
        <pt x="144" y="89" on="0"/>
        <pt x="126" y="130" on="1"/>
        <pt x="97" y="200" on="0"/>
        <pt x="97" y="288" on="1"/>
        <pt x="97" y="640" on="1"/>
        <pt x="97" y="679" on="0"/>
      </contour>
      <contour>
        <pt x="251" y="750" on="0"/>
        <pt x="224" y="776" on="0"/>
        <pt x="224" y="815" on="0"/>
        <pt x="251" y="840" on="0"/>
        <pt x="289" y="840" on="0"/>
        <pt x="315" y="815" on="0"/>
        <pt x="315" y="776" on="0"/>
        <pt x="289" y="750" on="0"/>
      </contour>
      <contour>
        <pt x="452" y="750" on="0"/>
        <pt x="426" y="776" on="0"/>
        <pt x="426" y="815" on="0"/>
        <pt x="452" y="840" on="0"/>
        <pt x="490" y="840" on="0"/>
        <pt x="516" y="815" on="0"/>
        <pt x="516" y="776" on="0"/>
        <pt x="490" y="750" on="0"/>
      </contour>
    </TTGlyph>
    <TTGlyph name="Ugrave" xMin="97" yMin="-8" xMax="643" yMax="895">
      <contour>
        <pt x="136" y="679" on="1"/>
        <pt x="146" y="679" on="1"/>
        <pt x="185" y="679" on="0"/>
        <pt x="185" y="640" on="1"/>
        <pt x="185" y="284" on="1"/>
        <pt x="185" y="66" on="0"/>
        <pt x="555" y="66" on="0"/>
        <pt x="555" y="284" on="1"/>
        <pt x="555" y="640" on="1"/>
        <pt x="555" y="679" on="0"/>
        <pt x="594" y="679" on="1"/>
        <pt x="602" y="679" on="1"/>
        <pt x="643" y="679" on="0"/>
        <pt x="643" y="640" on="1"/>
        <pt x="643" y="288" on="1"/>
        <pt x="643" y="200" on="0"/>
        <pt x="614" y="130" on="1"/>
        <pt x="596" y="89" on="0"/>
        <pt x="538" y="30" on="0"/>
        <pt x="437" y="-8" on="0"/>
        <pt x="303" y="-8" on="0"/>
        <pt x="202" y="30" on="0"/>
        <pt x="144" y="89" on="0"/>
        <pt x="126" y="130" on="1"/>
        <pt x="97" y="200" on="0"/>
        <pt x="97" y="288" on="1"/>
        <pt x="97" y="640" on="1"/>
        <pt x="97" y="679" on="0"/>
      </contour>
      <contour>
        <pt x="256" y="850" on="1"/>
        <pt x="256" y="877" on="1"/>
        <pt x="256" y="895" on="0"/>
        <pt x="274" y="895" on="1"/>
        <pt x="283" y="895" on="0"/>
        <pt x="290" y="891" on="1"/>
        <pt x="470" y="784" on="1"/>
        <pt x="486" y="774" on="0"/>
        <pt x="488" y="757" on="1"/>
        <pt x="488" y="748" on="1"/>
        <pt x="488" y="733" on="0"/>
        <pt x="471" y="733" on="1"/>
        <pt x="464" y="733" on="0"/>
        <pt x="458" y="736" on="1"/>
        <pt x="276" y="817" on="1"/>
        <pt x="256" y="826" on="0"/>
      </contour>
    </TTGlyph>
    <TTGlyph name="Uhungarumlaut" xMin="97" yMin="-8" xMax="643" yMax="894">
      <contour>
        <pt x="136" y="679" on="1"/>
        <pt x="146" y="679" on="1"/>
        <pt x="185" y="679" on="0"/>
        <pt x="185" y="640" on="1"/>
        <pt x="185" y="284" on="1"/>
        <pt x="185" y="66" on="0"/>
        <pt x="555" y="66" on="0"/>
        <pt x="555" y="284" on="1"/>
        <pt x="555" y="640" on="1"/>
        <pt x="555" y="679" on="0"/>
        <pt x="594" y="679" on="1"/>
        <pt x="602" y="679" on="1"/>
        <pt x="643" y="679" on="0"/>
        <pt x="643" y="640" on="1"/>
        <pt x="643" y="288" on="1"/>
        <pt x="643" y="200" on="0"/>
        <pt x="614" y="130" on="1"/>
        <pt x="596" y="89" on="0"/>
        <pt x="538" y="30" on="0"/>
        <pt x="437" y="-8" on="0"/>
        <pt x="303" y="-8" on="0"/>
        <pt x="202" y="30" on="0"/>
        <pt x="144" y="89" on="0"/>
        <pt x="126" y="130" on="1"/>
        <pt x="97" y="200" on="0"/>
        <pt x="97" y="288" on="1"/>
        <pt x="97" y="640" on="1"/>
        <pt x="97" y="679" on="0"/>
      </contour>
      <contour>
        <pt x="204" y="737" on="1"/>
        <pt x="188" y="737" on="0"/>
        <pt x="188" y="752" on="1"/>
        <pt x="188" y="761" on="1"/>
        <pt x="188" y="776" on="0"/>
        <pt x="206" y="788" on="1"/>
        <pt x="367" y="890" on="1"/>
        <pt x="372" y="894" on="0"/>
        <pt x="383" y="894" on="1"/>
        <pt x="401" y="894" on="0"/>
        <pt x="401" y="876" on="1"/>
        <pt x="401" y="846" on="1"/>
        <pt x="401" y="824" on="0"/>
        <pt x="380" y="813" on="1"/>
        <pt x="217" y="740" on="1"/>
        <pt x="211" y="737" on="0"/>
      </contour>
      <contour>
        <pt x="393" y="737" on="1"/>
        <pt x="376" y="737" on="0"/>
        <pt x="376" y="752" on="1"/>
        <pt x="376" y="761" on="1"/>
        <pt x="376" y="776" on="0"/>
        <pt x="394" y="788" on="1"/>
        <pt x="556" y="890" on="1"/>
        <pt x="561" y="894" on="0"/>
        <pt x="572" y="894" on="1"/>
        <pt x="590" y="894" on="0"/>
        <pt x="590" y="876" on="1"/>
        <pt x="590" y="846" on="1"/>
        <pt x="590" y="825" on="0"/>
        <pt x="569" y="813" on="1"/>
        <pt x="406" y="740" on="1"/>
        <pt x="400" y="737" on="0"/>
      </contour>
    </TTGlyph>
    <TTGlyph name="Umacron" xMin="97" yMin="-8" xMax="643" yMax="827">
      <contour>
        <pt x="136" y="679" on="1"/>
        <pt x="146" y="679" on="1"/>
        <pt x="185" y="679" on="0"/>
        <pt x="185" y="640" on="1"/>
        <pt x="185" y="284" on="1"/>
        <pt x="185" y="66" on="0"/>
        <pt x="555" y="66" on="0"/>
        <pt x="555" y="284" on="1"/>
        <pt x="555" y="640" on="1"/>
        <pt x="555" y="679" on="0"/>
        <pt x="594" y="679" on="1"/>
        <pt x="602" y="679" on="1"/>
        <pt x="643" y="679" on="0"/>
        <pt x="643" y="640" on="1"/>
        <pt x="643" y="288" on="1"/>
        <pt x="643" y="200" on="0"/>
        <pt x="614" y="130" on="1"/>
        <pt x="596" y="89" on="0"/>
        <pt x="538" y="30" on="0"/>
        <pt x="437" y="-8" on="0"/>
        <pt x="303" y="-8" on="0"/>
        <pt x="202" y="30" on="0"/>
        <pt x="144" y="89" on="0"/>
        <pt x="126" y="130" on="1"/>
        <pt x="97" y="200" on="0"/>
        <pt x="97" y="288" on="1"/>
        <pt x="97" y="640" on="1"/>
        <pt x="97" y="679" on="0"/>
      </contour>
      <contour>
        <pt x="236" y="827" on="1"/>
        <pt x="502" y="827" on="1"/>
        <pt x="539" y="827" on="0"/>
        <pt x="539" y="761" on="0"/>
        <pt x="502" y="761" on="1"/>
        <pt x="236" y="761" on="1"/>
        <pt x="199" y="761" on="0"/>
        <pt x="199" y="827" on="0"/>
      </contour>
    </TTGlyph>
    <TTGlyph name="Uogonek" xMin="97" yMin="-155" xMax="643" yMax="679">
      <contour>
        <pt x="136" y="679" on="1"/>
        <pt x="97" y="679" on="0"/>
        <pt x="97" y="640" on="1"/>
        <pt x="97" y="288" on="1"/>
        <pt x="97" y="200" on="0"/>
        <pt x="126" y="130" on="1"/>
        <pt x="144" y="89" on="0"/>
        <pt x="202" y="30" on="0"/>
        <pt x="303" y="-8" on="0"/>
        <pt x="437" y="-8" on="0"/>
        <pt x="538" y="30" on="0"/>
        <pt x="596" y="89" on="0"/>
        <pt x="614" y="130" on="1"/>
        <pt x="643" y="200" on="0"/>
        <pt x="643" y="288" on="1"/>
        <pt x="643" y="288" on="0"/>
        <pt x="643" y="640" on="1"/>
        <pt x="643" y="679" on="0"/>
        <pt x="602" y="679" on="1"/>
        <pt x="594" y="679" on="1"/>
        <pt x="555" y="679" on="0"/>
        <pt x="555" y="640" on="1"/>
        <pt x="555" y="284" on="1"/>
        <pt x="555" y="66" on="0"/>
        <pt x="185" y="66" on="0"/>
        <pt x="185" y="284" on="1"/>
        <pt x="185" y="640" on="1"/>
        <pt x="185" y="679" on="0"/>
        <pt x="146" y="679" on="1"/>
      </contour>
      <contour>
        <pt x="391" y="27" on="1"/>
        <pt x="391" y="-7" on="1"/>
        <pt x="366" y="-7" on="0"/>
        <pt x="338" y="-35" on="0"/>
        <pt x="338" y="-57" on="1"/>
        <pt x="338" y="-98" on="0"/>
        <pt x="387" y="-98" on="1"/>
        <pt x="421" y="-98" on="0"/>
        <pt x="421" y="-82" on="1"/>
        <pt x="430" y="-82" on="0"/>
        <pt x="446" y="-98" on="0"/>
        <pt x="446" y="-131" on="0"/>
        <pt x="407" y="-155" on="0"/>
        <pt x="333" y="-155" on="0"/>
        <pt x="280" y="-107" on="0"/>
        <pt x="280" y="-28" on="0"/>
        <pt x="340" y="27" on="0"/>
      </contour>
    </TTGlyph>
    <TTGlyph name="Uring" xMin="97" yMin="-8" xMax="643" yMax="889">
      <contour>
        <pt x="136" y="679" on="1"/>
        <pt x="146" y="679" on="1"/>
        <pt x="185" y="679" on="0"/>
        <pt x="185" y="640" on="1"/>
        <pt x="185" y="284" on="1"/>
        <pt x="185" y="66" on="0"/>
        <pt x="555" y="66" on="0"/>
        <pt x="555" y="284" on="1"/>
        <pt x="555" y="640" on="1"/>
        <pt x="555" y="679" on="0"/>
        <pt x="594" y="679" on="1"/>
        <pt x="602" y="679" on="1"/>
        <pt x="643" y="679" on="0"/>
        <pt x="643" y="640" on="1"/>
        <pt x="643" y="288" on="1"/>
        <pt x="643" y="200" on="0"/>
        <pt x="614" y="130" on="1"/>
        <pt x="596" y="89" on="0"/>
        <pt x="538" y="30" on="0"/>
        <pt x="437" y="-8" on="0"/>
        <pt x="303" y="-8" on="0"/>
        <pt x="202" y="30" on="0"/>
        <pt x="144" y="89" on="0"/>
        <pt x="126" y="130" on="1"/>
        <pt x="97" y="200" on="0"/>
        <pt x="97" y="288" on="1"/>
        <pt x="97" y="640" on="1"/>
        <pt x="97" y="679" on="0"/>
      </contour>
      <contour>
        <pt x="286" y="765" on="0"/>
        <pt x="286" y="843" on="0"/>
        <pt x="334" y="889" on="0"/>
        <pt x="412" y="889" on="0"/>
        <pt x="460" y="843" on="0"/>
        <pt x="460" y="765" on="0"/>
        <pt x="412" y="719" on="0"/>
        <pt x="334" y="719" on="0"/>
      </contour>
      <contour>
        <pt x="331" y="824" on="0"/>
        <pt x="331" y="784" on="0"/>
        <pt x="354" y="760" on="0"/>
        <pt x="391" y="760" on="0"/>
        <pt x="415" y="785" on="0"/>
        <pt x="415" y="824" on="0"/>
        <pt x="392" y="848" on="0"/>
        <pt x="354" y="848" on="0"/>
      </contour>
    </TTGlyph>
    <TTGlyph name="Utilde" xMin="97" yMin="-8" xMax="643" yMax="852">
      <contour>
        <pt x="136" y="679" on="1"/>
        <pt x="146" y="679" on="1"/>
        <pt x="185" y="679" on="0"/>
        <pt x="185" y="640" on="1"/>
        <pt x="185" y="284" on="1"/>
        <pt x="185" y="66" on="0"/>
        <pt x="555" y="66" on="0"/>
        <pt x="555" y="284" on="1"/>
        <pt x="555" y="640" on="1"/>
        <pt x="555" y="679" on="0"/>
        <pt x="594" y="679" on="1"/>
        <pt x="602" y="679" on="1"/>
        <pt x="643" y="679" on="0"/>
        <pt x="643" y="640" on="1"/>
        <pt x="643" y="288" on="1"/>
        <pt x="643" y="200" on="0"/>
        <pt x="614" y="130" on="1"/>
        <pt x="596" y="89" on="0"/>
        <pt x="538" y="30" on="0"/>
        <pt x="437" y="-8" on="0"/>
        <pt x="303" y="-8" on="0"/>
        <pt x="202" y="30" on="0"/>
        <pt x="144" y="89" on="0"/>
        <pt x="126" y="130" on="1"/>
        <pt x="97" y="200" on="0"/>
        <pt x="97" y="288" on="1"/>
        <pt x="97" y="640" on="1"/>
        <pt x="97" y="679" on="0"/>
      </contour>
      <contour>
        <pt x="361" y="765" on="1"/>
        <pt x="325" y="781" on="0"/>
        <pt x="276" y="781" on="0"/>
        <pt x="248" y="757" on="0"/>
        <pt x="239" y="757" on="1"/>
        <pt x="217" y="757" on="0"/>
        <pt x="217" y="779" on="1"/>
        <pt x="217" y="852" on="0"/>
        <pt x="301" y="852" on="1"/>
        <pt x="316" y="852" on="0"/>
        <pt x="335" y="848" on="0"/>
        <pt x="342" y="847" on="0"/>
        <pt x="358" y="841" on="0"/>
        <pt x="362" y="839" on="0"/>
        <pt x="383" y="830" on="0"/>
        <pt x="385" y="829" on="1"/>
        <pt x="421" y="813" on="0"/>
        <pt x="470" y="813" on="0"/>
        <pt x="498" y="837" on="0"/>
        <pt x="516" y="837" on="0"/>
        <pt x="529" y="825" on="0"/>
        <pt x="529" y="815" on="1"/>
        <pt x="529" y="742" on="0"/>
        <pt x="445" y="742" on="1"/>
        <pt x="430" y="742" on="0"/>
        <pt x="411" y="746" on="0"/>
        <pt x="404" y="747" on="0"/>
        <pt x="388" y="753" on="0"/>
        <pt x="384" y="755" on="0"/>
        <pt x="363" y="764" on="0"/>
      </contour>
    </TTGlyph>
    <TTGlyph name="V" xMin="40" yMin="0" xMax="651" yMax="678">
      <contour>
        <pt x="40" y="650" on="1"/>
        <pt x="40" y="678" on="0"/>
        <pt x="72" y="678" on="1"/>
        <pt x="96" y="678" on="1"/>
        <pt x="113" y="678" on="0"/>
        <pt x="126" y="666" on="0"/>
        <pt x="132" y="660" on="0"/>
        <pt x="138" y="643" on="0"/>
        <pt x="140" y="639" on="1"/>
        <pt x="142" y="633" on="0"/>
        <pt x="148" y="608" on="1"/>
        <pt x="229" y="306" on="0"/>
        <pt x="348" y="95" on="1"/>
        <pt x="472" y="350" on="0"/>
        <pt x="543" y="608" on="1"/>
        <pt x="546" y="622" on="1"/>
        <pt x="554" y="652" on="0"/>
        <pt x="560" y="661" on="0"/>
        <pt x="568" y="671" on="0"/>
        <pt x="572" y="673" on="1"/>
        <pt x="582" y="678" on="0"/>
        <pt x="595" y="678" on="1"/>
        <pt x="619" y="678" on="1"/>
        <pt x="651" y="678" on="0"/>
        <pt x="651" y="650" on="1"/>
        <pt x="651" y="644" on="0"/>
        <pt x="647" y="628" on="1"/>
        <pt x="543" y="279" on="0"/>
        <pt x="420" y="56" on="1"/>
        <pt x="418" y="53" on="0"/>
        <pt x="408" y="33" on="0"/>
        <pt x="405" y="29" on="0"/>
        <pt x="396" y="15" on="0"/>
        <pt x="391" y="12" on="0"/>
        <pt x="381" y="4" on="0"/>
        <pt x="376" y="3" on="1"/>
        <pt x="363" y="0" on="0"/>
        <pt x="351" y="0" on="1"/>
        <pt x="340" y="0" on="1"/>
        <pt x="315" y="0" on="0"/>
        <pt x="300" y="12" on="0"/>
        <pt x="295" y="15" on="0"/>
        <pt x="286" y="29" on="0"/>
        <pt x="283" y="33" on="0"/>
        <pt x="273" y="53" on="0"/>
        <pt x="271" y="56" on="1"/>
        <pt x="148" y="279" on="0"/>
        <pt x="44" y="628" on="1"/>
        <pt x="40" y="644" on="0"/>
      </contour>
    </TTGlyph>
    <TTGlyph name="W" xMin="54" yMin="0" xMax="936" yMax="679">
      <contour>
        <pt x="84" y="677" on="1"/>
        <pt x="108" y="677" on="1"/>
        <pt x="146" y="677" on="0"/>
        <pt x="152" y="644" on="1"/>
        <pt x="292" y="92" on="1"/>
        <pt x="312" y="162" on="0"/>
        <pt x="421" y="540" on="0"/>
        <pt x="450" y="644" on="1"/>
        <pt x="460" y="679" on="0"/>
        <pt x="494" y="679" on="1"/>
        <pt x="503" y="679" on="1"/>
        <pt x="536" y="679" on="0"/>
        <pt x="546" y="644" on="1"/>
        <pt x="575" y="540" on="0"/>
        <pt x="684" y="162" on="0"/>
        <pt x="704" y="92" on="1"/>
        <pt x="782" y="341" on="0"/>
        <pt x="838" y="644" on="1"/>
        <pt x="844" y="677" on="0"/>
        <pt x="882" y="677" on="1"/>
        <pt x="906" y="677" on="1"/>
        <pt x="919" y="677" on="0"/>
        <pt x="936" y="662" on="0"/>
        <pt x="936" y="643" on="0"/>
        <pt x="934" y="635" on="1"/>
        <pt x="861" y="321" on="0"/>
        <pt x="773" y="58" on="1"/>
        <pt x="753" y="0" on="0"/>
        <pt x="710" y="0" on="1"/>
        <pt x="695" y="0" on="1"/>
        <pt x="647" y="0" on="0"/>
        <pt x="632" y="54" on="1"/>
        <pt x="597" y="186" on="0"/>
        <pt x="498" y="542" on="1"/>
        <pt x="476" y="460" on="0"/>
        <pt x="386" y="137" on="0"/>
        <pt x="364" y="54" on="1"/>
        <pt x="357" y="29" on="0"/>
        <pt x="324" y="0" on="0"/>
        <pt x="301" y="0" on="1"/>
        <pt x="280" y="0" on="1"/>
        <pt x="237" y="0" on="0"/>
        <pt x="217" y="58" on="1"/>
        <pt x="129" y="321" on="0"/>
        <pt x="56" y="635" on="1"/>
        <pt x="54" y="643" on="0"/>
        <pt x="54" y="662" on="0"/>
        <pt x="71" y="677" on="0"/>
      </contour>
    </TTGlyph>
    <TTGlyph name="Wacute" xMin="54" yMin="0" xMax="936" yMax="910">
      <contour>
        <pt x="84" y="677" on="1"/>
        <pt x="108" y="677" on="1"/>
        <pt x="146" y="677" on="0"/>
        <pt x="152" y="644" on="1"/>
        <pt x="292" y="92" on="1"/>
        <pt x="312" y="162" on="0"/>
        <pt x="421" y="540" on="0"/>
        <pt x="450" y="644" on="1"/>
        <pt x="460" y="679" on="0"/>
        <pt x="494" y="679" on="1"/>
        <pt x="503" y="679" on="1"/>
        <pt x="536" y="679" on="0"/>
        <pt x="546" y="644" on="1"/>
        <pt x="575" y="540" on="0"/>
        <pt x="684" y="162" on="0"/>
        <pt x="704" y="92" on="1"/>
        <pt x="782" y="341" on="0"/>
        <pt x="838" y="644" on="1"/>
        <pt x="844" y="677" on="0"/>
        <pt x="882" y="677" on="1"/>
        <pt x="906" y="677" on="1"/>
        <pt x="919" y="677" on="0"/>
        <pt x="936" y="662" on="0"/>
        <pt x="936" y="643" on="0"/>
        <pt x="934" y="635" on="1"/>
        <pt x="861" y="321" on="0"/>
        <pt x="773" y="58" on="1"/>
        <pt x="753" y="0" on="0"/>
        <pt x="710" y="0" on="1"/>
        <pt x="695" y="0" on="1"/>
        <pt x="647" y="0" on="0"/>
        <pt x="632" y="54" on="1"/>
        <pt x="597" y="186" on="0"/>
        <pt x="498" y="542" on="1"/>
        <pt x="476" y="460" on="0"/>
        <pt x="386" y="137" on="0"/>
        <pt x="364" y="54" on="1"/>
        <pt x="357" y="29" on="0"/>
        <pt x="324" y="0" on="0"/>
        <pt x="301" y="0" on="1"/>
        <pt x="280" y="0" on="1"/>
        <pt x="237" y="0" on="0"/>
        <pt x="217" y="58" on="1"/>
        <pt x="129" y="321" on="0"/>
        <pt x="56" y="635" on="1"/>
        <pt x="54" y="643" on="0"/>
        <pt x="54" y="662" on="0"/>
        <pt x="71" y="677" on="0"/>
      </contour>
      <contour>
        <pt x="401" y="748" on="1"/>
        <pt x="385" y="748" on="0"/>
        <pt x="385" y="763" on="1"/>
        <pt x="385" y="772" on="1"/>
        <pt x="385" y="787" on="0"/>
        <pt x="403" y="799" on="1"/>
        <pt x="583" y="906" on="1"/>
        <pt x="588" y="910" on="0"/>
        <pt x="599" y="910" on="1"/>
        <pt x="617" y="910" on="0"/>
        <pt x="617" y="892" on="1"/>
        <pt x="617" y="865" on="1"/>
        <pt x="617" y="841" on="0"/>
        <pt x="595" y="832" on="1"/>
        <pt x="414" y="751" on="1"/>
        <pt x="408" y="748" on="0"/>
      </contour>
    </TTGlyph>
    <TTGlyph name="Wcircumflex" xMin="54" yMin="0" xMax="936" yMax="884">
      <contour>
        <pt x="84" y="677" on="1"/>
        <pt x="108" y="677" on="1"/>
        <pt x="146" y="677" on="0"/>
        <pt x="152" y="644" on="1"/>
        <pt x="292" y="92" on="1"/>
        <pt x="312" y="162" on="0"/>
        <pt x="421" y="540" on="0"/>
        <pt x="450" y="644" on="1"/>
        <pt x="460" y="679" on="0"/>
        <pt x="494" y="679" on="1"/>
        <pt x="503" y="679" on="1"/>
        <pt x="536" y="679" on="0"/>
        <pt x="546" y="644" on="1"/>
        <pt x="575" y="540" on="0"/>
        <pt x="684" y="162" on="0"/>
        <pt x="704" y="92" on="1"/>
        <pt x="782" y="341" on="0"/>
        <pt x="838" y="644" on="1"/>
        <pt x="844" y="677" on="0"/>
        <pt x="882" y="677" on="1"/>
        <pt x="906" y="677" on="1"/>
        <pt x="919" y="677" on="0"/>
        <pt x="936" y="662" on="0"/>
        <pt x="936" y="643" on="0"/>
        <pt x="934" y="635" on="1"/>
        <pt x="861" y="321" on="0"/>
        <pt x="773" y="58" on="1"/>
        <pt x="753" y="0" on="0"/>
        <pt x="710" y="0" on="1"/>
        <pt x="695" y="0" on="1"/>
        <pt x="647" y="0" on="0"/>
        <pt x="632" y="54" on="1"/>
        <pt x="597" y="186" on="0"/>
        <pt x="498" y="542" on="1"/>
        <pt x="476" y="460" on="0"/>
        <pt x="386" y="137" on="0"/>
        <pt x="364" y="54" on="1"/>
        <pt x="357" y="29" on="0"/>
        <pt x="324" y="0" on="0"/>
        <pt x="301" y="0" on="1"/>
        <pt x="280" y="0" on="1"/>
        <pt x="237" y="0" on="0"/>
        <pt x="217" y="58" on="1"/>
        <pt x="129" y="321" on="0"/>
        <pt x="56" y="635" on="1"/>
        <pt x="54" y="643" on="0"/>
        <pt x="54" y="662" on="0"/>
        <pt x="71" y="677" on="0"/>
      </contour>
      <contour>
        <pt x="387" y="760" on="1"/>
        <pt x="357" y="760" on="0"/>
        <pt x="357" y="784" on="1"/>
        <pt x="357" y="796" on="0"/>
        <pt x="379" y="811" on="1"/>
        <pt x="468" y="874" on="1"/>
        <pt x="482" y="884" on="0"/>
        <pt x="518" y="884" on="0"/>
        <pt x="534" y="873" on="1"/>
        <pt x="623" y="811" on="1"/>
        <pt x="645" y="796" on="0"/>
        <pt x="645" y="784" on="1"/>
        <pt x="645" y="760" on="0"/>
        <pt x="615" y="760" on="1"/>
        <pt x="601" y="760" on="0"/>
        <pt x="587" y="769" on="1"/>
        <pt x="501" y="822" on="1"/>
        <pt x="415" y="769" on="1"/>
        <pt x="401" y="760" on="0"/>
      </contour>
    </TTGlyph>
    <TTGlyph name="Wdieresis" xMin="54" yMin="0" xMax="936" yMax="855">
      <contour>
        <pt x="84" y="677" on="1"/>
        <pt x="108" y="677" on="1"/>
        <pt x="146" y="677" on="0"/>
        <pt x="152" y="644" on="1"/>
        <pt x="292" y="92" on="1"/>
        <pt x="312" y="162" on="0"/>
        <pt x="421" y="540" on="0"/>
        <pt x="450" y="644" on="1"/>
        <pt x="460" y="679" on="0"/>
        <pt x="494" y="679" on="1"/>
        <pt x="503" y="679" on="1"/>
        <pt x="536" y="679" on="0"/>
        <pt x="546" y="644" on="1"/>
        <pt x="575" y="540" on="0"/>
        <pt x="684" y="162" on="0"/>
        <pt x="704" y="92" on="1"/>
        <pt x="782" y="341" on="0"/>
        <pt x="838" y="644" on="1"/>
        <pt x="844" y="677" on="0"/>
        <pt x="882" y="677" on="1"/>
        <pt x="906" y="677" on="1"/>
        <pt x="919" y="677" on="0"/>
        <pt x="936" y="662" on="0"/>
        <pt x="936" y="643" on="0"/>
        <pt x="934" y="635" on="1"/>
        <pt x="861" y="321" on="0"/>
        <pt x="773" y="58" on="1"/>
        <pt x="753" y="0" on="0"/>
        <pt x="710" y="0" on="1"/>
        <pt x="695" y="0" on="1"/>
        <pt x="647" y="0" on="0"/>
        <pt x="632" y="54" on="1"/>
        <pt x="597" y="186" on="0"/>
        <pt x="498" y="542" on="1"/>
        <pt x="476" y="460" on="0"/>
        <pt x="386" y="137" on="0"/>
        <pt x="364" y="54" on="1"/>
        <pt x="357" y="29" on="0"/>
        <pt x="324" y="0" on="0"/>
        <pt x="301" y="0" on="1"/>
        <pt x="280" y="0" on="1"/>
        <pt x="237" y="0" on="0"/>
        <pt x="217" y="58" on="1"/>
        <pt x="129" y="321" on="0"/>
        <pt x="56" y="635" on="1"/>
        <pt x="54" y="643" on="0"/>
        <pt x="54" y="662" on="0"/>
        <pt x="71" y="677" on="0"/>
      </contour>
      <contour>
        <pt x="382" y="765" on="0"/>
        <pt x="355" y="791" on="0"/>
        <pt x="355" y="830" on="0"/>
        <pt x="382" y="855" on="0"/>
        <pt x="420" y="855" on="0"/>
        <pt x="446" y="830" on="0"/>
        <pt x="446" y="791" on="0"/>
        <pt x="420" y="765" on="0"/>
      </contour>
      <contour>
        <pt x="583" y="765" on="0"/>
        <pt x="557" y="791" on="0"/>
        <pt x="557" y="830" on="0"/>
        <pt x="583" y="855" on="0"/>
        <pt x="621" y="855" on="0"/>
        <pt x="647" y="830" on="0"/>
        <pt x="647" y="791" on="0"/>
        <pt x="621" y="765" on="0"/>
      </contour>
    </TTGlyph>
    <TTGlyph name="Wgrave" xMin="54" yMin="0" xMax="936" yMax="910">
      <contour>
        <pt x="84" y="677" on="1"/>
        <pt x="108" y="677" on="1"/>
        <pt x="146" y="677" on="0"/>
        <pt x="152" y="644" on="1"/>
        <pt x="292" y="92" on="1"/>
        <pt x="312" y="162" on="0"/>
        <pt x="421" y="540" on="0"/>
        <pt x="450" y="644" on="1"/>
        <pt x="460" y="679" on="0"/>
        <pt x="494" y="679" on="1"/>
        <pt x="503" y="679" on="1"/>
        <pt x="536" y="679" on="0"/>
        <pt x="546" y="644" on="1"/>
        <pt x="575" y="540" on="0"/>
        <pt x="684" y="162" on="0"/>
        <pt x="704" y="92" on="1"/>
        <pt x="782" y="341" on="0"/>
        <pt x="838" y="644" on="1"/>
        <pt x="844" y="677" on="0"/>
        <pt x="882" y="677" on="1"/>
        <pt x="906" y="677" on="1"/>
        <pt x="919" y="677" on="0"/>
        <pt x="936" y="662" on="0"/>
        <pt x="936" y="643" on="0"/>
        <pt x="934" y="635" on="1"/>
        <pt x="861" y="321" on="0"/>
        <pt x="773" y="58" on="1"/>
        <pt x="753" y="0" on="0"/>
        <pt x="710" y="0" on="1"/>
        <pt x="695" y="0" on="1"/>
        <pt x="647" y="0" on="0"/>
        <pt x="632" y="54" on="1"/>
        <pt x="597" y="186" on="0"/>
        <pt x="498" y="542" on="1"/>
        <pt x="476" y="460" on="0"/>
        <pt x="386" y="137" on="0"/>
        <pt x="364" y="54" on="1"/>
        <pt x="357" y="29" on="0"/>
        <pt x="324" y="0" on="0"/>
        <pt x="301" y="0" on="1"/>
        <pt x="280" y="0" on="1"/>
        <pt x="237" y="0" on="0"/>
        <pt x="217" y="58" on="1"/>
        <pt x="129" y="321" on="0"/>
        <pt x="56" y="635" on="1"/>
        <pt x="54" y="643" on="0"/>
        <pt x="54" y="662" on="0"/>
        <pt x="71" y="677" on="0"/>
      </contour>
      <contour>
        <pt x="385" y="865" on="1"/>
        <pt x="385" y="892" on="1"/>
        <pt x="385" y="910" on="0"/>
        <pt x="403" y="910" on="1"/>
        <pt x="412" y="910" on="0"/>
        <pt x="419" y="906" on="1"/>
        <pt x="599" y="799" on="1"/>
        <pt x="615" y="789" on="0"/>
        <pt x="617" y="772" on="1"/>
        <pt x="617" y="763" on="1"/>
        <pt x="617" y="748" on="0"/>
        <pt x="600" y="748" on="1"/>
        <pt x="593" y="748" on="0"/>
        <pt x="587" y="751" on="1"/>
        <pt x="405" y="832" on="1"/>
        <pt x="385" y="841" on="0"/>
      </contour>
    </TTGlyph>
    <TTGlyph name="X" xMin="38" yMin="0" xMax="603" yMax="679">
      <contour>
        <pt x="72" y="679" on="1"/>
        <pt x="112" y="679" on="1"/>
        <pt x="137" y="679" on="0"/>
        <pt x="156" y="652" on="1"/>
        <pt x="325" y="409" on="1"/>
        <pt x="366" y="457" on="0"/>
        <pt x="445" y="579" on="0"/>
        <pt x="464" y="616" on="1"/>
        <pt x="483" y="652" on="1"/>
        <pt x="500" y="679" on="0"/>
        <pt x="526" y="679" on="1"/>
        <pt x="567" y="679" on="1"/>
        <pt x="588" y="679" on="0"/>
        <pt x="588" y="660" on="1"/>
        <pt x="588" y="652" on="0"/>
        <pt x="573" y="628" on="0"/>
        <pt x="535" y="565" on="0"/>
        <pt x="424" y="410" on="0"/>
        <pt x="373" y="355" on="1"/>
        <pt x="597" y="33" on="1"/>
        <pt x="603" y="24" on="0"/>
        <pt x="603" y="16" on="1"/>
        <pt x="603" y="0" on="0"/>
        <pt x="583" y="0" on="1"/>
        <pt x="540" y="0" on="1"/>
        <pt x="511" y="0" on="0"/>
        <pt x="492" y="30" on="1"/>
        <pt x="319" y="300" on="1"/>
        <pt x="283" y="262" on="0"/>
        <pt x="198" y="127" on="0"/>
        <pt x="173" y="78" on="1"/>
        <pt x="148" y="30" on="1"/>
        <pt x="129" y="0" on="0"/>
        <pt x="100" y="0" on="1"/>
        <pt x="57" y="0" on="1"/>
        <pt x="38" y="0" on="0"/>
        <pt x="38" y="16" on="1"/>
        <pt x="38" y="42" on="0"/>
        <pt x="152" y="204" on="1"/>
        <pt x="207" y="282" on="0"/>
        <pt x="267" y="354" on="1"/>
        <pt x="55" y="647" on="1"/>
        <pt x="50" y="654" on="0"/>
        <pt x="50" y="660" on="1"/>
        <pt x="50" y="679" on="0"/>
      </contour>
    </TTGlyph>
    <TTGlyph name="Y" xMin="40" yMin="0" xMax="591" yMax="679">
      <contour>
        <pt x="72" y="679" on="1"/>
        <pt x="93" y="679" on="1"/>
        <pt x="106" y="679" on="0"/>
        <pt x="118" y="667" on="0"/>
        <pt x="125" y="659" on="0"/>
        <pt x="133" y="644" on="0"/>
        <pt x="137" y="634" on="0"/>
        <pt x="146" y="614" on="0"/>
        <pt x="148" y="609" on="1"/>
        <pt x="215" y="460" on="0"/>
        <pt x="310" y="337" on="1"/>
        <pt x="321" y="337" on="1"/>
        <pt x="416" y="460" on="0"/>
        <pt x="483" y="609" on="1"/>
        <pt x="485" y="614" on="0"/>
        <pt x="494" y="634" on="0"/>
        <pt x="498" y="644" on="0"/>
        <pt x="506" y="659" on="0"/>
        <pt x="513" y="667" on="0"/>
        <pt x="518" y="672" on="1"/>
        <pt x="525" y="679" on="0"/>
        <pt x="538" y="679" on="1"/>
        <pt x="559" y="679" on="1"/>
        <pt x="591" y="679" on="0"/>
        <pt x="591" y="651" on="1"/>
        <pt x="591" y="637" on="0"/>
        <pt x="579" y="607" on="0"/>
        <pt x="559" y="564" on="0"/>
        <pt x="543" y="529" on="0"/>
        <pt x="518" y="485" on="0"/>
        <pt x="503" y="458" on="0"/>
        <pt x="471" y="411" on="0"/>
        <pt x="458" y="390" on="0"/>
        <pt x="420" y="338" on="0"/>
        <pt x="414" y="330" on="1"/>
        <pt x="369" y="270" on="0"/>
        <pt x="359" y="256" on="1"/>
        <pt x="359" y="38" on="1"/>
        <pt x="359" y="0" on="0"/>
        <pt x="320" y="0" on="1"/>
        <pt x="311" y="0" on="1"/>
        <pt x="272" y="0" on="0"/>
        <pt x="272" y="38" on="1"/>
        <pt x="272" y="256" on="1"/>
        <pt x="262" y="270" on="0"/>
        <pt x="211" y="338" on="0"/>
        <pt x="173" y="390" on="0"/>
        <pt x="160" y="411" on="0"/>
        <pt x="128" y="458" on="0"/>
        <pt x="113" y="485" on="0"/>
        <pt x="88" y="529" on="0"/>
        <pt x="72" y="564" on="0"/>
        <pt x="52" y="607" on="0"/>
        <pt x="40" y="637" on="0"/>
        <pt x="40" y="651" on="1"/>
        <pt x="40" y="679" on="0"/>
      </contour>
    </TTGlyph>
    <TTGlyph name="Yacute" xMin="40" yMin="0" xMax="591" yMax="910">
      <contour>
        <pt x="72" y="679" on="1"/>
        <pt x="93" y="679" on="1"/>
        <pt x="106" y="679" on="0"/>
        <pt x="118" y="667" on="0"/>
        <pt x="125" y="659" on="0"/>
        <pt x="133" y="644" on="0"/>
        <pt x="137" y="634" on="0"/>
        <pt x="146" y="614" on="0"/>
        <pt x="148" y="609" on="1"/>
        <pt x="215" y="460" on="0"/>
        <pt x="310" y="337" on="1"/>
        <pt x="321" y="337" on="1"/>
        <pt x="416" y="460" on="0"/>
        <pt x="483" y="609" on="1"/>
        <pt x="485" y="614" on="0"/>
        <pt x="494" y="634" on="0"/>
        <pt x="498" y="644" on="0"/>
        <pt x="506" y="659" on="0"/>
        <pt x="513" y="667" on="0"/>
        <pt x="518" y="672" on="1"/>
        <pt x="525" y="679" on="0"/>
        <pt x="538" y="679" on="1"/>
        <pt x="559" y="679" on="1"/>
        <pt x="591" y="679" on="0"/>
        <pt x="591" y="651" on="1"/>
        <pt x="591" y="637" on="0"/>
        <pt x="579" y="607" on="0"/>
        <pt x="559" y="564" on="0"/>
        <pt x="543" y="529" on="0"/>
        <pt x="518" y="485" on="0"/>
        <pt x="503" y="458" on="0"/>
        <pt x="471" y="411" on="0"/>
        <pt x="458" y="390" on="0"/>
        <pt x="420" y="338" on="0"/>
        <pt x="414" y="330" on="1"/>
        <pt x="369" y="270" on="0"/>
        <pt x="359" y="256" on="1"/>
        <pt x="359" y="38" on="1"/>
        <pt x="359" y="0" on="0"/>
        <pt x="320" y="0" on="1"/>
        <pt x="311" y="0" on="1"/>
        <pt x="272" y="0" on="0"/>
        <pt x="272" y="38" on="1"/>
        <pt x="272" y="256" on="1"/>
        <pt x="262" y="270" on="0"/>
        <pt x="211" y="338" on="0"/>
        <pt x="173" y="390" on="0"/>
        <pt x="160" y="411" on="0"/>
        <pt x="128" y="458" on="0"/>
        <pt x="113" y="485" on="0"/>
        <pt x="88" y="529" on="0"/>
        <pt x="72" y="564" on="0"/>
        <pt x="52" y="607" on="0"/>
        <pt x="40" y="637" on="0"/>
        <pt x="40" y="651" on="1"/>
        <pt x="40" y="679" on="0"/>
      </contour>
      <contour>
        <pt x="215" y="748" on="1"/>
        <pt x="199" y="748" on="0"/>
        <pt x="199" y="763" on="1"/>
        <pt x="199" y="772" on="1"/>
        <pt x="199" y="787" on="0"/>
        <pt x="217" y="799" on="1"/>
        <pt x="397" y="906" on="1"/>
        <pt x="402" y="910" on="0"/>
        <pt x="413" y="910" on="1"/>
        <pt x="431" y="910" on="0"/>
        <pt x="431" y="892" on="1"/>
        <pt x="431" y="865" on="1"/>
        <pt x="431" y="841" on="0"/>
        <pt x="409" y="832" on="1"/>
        <pt x="228" y="751" on="1"/>
        <pt x="222" y="748" on="0"/>
      </contour>
    </TTGlyph>
    <TTGlyph name="Ycircumflex" xMin="40" yMin="0" xMax="591" yMax="884">
      <contour>
        <pt x="72" y="679" on="1"/>
        <pt x="93" y="679" on="1"/>
        <pt x="106" y="679" on="0"/>
        <pt x="118" y="667" on="0"/>
        <pt x="125" y="659" on="0"/>
        <pt x="133" y="644" on="0"/>
        <pt x="137" y="634" on="0"/>
        <pt x="146" y="614" on="0"/>
        <pt x="148" y="609" on="1"/>
        <pt x="215" y="460" on="0"/>
        <pt x="310" y="337" on="1"/>
        <pt x="321" y="337" on="1"/>
        <pt x="416" y="460" on="0"/>
        <pt x="483" y="609" on="1"/>
        <pt x="485" y="614" on="0"/>
        <pt x="494" y="634" on="0"/>
        <pt x="498" y="644" on="0"/>
        <pt x="506" y="659" on="0"/>
        <pt x="513" y="667" on="0"/>
        <pt x="518" y="672" on="1"/>
        <pt x="525" y="679" on="0"/>
        <pt x="538" y="679" on="1"/>
        <pt x="559" y="679" on="1"/>
        <pt x="591" y="679" on="0"/>
        <pt x="591" y="651" on="1"/>
        <pt x="591" y="637" on="0"/>
        <pt x="579" y="607" on="0"/>
        <pt x="559" y="564" on="0"/>
        <pt x="543" y="529" on="0"/>
        <pt x="518" y="485" on="0"/>
        <pt x="503" y="458" on="0"/>
        <pt x="471" y="411" on="0"/>
        <pt x="458" y="390" on="0"/>
        <pt x="420" y="338" on="0"/>
        <pt x="414" y="330" on="1"/>
        <pt x="369" y="270" on="0"/>
        <pt x="359" y="256" on="1"/>
        <pt x="359" y="38" on="1"/>
        <pt x="359" y="0" on="0"/>
        <pt x="320" y="0" on="1"/>
        <pt x="311" y="0" on="1"/>
        <pt x="272" y="0" on="0"/>
        <pt x="272" y="38" on="1"/>
        <pt x="272" y="256" on="1"/>
        <pt x="262" y="270" on="0"/>
        <pt x="211" y="338" on="0"/>
        <pt x="173" y="390" on="0"/>
        <pt x="160" y="411" on="0"/>
        <pt x="128" y="458" on="0"/>
        <pt x="113" y="485" on="0"/>
        <pt x="88" y="529" on="0"/>
        <pt x="72" y="564" on="0"/>
        <pt x="52" y="607" on="0"/>
        <pt x="40" y="637" on="0"/>
        <pt x="40" y="651" on="1"/>
        <pt x="40" y="679" on="0"/>
      </contour>
      <contour>
        <pt x="201" y="760" on="1"/>
        <pt x="171" y="760" on="0"/>
        <pt x="171" y="784" on="1"/>
        <pt x="171" y="796" on="0"/>
        <pt x="193" y="811" on="1"/>
        <pt x="282" y="874" on="1"/>
        <pt x="296" y="884" on="0"/>
        <pt x="332" y="884" on="0"/>
        <pt x="348" y="873" on="1"/>
        <pt x="437" y="811" on="1"/>
        <pt x="459" y="796" on="0"/>
        <pt x="459" y="784" on="1"/>
        <pt x="459" y="760" on="0"/>
        <pt x="429" y="760" on="1"/>
        <pt x="415" y="760" on="0"/>
        <pt x="401" y="769" on="1"/>
        <pt x="315" y="822" on="1"/>
        <pt x="229" y="769" on="1"/>
        <pt x="215" y="760" on="0"/>
      </contour>
    </TTGlyph>
    <TTGlyph name="Ydieresis" xMin="40" yMin="0" xMax="591" yMax="855">
      <contour>
        <pt x="72" y="679" on="1"/>
        <pt x="93" y="679" on="1"/>
        <pt x="106" y="679" on="0"/>
        <pt x="118" y="667" on="0"/>
        <pt x="125" y="659" on="0"/>
        <pt x="133" y="644" on="0"/>
        <pt x="137" y="634" on="0"/>
        <pt x="146" y="614" on="0"/>
        <pt x="148" y="609" on="1"/>
        <pt x="215" y="460" on="0"/>
        <pt x="310" y="337" on="1"/>
        <pt x="321" y="337" on="1"/>
        <pt x="416" y="460" on="0"/>
        <pt x="483" y="609" on="1"/>
        <pt x="485" y="614" on="0"/>
        <pt x="494" y="634" on="0"/>
        <pt x="498" y="644" on="0"/>
        <pt x="506" y="659" on="0"/>
        <pt x="513" y="667" on="0"/>
        <pt x="518" y="672" on="1"/>
        <pt x="525" y="679" on="0"/>
        <pt x="538" y="679" on="1"/>
        <pt x="559" y="679" on="1"/>
        <pt x="591" y="679" on="0"/>
        <pt x="591" y="651" on="1"/>
        <pt x="591" y="637" on="0"/>
        <pt x="579" y="607" on="0"/>
        <pt x="559" y="564" on="0"/>
        <pt x="543" y="529" on="0"/>
        <pt x="518" y="485" on="0"/>
        <pt x="503" y="458" on="0"/>
        <pt x="471" y="411" on="0"/>
        <pt x="458" y="390" on="0"/>
        <pt x="420" y="338" on="0"/>
        <pt x="414" y="330" on="1"/>
        <pt x="369" y="270" on="0"/>
        <pt x="359" y="256" on="1"/>
        <pt x="359" y="38" on="1"/>
        <pt x="359" y="0" on="0"/>
        <pt x="320" y="0" on="1"/>
        <pt x="311" y="0" on="1"/>
        <pt x="272" y="0" on="0"/>
        <pt x="272" y="38" on="1"/>
        <pt x="272" y="256" on="1"/>
        <pt x="262" y="270" on="0"/>
        <pt x="211" y="338" on="0"/>
        <pt x="173" y="390" on="0"/>
        <pt x="160" y="411" on="0"/>
        <pt x="128" y="458" on="0"/>
        <pt x="113" y="485" on="0"/>
        <pt x="88" y="529" on="0"/>
        <pt x="72" y="564" on="0"/>
        <pt x="52" y="607" on="0"/>
        <pt x="40" y="637" on="0"/>
        <pt x="40" y="651" on="1"/>
        <pt x="40" y="679" on="0"/>
      </contour>
      <contour>
        <pt x="196" y="765" on="0"/>
        <pt x="169" y="791" on="0"/>
        <pt x="169" y="830" on="0"/>
        <pt x="196" y="855" on="0"/>
        <pt x="234" y="855" on="0"/>
        <pt x="260" y="830" on="0"/>
        <pt x="260" y="791" on="0"/>
        <pt x="234" y="765" on="0"/>
      </contour>
      <contour>
        <pt x="397" y="765" on="0"/>
        <pt x="371" y="791" on="0"/>
        <pt x="371" y="830" on="0"/>
        <pt x="397" y="855" on="0"/>
        <pt x="435" y="855" on="0"/>
        <pt x="461" y="830" on="0"/>
        <pt x="461" y="791" on="0"/>
        <pt x="435" y="765" on="0"/>
      </contour>
    </TTGlyph>
    <TTGlyph name="Ygrave" xMin="40" yMin="0" xMax="591" yMax="910">
      <contour>
        <pt x="72" y="679" on="1"/>
        <pt x="93" y="679" on="1"/>
        <pt x="106" y="679" on="0"/>
        <pt x="118" y="667" on="0"/>
        <pt x="125" y="659" on="0"/>
        <pt x="133" y="644" on="0"/>
        <pt x="137" y="634" on="0"/>
        <pt x="146" y="614" on="0"/>
        <pt x="148" y="609" on="1"/>
        <pt x="215" y="460" on="0"/>
        <pt x="310" y="337" on="1"/>
        <pt x="321" y="337" on="1"/>
        <pt x="416" y="460" on="0"/>
        <pt x="483" y="609" on="1"/>
        <pt x="485" y="614" on="0"/>
        <pt x="494" y="634" on="0"/>
        <pt x="498" y="644" on="0"/>
        <pt x="506" y="659" on="0"/>
        <pt x="513" y="667" on="0"/>
        <pt x="518" y="672" on="1"/>
        <pt x="525" y="679" on="0"/>
        <pt x="538" y="679" on="1"/>
        <pt x="559" y="679" on="1"/>
        <pt x="591" y="679" on="0"/>
        <pt x="591" y="651" on="1"/>
        <pt x="591" y="637" on="0"/>
        <pt x="579" y="607" on="0"/>
        <pt x="559" y="564" on="0"/>
        <pt x="543" y="529" on="0"/>
        <pt x="518" y="485" on="0"/>
        <pt x="503" y="458" on="0"/>
        <pt x="471" y="411" on="0"/>
        <pt x="458" y="390" on="0"/>
        <pt x="420" y="338" on="0"/>
        <pt x="414" y="330" on="1"/>
        <pt x="369" y="270" on="0"/>
        <pt x="359" y="256" on="1"/>
        <pt x="359" y="38" on="1"/>
        <pt x="359" y="0" on="0"/>
        <pt x="320" y="0" on="1"/>
        <pt x="311" y="0" on="1"/>
        <pt x="272" y="0" on="0"/>
        <pt x="272" y="38" on="1"/>
        <pt x="272" y="256" on="1"/>
        <pt x="262" y="270" on="0"/>
        <pt x="211" y="338" on="0"/>
        <pt x="173" y="390" on="0"/>
        <pt x="160" y="411" on="0"/>
        <pt x="128" y="458" on="0"/>
        <pt x="113" y="485" on="0"/>
        <pt x="88" y="529" on="0"/>
        <pt x="72" y="564" on="0"/>
        <pt x="52" y="607" on="0"/>
        <pt x="40" y="637" on="0"/>
        <pt x="40" y="651" on="1"/>
        <pt x="40" y="679" on="0"/>
      </contour>
      <contour>
        <pt x="199" y="865" on="1"/>
        <pt x="199" y="892" on="1"/>
        <pt x="199" y="910" on="0"/>
        <pt x="217" y="910" on="1"/>
        <pt x="226" y="910" on="0"/>
        <pt x="233" y="906" on="1"/>
        <pt x="413" y="799" on="1"/>
        <pt x="429" y="789" on="0"/>
        <pt x="431" y="772" on="1"/>
        <pt x="431" y="763" on="1"/>
        <pt x="431" y="748" on="0"/>
        <pt x="414" y="748" on="1"/>
        <pt x="407" y="748" on="0"/>
        <pt x="401" y="751" on="1"/>
        <pt x="219" y="832" on="1"/>
        <pt x="199" y="841" on="0"/>
      </contour>
    </TTGlyph>
</ttFont>
